<svg xmlns="http://www.w3.org/2000/svg" xmlns:xlink="http://www.w3.org/1999/xlink" width="500" zoomAndPan="magnify" viewBox="0 0 375 374.999991" height="500" preserveAspectRatio="xMidYMid meet" version="1.0"><defs><clipPath id="2bc63aa91e"><path d="M 16.632812 16.632812 L 358.632812 16.632812 L 358.632812 358.632812 L 16.632812 358.632812 Z M 16.632812 16.632812 " clip-rule="nonzero"/></clipPath><clipPath id="946b9b69d3"><path d="M 25 16.632812 L 197 16.632812 L 197 137 L 25 137 Z M 25 16.632812 " clip-rule="nonzero"/></clipPath><clipPath id="7d18275ad8"><path d="M 121 16.632812 L 197 16.632812 L 197 60 L 121 60 Z M 121 16.632812 " clip-rule="nonzero"/></clipPath></defs><g clip-path="url(#2bc63aa91e)"><path fill="#00309a" d="M 358.363281 187.496094 C 358.363281 281.863281 281.863281 358.363281 187.496094 358.363281 C 93.128906 358.363281 16.632812 281.863281 16.632812 187.496094 C 16.632812 168.566406 19.707031 150.351562 25.398438 133.324219 C 36.375 100.457031 106.242188 76.433594 106.242188 76.433594 C 106.242188 76.433594 106.582031 36.339844 119.117188 30.863281 C 140.054688 21.707031 163.183594 16.632812 187.496094 16.632812 C 281.863281 16.632812 358.363281 93.128906 358.363281 187.496094 Z M 358.363281 187.496094 " fill-opacity="1" fill-rule="nonzero"/></g><path fill="#ffffff" d="M 93.519531 221.667969 L 98.59375 237.824219 L 114.074219 231.820312 L 104.898438 245.964844 L 119.148438 254.636719 L 102.660156 256.105469 L 104.933594 272.929688 L 93.519531 260.617188 L 82.105469 272.929688 L 84.378906 256.105469 L 67.890625 254.636719 L 82.140625 245.964844 L 72.964844 231.820312 L 88.445312 237.859375 Z M 93.519531 221.667969 " fill-opacity="1" fill-rule="nonzero"/><path fill="#ffffff" d="M 277.199219 247.300781 L 279.738281 255.371094 L 287.476562 252.375 L 282.90625 259.449219 L 290.015625 263.789062 L 281.769531 264.523438 L 282.90625 272.929688 L 277.199219 266.785156 L 271.492188 272.929688 L 272.628906 264.523438 L 264.386719 263.789062 L 271.492188 259.449219 L 266.921875 252.375 L 274.664062 255.371094 Z M 277.199219 247.300781 " fill-opacity="1" fill-rule="nonzero"/><path fill="#ffffff" d="M 234.183594 170.273438 L 236.722656 178.355469 L 244.460938 175.347656 L 239.890625 182.421875 L 247 186.761719 L 238.757812 187.496094 L 239.890625 195.902344 L 234.183594 189.769531 L 228.476562 195.902344 L 229.613281 187.496094 L 221.371094 186.761719 L 228.511719 182.421875 L 223.90625 175.347656 L 231.648438 178.355469 Z M 234.183594 170.273438 " fill-opacity="1" fill-rule="nonzero"/><path fill="#ffffff" d="M 277.199219 119.148438 L 279.738281 127.222656 L 287.476562 124.226562 L 282.90625 131.296875 L 290.015625 135.640625 L 281.769531 136.375 L 282.90625 144.78125 L 277.199219 138.636719 L 271.492188 144.78125 L 272.628906 136.375 L 264.386719 135.640625 L 271.492188 131.296875 L 266.921875 124.226562 L 274.664062 127.222656 Z M 277.199219 119.148438 " fill-opacity="1" fill-rule="nonzero"/><path fill="#ffffff" d="M 328.460938 161.867188 L 330.996094 169.941406 L 338.738281 166.941406 L 334.167969 174.015625 L 341.273438 178.355469 L 333.03125 179.089844 L 334.167969 187.496094 L 328.460938 181.355469 L 322.753906 187.496094 L 323.890625 179.089844 L 315.644531 178.355469 L 322.753906 174.015625 L 318.183594 166.941406 L 325.921875 169.941406 Z M 328.460938 161.867188 " fill-opacity="1" fill-rule="nonzero"/><path fill="#ffffff" d="M 298.558594 196.039062 L 300.890625 202.078125 L 307.101562 202.582031 L 302.359375 206.785156 L 303.828125 213.125 L 298.558594 209.691406 L 293.289062 213.125 L 294.757812 206.785156 L 290.015625 202.582031 L 296.226562 202.078125 Z M 298.558594 196.039062 " fill-opacity="1" fill-rule="nonzero"/><g clip-path="url(#946b9b69d3)"><path fill="#ffffff" d="M 119.148438 55.878906 L 119.148438 30.941406 C 106.917969 36.289062 95.511719 43.105469 84.976562 51.035156 L 84.976562 53.453125 L 83.21875 52.359375 C 56.691406 72.855469 36.375 100.910156 25.523438 133.375 L 84.976562 96.253906 L 84.976562 136.238281 L 119.148438 136.238281 L 119.148438 93.820312 L 187.0625 136.238281 L 196.039062 136.238281 L 196.039062 113.949219 L 163.328125 93.519531 L 196.039062 93.519531 L 196.039062 59.347656 L 158.269531 59.347656 L 196.039062 35.75 L 196.039062 17.058594 C 193.195312 16.921875 190.382812 16.632812 187.496094 16.632812 C 185.488281 16.632812 183.53125 16.863281 181.542969 16.929688 Z M 119.148438 55.878906 " fill-opacity="1" fill-rule="nonzero"/></g><path fill="#e53935" d="M 93.519531 84.976562 L 93.519531 136.238281 L 110.605469 136.238281 L 110.605469 84.976562 L 196.039062 84.976562 L 196.039062 67.890625 L 110.605469 67.890625 L 110.605469 35.058594 C 104.71875 38.03125 98.988281 41.253906 93.519531 44.867188 L 93.519531 67.890625 L 65.574219 67.890625 C 60.339844 73.230469 55.546875 78.988281 51.042969 84.976562 Z M 93.519531 84.976562 " fill-opacity="1" fill-rule="nonzero"/><path fill="#e53935" d="M 81.910156 93.519531 L 67.019531 93.519531 L 33.085938 114.699219 C 31.128906 118.835938 29.351562 123.046875 27.730469 127.351562 Z M 81.910156 93.519531 " fill-opacity="1" fill-rule="nonzero"/><g clip-path="url(#7d18275ad8)"><path fill="#e53935" d="M 189.316406 16.726562 L 121.054688 59.347656 L 135.972656 59.347656 L 196.039062 21.832031 L 196.039062 17.058594 C 193.800781 16.945312 191.578125 16.75 189.316406 16.726562 Z M 189.316406 16.726562 " fill-opacity="1" fill-rule="nonzero"/></g><path fill="#e53935" d="M 196.039062 118.585938 L 155.894531 93.519531 L 141.011719 93.519531 L 196.039062 127.863281 Z M 196.039062 118.585938 " fill-opacity="1" fill-rule="nonzero"/></svg>