<svg xmlns="http://www.w3.org/2000/svg" xmlns:xlink="http://www.w3.org/1999/xlink" width="500" zoomAndPan="magnify" viewBox="0 0 375 374.999991" height="500" preserveAspectRatio="xMidYMid meet" version="1.0"><defs><clipPath id="029dd572b6"><path d="M 30.3125 30.3125 L 344.5625 30.3125 L 344.5625 344.5625 L 30.3125 344.5625 Z M 30.3125 30.3125 " clip-rule="nonzero"/></clipPath><clipPath id="0ae7a48c9b"><path d="M 30.3125 187.414062 C 30.3125 182.269531 30.5625 177.136719 31.066406 172.015625 C 31.570312 166.894531 32.324219 161.808594 33.328125 156.765625 C 34.332031 151.71875 35.582031 146.730469 37.074219 141.808594 C 38.570312 136.886719 40.300781 132.046875 42.269531 127.292969 C 44.238281 122.539062 46.4375 117.894531 48.859375 113.355469 C 51.285156 108.816406 53.929688 104.410156 56.789062 100.132812 C 59.644531 95.851562 62.707031 91.726562 65.972656 87.75 C 69.234375 83.769531 72.6875 79.964844 76.324219 76.324219 C 79.964844 72.6875 83.769531 69.234375 87.75 65.972656 C 91.726562 62.707031 95.851562 59.644531 100.132812 56.789062 C 104.410156 53.929688 108.816406 51.285156 113.355469 48.859375 C 117.894531 46.4375 122.539062 44.238281 127.292969 42.269531 C 132.046875 40.300781 136.886719 38.570312 141.808594 37.074219 C 146.730469 35.582031 151.71875 34.332031 156.765625 33.328125 C 161.808594 32.324219 166.894531 31.570312 172.015625 31.066406 C 177.136719 30.5625 182.269531 30.3125 187.414062 30.3125 C 192.558594 30.3125 197.691406 30.5625 202.8125 31.066406 C 207.933594 31.570312 213.015625 32.324219 218.0625 33.328125 C 223.109375 34.332031 228.09375 35.582031 233.015625 37.074219 C 237.941406 38.570312 242.78125 40.300781 247.535156 42.269531 C 252.285156 44.238281 256.933594 46.4375 261.46875 48.859375 C 266.007812 51.285156 270.417969 53.929688 274.695312 56.789062 C 278.972656 59.644531 283.101562 62.707031 287.078125 65.972656 C 291.054688 69.234375 294.863281 72.6875 298.5 76.324219 C 302.140625 79.964844 305.589844 83.769531 308.855469 87.75 C 312.117188 91.726562 315.179688 95.851562 318.039062 100.132812 C 320.898438 104.410156 323.539062 108.816406 325.964844 113.355469 C 328.390625 117.894531 330.585938 122.539062 332.554688 127.292969 C 334.527344 132.046875 336.257812 136.886719 337.75 141.808594 C 339.246094 146.730469 340.492188 151.71875 341.496094 156.765625 C 342.5 161.808594 343.253906 166.894531 343.757812 172.015625 C 344.261719 177.136719 344.515625 182.269531 344.515625 187.414062 C 344.515625 192.558594 344.261719 197.691406 343.757812 202.8125 C 343.253906 207.933594 342.5 213.015625 341.496094 218.0625 C 340.492188 223.109375 339.246094 228.09375 337.75 233.015625 C 336.257812 237.941406 334.527344 242.78125 332.554688 247.535156 C 330.585938 252.285156 328.390625 256.933594 325.964844 261.46875 C 323.539062 266.007812 320.898438 270.417969 318.039062 274.695312 C 315.179688 278.972656 312.117188 283.101562 308.855469 287.078125 C 305.589844 291.054688 302.140625 294.863281 298.5 298.5 C 294.863281 302.140625 291.054688 305.589844 287.078125 308.855469 C 283.101562 312.117188 278.972656 315.179688 274.695312 318.039062 C 270.417969 320.898438 266.007812 323.539062 261.46875 325.964844 C 256.933594 328.390625 252.285156 330.585938 247.535156 332.554688 C 242.78125 334.527344 237.941406 336.257812 233.015625 337.75 C 228.09375 339.242188 223.109375 340.492188 218.0625 341.496094 C 213.015625 342.5 207.933594 343.253906 202.8125 343.757812 C 197.691406 344.261719 192.558594 344.515625 187.414062 344.515625 C 182.269531 344.515625 177.136719 344.261719 172.015625 343.757812 C 166.894531 343.253906 161.808594 342.5 156.765625 341.496094 C 151.71875 340.492188 146.730469 339.242188 141.808594 337.75 C 136.886719 336.257812 132.046875 334.527344 127.292969 332.554688 C 122.539062 330.585938 117.894531 328.390625 113.355469 325.964844 C 108.816406 323.539062 104.410156 320.898438 100.132812 318.039062 C 95.851562 315.179688 91.726562 312.117188 87.75 308.855469 C 83.769531 305.589844 79.964844 302.140625 76.324219 298.5 C 72.6875 294.863281 69.234375 291.054688 65.972656 287.078125 C 62.707031 283.101562 59.644531 278.972656 56.789062 274.695312 C 53.929688 270.417969 51.285156 266.007812 48.859375 261.46875 C 46.4375 256.933594 44.238281 252.285156 42.269531 247.535156 C 40.300781 242.78125 38.570312 237.941406 37.074219 233.015625 C 35.582031 228.09375 34.332031 223.109375 33.328125 218.0625 C 32.324219 213.015625 31.570312 207.933594 31.066406 202.8125 C 30.5625 197.691406 30.3125 192.558594 30.3125 187.414062 Z M 30.3125 187.414062 " clip-rule="nonzero"/></clipPath><clipPath id="bec5a30814"><path d="M 79 30.3125 L 295 30.3125 L 295 344.5625 L 79 344.5625 Z M 79 30.3125 " clip-rule="nonzero"/></clipPath><clipPath id="ffc793ce7f"><path d="M 30.3125 187.414062 C 30.3125 182.269531 30.5625 177.136719 31.066406 172.015625 C 31.570312 166.894531 32.324219 161.808594 33.328125 156.765625 C 34.332031 151.71875 35.582031 146.730469 37.074219 141.808594 C 38.570312 136.886719 40.300781 132.046875 42.269531 127.292969 C 44.238281 122.539062 46.4375 117.894531 48.859375 113.355469 C 51.285156 108.816406 53.929688 104.410156 56.789062 100.132812 C 59.644531 95.851562 62.707031 91.726562 65.972656 87.75 C 69.234375 83.769531 72.6875 79.964844 76.324219 76.324219 C 79.964844 72.6875 83.769531 69.234375 87.75 65.972656 C 91.726562 62.707031 95.851562 59.644531 100.132812 56.789062 C 104.410156 53.929688 108.816406 51.285156 113.355469 48.859375 C 117.894531 46.4375 122.539062 44.238281 127.292969 42.269531 C 132.046875 40.300781 136.886719 38.570312 141.808594 37.074219 C 146.730469 35.582031 151.71875 34.332031 156.765625 33.328125 C 161.808594 32.324219 166.894531 31.570312 172.015625 31.066406 C 177.136719 30.5625 182.269531 30.3125 187.414062 30.3125 C 192.558594 30.3125 197.691406 30.5625 202.8125 31.066406 C 207.933594 31.570312 213.015625 32.324219 218.0625 33.328125 C 223.109375 34.332031 228.09375 35.582031 233.015625 37.074219 C 237.941406 38.570312 242.78125 40.300781 247.535156 42.269531 C 252.285156 44.238281 256.933594 46.4375 261.46875 48.859375 C 266.007812 51.285156 270.417969 53.929688 274.695312 56.789062 C 278.972656 59.644531 283.101562 62.707031 287.078125 65.972656 C 291.054688 69.234375 294.863281 72.6875 298.5 76.324219 C 302.140625 79.964844 305.589844 83.769531 308.855469 87.75 C 312.117188 91.726562 315.179688 95.851562 318.039062 100.132812 C 320.898438 104.410156 323.539062 108.816406 325.964844 113.355469 C 328.390625 117.894531 330.585938 122.539062 332.554688 127.292969 C 334.527344 132.046875 336.257812 136.886719 337.75 141.808594 C 339.246094 146.730469 340.492188 151.71875 341.496094 156.765625 C 342.5 161.808594 343.253906 166.894531 343.757812 172.015625 C 344.261719 177.136719 344.515625 182.269531 344.515625 187.414062 C 344.515625 192.558594 344.261719 197.691406 343.757812 202.8125 C 343.253906 207.933594 342.5 213.015625 341.496094 218.0625 C 340.492188 223.109375 339.246094 228.09375 337.75 233.015625 C 336.257812 237.941406 334.527344 242.78125 332.554688 247.535156 C 330.585938 252.285156 328.390625 256.933594 325.964844 261.46875 C 323.539062 266.007812 320.898438 270.417969 318.039062 274.695312 C 315.179688 278.972656 312.117188 283.101562 308.855469 287.078125 C 305.589844 291.054688 302.140625 294.863281 298.5 298.5 C 294.863281 302.140625 291.054688 305.589844 287.078125 308.855469 C 283.101562 312.117188 278.972656 315.179688 274.695312 318.039062 C 270.417969 320.898438 266.007812 323.539062 261.46875 325.964844 C 256.933594 328.390625 252.285156 330.585938 247.535156 332.554688 C 242.78125 334.527344 237.941406 336.257812 233.015625 337.75 C 228.09375 339.242188 223.109375 340.492188 218.0625 341.496094 C 213.015625 342.5 207.933594 343.253906 202.8125 343.757812 C 197.691406 344.261719 192.558594 344.515625 187.414062 344.515625 C 182.269531 344.515625 177.136719 344.261719 172.015625 343.757812 C 166.894531 343.253906 161.808594 342.5 156.765625 341.496094 C 151.71875 340.492188 146.730469 339.242188 141.808594 337.75 C 136.886719 336.257812 132.046875 334.527344 127.292969 332.554688 C 122.539062 330.585938 117.894531 328.390625 113.355469 325.964844 C 108.816406 323.539062 104.410156 320.898438 100.132812 318.039062 C 95.851562 315.179688 91.726562 312.117188 87.75 308.855469 C 83.769531 305.589844 79.964844 302.140625 76.324219 298.5 C 72.6875 294.863281 69.234375 291.054688 65.972656 287.078125 C 62.707031 283.101562 59.644531 278.972656 56.789062 274.695312 C 53.929688 270.417969 51.285156 266.007812 48.859375 261.46875 C 46.4375 256.933594 44.238281 252.285156 42.269531 247.535156 C 40.300781 242.78125 38.570312 237.941406 37.074219 233.015625 C 35.582031 228.09375 34.332031 223.109375 33.328125 218.0625 C 32.324219 213.015625 31.570312 207.933594 31.066406 202.8125 C 30.5625 197.691406 30.3125 192.558594 30.3125 187.414062 Z M 30.3125 187.414062 " clip-rule="nonzero"/></clipPath></defs><g clip-path="url(#029dd572b6)"><g clip-path="url(#0ae7a48c9b)"><path fill="#ff0000" d="M -27.554688 23.304688 L 402.382812 23.304688 L 402.382812 351.519531 L -27.554688 351.519531 Z M -27.554688 23.304688 " fill-opacity="1" fill-rule="nonzero"/></g></g><g clip-path="url(#bec5a30814)"><g clip-path="url(#ffc793ce7f)"><path fill="#ffffff" d="M 79.929688 23.304688 L 294.898438 23.304688 L 294.898438 351.519531 L 79.929688 351.519531 Z M 191.445312 278.328125 L 189.429688 239.675781 C 189.320312 237.332031 191.136719 235.339844 193.484375 235.230469 C 193.789062 235.21875 194.097656 235.238281 194.398438 235.289062 L 232.871094 242.050781 L 227.675781 227.71875 C 227.242188 226.550781 227.601562 225.234375 228.570312 224.449219 L 270.714844 190.324219 L 261.222656 185.890625 C 259.894531 185.261719 259.242188 183.746094 259.699219 182.351562 L 268.027344 156.734375 L 243.753906 161.886719 C 242.398438 162.167969 241.03125 161.457031 240.484375 160.183594 L 235.78125 149.121094 L 216.835938 169.453125 C 215.730469 170.621094 213.890625 170.671875 212.722656 169.5625 C 212.003906 168.878906 211.679688 167.875 211.867188 166.902344 L 221.003906 119.785156 L 206.355469 128.25 C 204.96875 129.0625 203.1875 128.601562 202.375 127.210938 C 202.339844 127.15625 202.308594 127.101562 202.28125 127.042969 L 187.414062 97.84375 L 172.542969 127.042969 C 171.824219 128.480469 170.078125 129.0625 168.640625 128.34375 C 168.582031 128.316406 168.523438 128.285156 168.46875 128.25 L 153.824219 119.785156 L 162.960938 166.902344 C 163.265625 168.480469 162.230469 170.003906 160.652344 170.308594 C 159.675781 170.496094 158.671875 170.175781 157.988281 169.453125 L 139.046875 149.121094 L 134.34375 160.183594 C 133.796875 161.457031 132.429688 162.167969 131.074219 161.886719 L 106.800781 156.734375 L 115.128906 182.351562 C 115.585938 183.746094 114.933594 185.265625 113.605469 185.890625 L 104.113281 190.324219 L 146.257812 224.449219 C 147.222656 225.234375 147.582031 226.550781 147.152344 227.71875 L 141.957031 242.050781 L 180.425781 235.289062 C 182.742188 234.890625 184.941406 236.445312 185.34375 238.761719 C 185.394531 239.0625 185.414062 239.371094 185.398438 239.675781 L 183.382812 278.328125 Z M 191.445312 278.328125 " fill-opacity="1" fill-rule="nonzero"/></g></g></svg>