<svg xmlns="http://www.w3.org/2000/svg" xmlns:xlink="http://www.w3.org/1999/xlink" width="500" zoomAndPan="magnify" viewBox="0 0 375 374.999991" height="500" preserveAspectRatio="xMidYMid meet" version="1.0"><path fill="#ffffff" d="M 157.601562 18.664062 C 152.304688 19.601562 147.050781 20.785156 141.863281 22.21875 L 141.863281 130.203125 L 54.265625 79.628906 C 50.191406 84.664062 46.347656 89.949219 42.796875 95.546875 C 41.394531 97.742188 40.085938 99.972656 38.796875 102.203125 L 134.109375 157.234375 L 104.734375 157.234375 L 32.042969 115.273438 C 30.554688 118.476562 29.152344 121.714844 27.875 124.964844 L 83.75 157.234375 L 18.753906 157.234375 C 18.136719 160.703125 17.59375 164.175781 17.195312 167.65625 L 157.601562 167.65625 L 157.601562 18.664062 " fill-opacity="1" fill-rule="nonzero"/><path fill="#ffffff" d="M 217.402344 356.214844 C 222.695312 355.273438 227.945312 354.097656 233.136719 352.664062 L 233.136719 245.902344 L 320.050781 296.078125 C 324.359375 290.796875 328.445312 285.238281 332.191406 279.335938 C 333.402344 277.4375 334.523438 275.511719 335.644531 273.589844 L 238.757812 217.648438 L 268.132812 217.648438 L 342.488281 260.574219 C 344.003906 257.378906 345.414062 254.148438 346.714844 250.902344 L 289.128906 217.648438 L 356.234375 217.648438 C 356.851562 214.191406 357.394531 210.722656 357.800781 207.242188 L 217.402344 207.242188 L 217.402344 356.214844 " fill-opacity="1" fill-rule="nonzero"/><path fill="#ffffff" d="M 17.246094 207.242188 C 17.660156 210.734375 18.164062 214.199219 18.78125 217.648438 L 79.566406 217.648438 L 27.113281 247.941406 C 30.320312 256.460938 34.230469 264.734375 38.789062 272.6875 L 134.121094 217.648438 L 141.863281 217.648438 L 141.863281 230.152344 L 46.601562 285.140625 C 48.597656 288.023438 50.726562 290.835938 52.914062 293.605469 L 141.863281 242.253906 L 141.863281 352.695312 C 147.066406 354.140625 152.324219 355.308594 157.601562 356.238281 L 157.601562 207.242188 L 17.246094 207.242188 " fill-opacity="1" fill-rule="nonzero"/><path fill="#ffffff" d="M 357.746094 167.65625 C 357.332031 164.160156 356.824219 160.695312 356.207031 157.234375 L 293.332031 157.234375 L 347.503906 125.957031 C 344.242188 117.464844 340.273438 109.21875 335.671875 101.289062 L 238.78125 157.234375 L 233.136719 157.234375 L 233.136719 143.542969 L 327.773438 88.886719 C 325.753906 86.015625 323.617188 83.203125 321.410156 80.449219 L 233.136719 131.410156 L 233.136719 22.183594 C 227.921875 20.746094 222.667969 19.570312 217.402344 18.640625 L 217.402344 167.65625 L 357.746094 167.65625 " fill-opacity="1" fill-rule="nonzero"/><path fill="#002794" d="M 27.875 124.964844 C 23.726562 135.527344 20.707031 146.328125 18.753906 157.234375 L 83.75 157.234375 L 27.875 124.964844 " fill-opacity="1" fill-rule="nonzero"/><path fill="#002794" d="M 18.78125 217.648438 C 20.640625 227.96875 23.417969 238.113281 27.113281 247.941406 L 79.566406 217.648438 L 18.78125 217.648438 " fill-opacity="1" fill-rule="nonzero"/><path fill="#002794" d="M 52.914062 293.605469 C 64.5625 308.375 78.820312 321.488281 95.601562 332.136719 C 110.304688 341.480469 125.902344 348.28125 141.863281 352.695312 L 141.863281 242.253906 L 52.914062 293.605469 " fill-opacity="1" fill-rule="nonzero"/><path fill="#002794" d="M 233.136719 352.664062 C 266.433594 343.476562 297.03125 324.222656 320.050781 296.078125 L 233.136719 245.902344 L 233.136719 352.664062 " fill-opacity="1" fill-rule="nonzero"/><path fill="#002794" d="M 321.410156 80.449219 C 309.882812 66.019531 295.851562 53.191406 279.394531 42.742188 C 264.683594 33.398438 249.09375 26.597656 233.136719 22.183594 L 233.136719 131.410156 L 321.410156 80.449219 " fill-opacity="1" fill-rule="nonzero"/><path fill="#002794" d="M 141.863281 22.21875 C 108.234375 31.496094 77.351562 51.027344 54.265625 79.628906 L 141.863281 130.203125 L 141.863281 22.21875 " fill-opacity="1" fill-rule="nonzero"/><path fill="#002794" d="M 346.714844 250.902344 C 351.0625 240.035156 354.226562 228.898438 356.234375 217.648438 L 289.128906 217.648438 L 346.714844 250.902344 " fill-opacity="1" fill-rule="nonzero"/><path fill="#002794" d="M 356.207031 157.234375 C 354.292969 146.578125 351.390625 136.097656 347.503906 125.957031 L 293.332031 157.234375 L 356.207031 157.234375 " fill-opacity="1" fill-rule="nonzero"/><path fill="#e52c33" d="M 238.757812 217.648438 L 335.644531 273.589844 C 338.136719 269.316406 340.402344 264.972656 342.488281 260.574219 L 268.132812 217.648438 L 238.757812 217.648438 " fill-opacity="1" fill-rule="nonzero"/><path fill="#e52c33" d="M 233.136719 157.234375 L 238.78125 157.234375 L 335.671875 101.289062 C 333.21875 97.0625 330.601562 92.917969 327.773438 88.886719 L 233.136719 143.542969 L 233.136719 157.234375 " fill-opacity="1" fill-rule="nonzero"/><path fill="#e52c33" d="M 134.109375 157.234375 L 38.796875 102.203125 C 36.339844 106.5 34.105469 110.859375 32.042969 115.273438 L 104.734375 157.234375 L 134.109375 157.234375 " fill-opacity="1" fill-rule="nonzero"/><path fill="#e52c33" d="M 141.863281 217.648438 L 134.121094 217.648438 L 38.789062 272.6875 C 41.21875 276.929688 43.800781 281.097656 46.601562 285.140625 L 141.863281 230.152344 L 141.863281 217.648438 " fill-opacity="1" fill-rule="nonzero"/><path fill="#e52c33" d="M 357.746094 167.65625 L 217.402344 167.65625 L 217.402344 18.640625 C 197.464844 15.117188 177.21875 15.179688 157.601562 18.664062 L 157.601562 167.65625 L 17.195312 167.65625 C 15.667969 180.875 15.71875 194.160156 17.246094 207.242188 L 157.601562 207.242188 L 157.601562 356.238281 C 177.53125 359.761719 197.777344 359.699219 217.402344 356.214844 L 217.402344 207.242188 L 357.800781 207.242188 C 359.320312 194.023438 359.269531 180.738281 357.746094 167.65625 " fill-opacity="1" fill-rule="nonzero"/></svg>