<svg xmlns="http://www.w3.org/2000/svg" xmlns:xlink="http://www.w3.org/1999/xlink" width="500" zoomAndPan="magnify" viewBox="0 0 375 374.999991" height="500" preserveAspectRatio="xMidYMid meet" version="1.0"><defs><clipPath id="d27b4f9079"><path d="M 17.6875 17.6875 L 357.4375 17.6875 L 357.4375 357.4375 L 17.6875 357.4375 Z M 17.6875 17.6875 " clip-rule="nonzero"/></clipPath></defs><g clip-path="url(#d27b4f9079)"><path fill="#ffffff" d="M 357.308594 187.496094 C 357.308594 281.285156 281.285156 357.308594 187.496094 357.308594 C 93.710938 357.308594 17.6875 281.285156 17.6875 187.496094 C 17.6875 93.710938 93.710938 17.6875 187.496094 17.6875 C 281.285156 17.6875 357.308594 93.710938 357.308594 187.496094 Z M 357.308594 187.496094 " fill-opacity="1" fill-rule="evenodd"/></g><path fill="#ff0000" d="M 272.402344 187.496094 C 272.402344 234.371094 234.371094 272.402344 187.496094 272.402344 C 140.621094 272.402344 102.59375 234.371094 102.59375 187.496094 C 102.59375 140.621094 140.621094 102.59375 187.496094 102.59375 C 234.371094 102.59375 272.402344 140.621094 272.402344 187.496094 Z M 272.402344 187.496094 " fill-opacity="1" fill-rule="evenodd"/></svg>