<svg xmlns="http://www.w3.org/2000/svg" xmlns:xlink="http://www.w3.org/1999/xlink" width="500" zoomAndPan="magnify" viewBox="0 0 375 374.999991" height="500" preserveAspectRatio="xMidYMid meet" version="1.0"><defs><clipPath id="abd237d8af"><path d="M 11.609375 12.046875 L 363.359375 12.046875 L 363.359375 363 L 11.609375 363 Z M 11.609375 12.046875 " clip-rule="nonzero"/></clipPath><clipPath id="69c946c9fa"><path d="M 12 12.046875 L 176 12.046875 L 176 170 L 12 170 Z M 12 12.046875 " clip-rule="nonzero"/></clipPath><clipPath id="b2ff771494"><path d="M 16 12.046875 L 176 12.046875 L 176 144 L 16 144 Z M 16 12.046875 " clip-rule="nonzero"/></clipPath><clipPath id="985483fe09"><path d="M 92 12.046875 L 176 12.046875 L 176 69 L 92 69 Z M 92 12.046875 " clip-rule="nonzero"/></clipPath></defs><g clip-path="url(#abd237d8af)"><path fill="#002794" d="M 363.144531 187.15625 C 363.144531 283.457031 285.6875 361.664062 189.675781 362.882812 C 188.980469 362.894531 188.28125 362.894531 187.585938 362.894531 C 186.828125 362.894531 186.074219 362.894531 185.3125 362.882812 C 89.300781 361.664062 11.847656 283.457031 11.847656 187.15625 C 11.847656 181.1875 12.117188 175.296875 12.652344 169.492188 C 13.453125 160.578125 14.878906 151.878906 16.878906 143.4375 C 17.6875 140.015625 18.59375 136.636719 19.589844 133.304688 C 20.585938 129.960938 21.679688 126.664062 22.867188 123.421875 C 24.078125 120.074219 25.390625 116.785156 26.800781 113.550781 C 27.960938 110.871094 29.183594 108.226562 30.476562 105.625 C 30.773438 105.023438 31.074219 104.425781 31.378906 103.832031 C 34.675781 97.367188 38.359375 91.15625 42.402344 85.230469 C 44.644531 81.945312 47 78.746094 49.464844 75.640625 C 49.625 75.433594 49.792969 75.226562 49.953125 75.019531 C 51.953125 72.519531 54.015625 70.082031 56.15625 67.710938 C 56.195312 67.667969 56.234375 67.621094 56.277344 67.578125 C 56.617188 67.199219 56.960938 66.816406 57.3125 66.433594 C 65.660156 57.335938 75.019531 49.179688 85.257812 42.125 L 85.257812 42.003906 C 87.328125 40.574219 89.4375 39.195312 91.578125 37.867188 C 111.222656 25.644531 133.808594 17.308594 158.550781 13.839844 C 163.019531 13.210938 167.558594 12.742188 172.164062 12.4375 C 173.410156 12.355469 174.660156 12.289062 175.917969 12.226562 C 177.601562 12.148438 179.292969 12.09375 180.988281 12.0625 C 181.554688 12.050781 182.121094 12.042969 182.691406 12.035156 C 183.476562 12.027344 184.257812 12.023438 185.046875 12.023438 C 185.742188 12.023438 186.4375 12.027344 187.136719 12.035156 C 283.1875 13.242188 363.144531 90.855469 363.144531 187.15625 " fill-opacity="1" fill-rule="nonzero"/></g><path fill="#ffffff" d="M 246.335938 228.226562 L 268.285156 228.273438 L 275.109375 207.410156 L 281.851562 228.296875 L 303.800781 228.339844 L 286.015625 241.207031 L 292.757812 262.09375 L 275.027344 249.160156 L 257.246094 262.023438 L 264.070312 241.164062 L 246.335938 228.226562 " fill-opacity="1" fill-rule="nonzero"/><path fill="#ff0000" d="M 252.628906 230.023438 L 269.859375 230.058594 L 275.210938 213.683594 L 280.503906 230.078125 L 297.730469 230.113281 L 283.773438 240.210938 L 289.066406 256.605469 L 275.148438 246.453125 L 261.191406 256.546875 L 266.546875 240.179688 L 252.628906 230.023438 " fill-opacity="1" fill-rule="nonzero"/><path fill="#ffffff" d="M 249.261719 71.25 L 269.097656 71.289062 L 275.265625 52.433594 L 281.359375 71.3125 L 301.199219 71.351562 L 285.125 82.980469 L 291.21875 101.859375 L 275.191406 90.167969 L 259.117188 101.796875 L 265.285156 82.941406 L 249.261719 71.25 " fill-opacity="1" fill-rule="nonzero"/><path fill="#ff0000" d="M 254.949219 72.910156 L 270.519531 72.941406 L 275.359375 58.144531 L 280.144531 72.960938 L 295.714844 72.992188 L 283.097656 82.117188 L 287.882812 96.9375 L 275.304688 87.757812 L 262.6875 96.886719 L 267.527344 82.085938 L 254.949219 72.910156 " fill-opacity="1" fill-rule="nonzero"/><path fill="#ffffff" d="M 195.636719 143.285156 L 216.222656 143.324219 L 222.625 123.757812 L 228.949219 143.351562 L 249.535156 143.390625 L 232.855469 155.457031 L 239.179688 175.050781 L 222.546875 162.917969 L 205.867188 174.984375 L 212.269531 155.417969 L 195.636719 143.285156 " fill-opacity="1" fill-rule="nonzero"/><path fill="#ff0000" d="M 201.433594 144.992188 L 217.59375 145.023438 L 222.617188 129.664062 L 227.578125 145.046875 L 243.738281 145.078125 L 230.648438 154.550781 L 235.609375 169.929688 L 222.554688 160.40625 L 209.464844 169.878906 L 214.488281 154.519531 L 201.433594 144.992188 " fill-opacity="1" fill-rule="nonzero"/><path fill="#ffffff" d="M 302.347656 132.6875 L 319.308594 132.71875 L 324.582031 116.597656 L 329.792969 132.738281 L 346.753906 132.769531 L 333.015625 142.714844 L 338.222656 158.855469 L 324.519531 148.859375 L 310.777344 158.804688 L 316.050781 142.683594 L 302.347656 132.6875 " fill-opacity="1" fill-rule="nonzero"/><path fill="#ff0000" d="M 307.125 134.160156 L 320.4375 134.191406 L 324.578125 121.535156 L 328.667969 134.203125 L 341.980469 134.234375 L 331.191406 142.035156 L 335.28125 154.707031 L 324.527344 146.859375 L 313.738281 154.664062 L 317.878906 142.011719 L 307.125 134.160156 " fill-opacity="1" fill-rule="nonzero"/><g clip-path="url(#69c946c9fa)"><path fill="#002794" d="M 175.917969 12.226562 L 175.917969 169.492188 L 12.652344 169.492188 C 13.453125 160.578125 14.878906 151.878906 16.878906 143.4375 C 17.6875 140.015625 18.59375 136.636719 19.589844 133.304688 C 20.585938 129.960938 21.679688 126.664062 22.867188 123.421875 C 24.078125 120.074219 25.390625 116.785156 26.800781 113.550781 C 27.960938 110.871094 29.183594 108.226562 30.476562 105.625 C 30.773438 105.023438 31.074219 104.425781 31.378906 103.832031 C 34.675781 97.367188 38.359375 91.15625 42.402344 85.230469 C 44.644531 81.945312 47 78.746094 49.464844 75.640625 C 49.625 75.433594 49.792969 75.226562 49.953125 75.019531 C 51.953125 72.519531 54.015625 70.082031 56.15625 67.710938 C 56.195312 67.667969 56.234375 67.621094 56.277344 67.578125 C 56.617188 67.199219 56.960938 66.816406 57.3125 66.433594 C 65.660156 57.335938 75.019531 49.179688 85.257812 42.125 L 85.257812 42.003906 C 87.328125 40.574219 89.4375 39.195312 91.578125 37.867188 C 111.222656 25.644531 133.808594 17.308594 158.550781 13.839844 C 163.019531 13.210938 167.558594 12.742188 172.164062 12.4375 C 173.410156 12.355469 174.660156 12.289062 175.917969 12.226562 " fill-opacity="1" fill-rule="nonzero"/></g><path fill="#ffffff" d="M 91.578125 37.867188 L 91.578125 169.492188 L 49.953125 169.492188 L 49.953125 75.019531 C 51.953125 72.519531 54.015625 70.082031 56.15625 67.710938 C 56.195312 67.667969 56.234375 67.621094 56.277344 67.578125 C 56.617188 67.199219 56.960938 66.816406 57.3125 66.433594 C 65.660156 57.335938 75.019531 49.179688 85.257812 42.125 L 85.257812 42.003906 C 87.328125 40.574219 89.4375 39.195312 91.578125 37.867188 " fill-opacity="1" fill-rule="nonzero"/><path fill="#ffffff" d="M 175.917969 67.710938 L 175.917969 113.550781 L 26.800781 113.550781 C 27.960938 110.871094 29.183594 108.226562 30.476562 105.625 C 30.773438 105.023438 31.074219 104.425781 31.378906 103.832031 C 34.675781 97.367188 38.359375 91.15625 42.402344 85.230469 C 44.644531 81.945312 47 78.746094 49.464844 75.640625 C 49.625 75.433594 49.792969 75.226562 49.953125 75.019531 C 51.953125 72.519531 54.015625 70.082031 56.15625 67.710938 L 175.917969 67.710938 " fill-opacity="1" fill-rule="nonzero"/><path fill="#ff0000" d="M 85.257812 42.125 L 85.257812 169.492188 L 56.277344 169.492188 L 56.277344 67.578125 C 56.617188 67.199219 56.960938 66.816406 57.3125 66.433594 C 65.660156 57.335938 75.019531 49.179688 85.257812 42.125 " fill-opacity="1" fill-rule="nonzero"/><path fill="#ff0000" d="M 175.917969 75.640625 L 175.917969 105.625 L 30.476562 105.625 C 30.773438 105.023438 31.074219 104.425781 31.378906 103.832031 C 34.675781 97.367188 38.359375 91.15625 42.402344 85.230469 C 44.644531 81.945312 47 78.746094 49.464844 75.640625 L 175.917969 75.640625 " fill-opacity="1" fill-rule="nonzero"/><g clip-path="url(#b2ff771494)"><path fill="#ffffff" d="M 175.917969 12.226562 L 175.917969 30.878906 L 123.882812 67.710938 L 123.832031 67.742188 L 123.820312 67.753906 L 123.816406 67.761719 L 112.691406 75.632812 L 112.6875 75.640625 L 112.675781 75.648438 L 91.578125 90.574219 L 91.578125 90.578125 L 91.503906 90.632812 L 85.257812 95.046875 L 70.765625 105.304688 L 70.328125 105.613281 L 70.3125 105.628906 L 59.183594 113.5 L 59.160156 113.515625 L 59.109375 113.550781 L 56.277344 115.558594 L 49.953125 120.035156 L 16.878906 143.4375 C 17.6875 140.015625 18.59375 136.636719 19.589844 133.304688 C 20.585938 129.960938 21.679688 126.664062 22.867188 123.421875 C 24.078125 120.074219 25.390625 116.785156 26.800781 113.550781 C 27.960938 110.871094 29.183594 108.226562 30.476562 105.625 C 30.773438 105.023438 31.074219 104.425781 31.378906 103.832031 L 49.953125 90.683594 L 50.03125 90.632812 L 56.277344 86.210938 L 70.765625 75.957031 L 71.207031 75.648438 L 71.214844 75.640625 L 71.226562 75.632812 L 82.351562 67.761719 L 82.363281 67.753906 L 82.375 67.742188 L 82.421875 67.710938 L 85.257812 65.703125 L 91.578125 61.230469 L 158.5 13.875 L 158.550781 13.839844 C 163.019531 13.210938 167.558594 12.742188 172.164062 12.4375 C 173.410156 12.355469 174.660156 12.289062 175.917969 12.226562 " fill-opacity="1" fill-rule="nonzero"/></g><path fill="#ffffff" d="M 175.917969 150.382812 L 175.917969 169.492188 L 161.476562 169.492188 L 91.578125 120.035156 L 85.257812 115.558594 L 82.417969 113.550781 L 82.40625 113.539062 L 82.375 113.515625 L 82.351562 113.5 L 71.226562 105.628906 L 71.214844 105.621094 L 71.207031 105.613281 L 70.765625 105.304688 L 56.277344 95.046875 L 50.03125 90.632812 L 49.953125 90.578125 L 42.402344 85.230469 C 44.644531 81.945312 47 78.746094 49.464844 75.640625 C 49.625 75.433594 49.792969 75.226562 49.953125 75.019531 C 51.953125 72.519531 54.015625 70.082031 56.15625 67.710938 C 56.195312 67.667969 56.234375 67.621094 56.277344 67.578125 C 56.617188 67.199219 56.960938 66.816406 57.3125 66.433594 L 59.113281 67.710938 L 59.132812 67.71875 L 59.171875 67.753906 L 59.183594 67.761719 L 70.3125 75.632812 L 70.316406 75.640625 L 70.328125 75.648438 L 70.765625 75.957031 L 85.257812 86.210938 L 91.503906 90.632812 L 91.578125 90.683594 L 112.675781 105.613281 L 112.6875 105.625 L 112.695312 105.628906 L 123.820312 113.5 L 123.820312 113.507812 L 123.84375 113.515625 L 123.863281 113.539062 L 123.875 113.550781 L 175.917969 150.378906 L 175.917969 150.382812 " fill-opacity="1" fill-rule="nonzero"/><path fill="#ff0000" d="M 48.246094 113.222656 L 47.835938 113.515625 L 47.785156 113.550781 L 19.589844 133.304688 C 20.585938 129.960938 21.679688 126.664062 22.867188 123.421875 L 36.949219 113.550781 L 37.003906 113.515625 L 37.40625 113.222656 L 48.246094 113.222656 " fill-opacity="1" fill-rule="nonzero"/><path fill="#ff0000" d="M 175.917969 158.921875 L 175.917969 168.164062 L 100.277344 113.539062 L 100.25 113.511719 L 99.847656 113.222656 L 110.6875 113.222656 L 111.105469 113.511719 L 111.132812 113.539062 L 175.917969 158.921875 " fill-opacity="1" fill-rule="nonzero"/><g clip-path="url(#985483fe09)"><path fill="#ff0000" d="M 175.917969 12.226562 L 175.917969 17.414062 L 104.105469 67.710938 L 104.054688 67.746094 L 103.648438 68.039062 L 92.808594 68.039062 L 93.21875 67.742188 L 93.265625 67.710938 L 172.144531 12.453125 L 172.164062 12.4375 C 173.410156 12.355469 174.660156 12.289062 175.917969 12.226562 " fill-opacity="1" fill-rule="nonzero"/></g><path fill="#ff0000" d="M 85.257812 42.125 L 85.257812 169.492188 L 56.277344 169.492188 L 56.277344 67.578125 C 56.617188 67.199219 56.960938 66.816406 57.3125 66.433594 C 65.660156 57.335938 75.019531 49.179688 85.257812 42.125 " fill-opacity="1" fill-rule="nonzero"/><path fill="#ff0000" d="M 175.917969 75.640625 L 175.917969 105.625 L 30.476562 105.625 C 30.773438 105.023438 31.074219 104.425781 31.378906 103.832031 C 34.675781 97.367188 38.359375 91.15625 42.402344 85.230469 C 44.644531 81.945312 47 78.746094 49.464844 75.640625 L 175.917969 75.640625 " fill-opacity="1" fill-rule="nonzero"/></svg>