<svg xmlns="http://www.w3.org/2000/svg" xmlns:xlink="http://www.w3.org/1999/xlink" width="512" zoomAndPan="magnify" viewBox="0 0 384 383.999986" height="512" preserveAspectRatio="xMidYMid meet" version="1.0"><defs><clipPath id="bec2ffde56"><path d="M 0 0 L 384 0 L 384 383.25 L 0 383.25 Z M 0 0 " clip-rule="nonzero"/></clipPath></defs><g clip-path="url(#bec2ffde56)"><path fill="#38b6ff" d="M 210.484375 132.773438 C 210.484375 111.304688 193.015625 93.839844 171.542969 93.839844 C 150.070312 93.839844 132.601562 111.304688 132.601562 132.773438 C 132.601562 154.246094 150.070312 171.714844 171.542969 171.714844 C 193.015625 171.714844 210.484375 154.246094 210.484375 132.773438 Z M 143.457031 132.773438 C 143.457031 117.289062 156.054688 104.695312 171.542969 104.695312 C 187.03125 104.695312 199.628906 117.289062 199.628906 132.773438 C 199.628906 148.261719 187.03125 160.859375 171.542969 160.859375 C 156.054688 160.859375 143.457031 148.261719 143.457031 132.773438 Z M 381.898438 268.804688 L 336.929688 221.75 C 335.398438 220.148438 333.042969 219.636719 330.988281 220.460938 C 328.929688 221.289062 327.578125 223.28125 327.578125 225.5 L 327.578125 244.175781 L 289.257812 244.175781 C 309.972656 218.128906 322.007812 185.328125 322.007812 150.46875 C 322.007812 67.5 254.507812 0 171.539062 0 C 88.570312 0 21.074219 67.5 21.074219 150.46875 C 21.074219 157.097656 21.507812 163.75 22.375 170.308594 L 4.386719 175.128906 C 2.246094 175.703125 0.667969 177.523438 0.402344 179.722656 C 0.136719 181.925781 1.238281 184.066406 3.183594 185.132812 L 60.277344 216.390625 C 62.824219 217.785156 66.015625 216.929688 67.519531 214.449219 L 101.335938 158.832031 C 102.488281 156.9375 102.371094 154.53125 101.042969 152.757812 C 99.710938 150.984375 97.4375 150.195312 95.292969 150.769531 L 77.964844 155.414062 C 77.878906 153.765625 77.835938 152.113281 77.835938 150.46875 C 77.835938 98.800781 119.871094 56.765625 171.539062 56.765625 C 223.207031 56.765625 265.242188 98.800781 265.242188 150.46875 C 265.242188 176.246094 254.914062 199.863281 237.726562 216.957031 C 223.554688 194.109375 198.792969 180.175781 171.539062 180.175781 C 133.628906 180.175781 101.496094 207.367188 94.867188 244.175781 L 5.792969 244.175781 C 2.792969 244.175781 0.363281 246.605469 0.363281 249.605469 L 0.363281 295.507812 C 0.363281 298.503906 2.792969 300.933594 5.792969 300.933594 L 120.082031 300.933594 C 122.367188 310.496094 127.25 319.058594 133.949219 325.828125 L 113.351562 361.503906 C 112.285156 363.351562 112.402344 365.652344 113.644531 367.386719 C 114.890625 369.117188 117.035156 369.960938 119.128906 369.539062 L 131.941406 366.953125 L 136.105469 379.339844 C 136.785156 381.363281 138.589844 382.800781 140.710938 383.011719 C 140.890625 383.027344 141.074219 383.039062 141.253906 383.039062 C 143.175781 383.039062 144.976562 382.015625 145.953125 380.324219 L 168.402344 341.441406 C 169.441406 341.503906 170.484375 341.542969 171.539062 341.542969 C 172.597656 341.542969 173.640625 341.503906 174.679688 341.441406 L 197.128906 380.324219 C 198.105469 382.015625 199.902344 383.039062 201.828125 383.039062 C 202.007812 383.039062 202.1875 383.027344 202.367188 383.011719 C 204.492188 382.800781 206.292969 381.363281 206.972656 379.339844 L 211.140625 366.953125 L 223.953125 369.539062 C 226.046875 369.960938 228.1875 369.117188 229.433594 367.386719 C 230.679688 365.652344 230.792969 363.351562 229.726562 361.503906 L 209.132812 325.828125 C 215.832031 319.0625 220.710938 310.496094 223 300.933594 L 327.578125 300.933594 L 327.578125 319.613281 C 327.578125 321.832031 328.929688 323.828125 330.988281 324.652344 C 331.640625 324.914062 332.328125 325.042969 333.007812 325.042969 C 334.460938 325.042969 335.886719 324.457031 336.929688 323.363281 L 381.898438 276.308594 C 383.902344 274.207031 383.902344 270.902344 381.898438 268.804688 Z M 253.152344 215.832031 C 267.949219 197.378906 276.097656 174.167969 276.097656 150.46875 C 276.097656 92.8125 229.195312 45.90625 171.539062 45.90625 C 113.886719 45.90625 66.980469 92.8125 66.980469 150.46875 C 66.980469 154.644531 67.230469 158.851562 67.722656 162.976562 C 67.910156 164.539062 68.765625 165.945312 70.066406 166.828125 C 71.371094 167.710938 72.996094 167.980469 74.515625 167.578125 L 85.027344 164.757812 L 60.941406 204.375 L 20.269531 182.109375 L 29.859375 179.542969 C 32.554688 178.820312 34.265625 176.167969 33.808594 173.414062 C 32.558594 165.875 31.925781 158.15625 31.925781 150.46875 C 31.925781 73.484375 94.558594 10.855469 171.539062 10.855469 C 248.523438 10.855469 311.152344 73.484375 311.152344 150.46875 C 311.152344 207.613281 276.300781 258.804688 223.742188 279.980469 C 221.71875 267.730469 215.476562 256.886719 206.558594 248.996094 C 224.722656 242.519531 240.984375 231.003906 253.152344 215.832031 Z M 171.542969 191.03125 C 195.613281 191.03125 217.433594 203.65625 229.457031 224.25 C 219.507812 232.039062 207.851562 237.882812 194.972656 241.191406 C 187.90625 237.683594 179.953125 235.703125 171.539062 235.703125 C 160.984375 235.703125 151.148438 238.824219 142.882812 244.171875 L 105.914062 244.171875 C 112.371094 213.480469 139.578125 191.03125 171.542969 191.03125 Z M 11.21875 290.078125 L 11.21875 255.03125 L 130.683594 255.027344 C 123.152344 264.171875 118.621094 275.878906 118.621094 288.625 C 118.621094 289.113281 118.644531 289.59375 118.65625 290.078125 Z M 142.5625 364.484375 L 140.703125 358.953125 C 139.832031 356.359375 137.164062 354.824219 134.484375 355.363281 L 128.765625 356.519531 L 142.457031 332.804688 C 146.882812 335.726562 151.773438 338 156.992188 339.492188 Z M 208.59375 355.363281 C 205.914062 354.824219 203.25 356.359375 202.378906 358.953125 L 200.515625 364.484375 L 186.089844 339.496094 C 191.304688 338 196.195312 335.730469 200.621094 332.804688 L 214.3125 356.519531 Z M 171.539062 330.6875 C 148.34375 330.6875 129.476562 311.816406 129.476562 288.625 C 129.476562 265.429688 148.34375 246.558594 171.539062 246.558594 C 194.734375 246.558594 213.605469 265.429688 213.605469 288.625 C 213.605469 311.816406 194.734375 330.6875 171.539062 330.6875 Z M 338.433594 306.078125 L 338.433594 295.507812 C 338.433594 292.507812 336.003906 290.078125 333.007812 290.078125 L 227.71875 290.078125 C 247.703125 282.042969 265.316406 269.984375 279.742188 255.03125 L 333.007812 255.03125 C 336.003906 255.03125 338.433594 252.601562 338.433594 249.605469 L 338.433594 239.035156 L 370.46875 272.554688 Z M 171.539062 257.105469 C 154.160156 257.105469 140.023438 271.246094 140.023438 288.625 C 140.023438 306.003906 154.160156 320.140625 171.539062 320.140625 C 188.917969 320.140625 203.058594 306.003906 203.058594 288.625 C 203.058594 271.246094 188.917969 257.105469 171.539062 257.105469 Z M 171.539062 309.285156 C 160.148438 309.285156 150.878906 300.015625 150.878906 288.625 C 150.878906 277.230469 160.148438 267.960938 171.539062 267.960938 C 182.933594 267.960938 192.203125 277.230469 192.203125 288.625 C 192.203125 300.015625 182.933594 309.285156 171.539062 309.285156 Z M 171.539062 309.285156 " fill-opacity="1" fill-rule="nonzero"/></g></svg>