<svg xmlns="http://www.w3.org/2000/svg" xmlns:xlink="http://www.w3.org/1999/xlink" width="512" zoomAndPan="magnify" viewBox="0 0 384 383.999986" height="512" preserveAspectRatio="xMidYMid meet" version="1.0"><defs><clipPath id="c1cb272191"><path d="M 43 93 L 384 93 L 384 367.5 L 43 367.5 Z M 43 93 " clip-rule="nonzero"/></clipPath></defs><path fill="#38b6ff" d="M 351.367188 95.644531 L 331.078125 20.492188 C 327.601562 7.628906 314.257812 -0.0351562 301.300781 3.414062 L 19.121094 78.457031 C 12.796875 80.136719 7.53125 84.160156 4.289062 89.777344 C 1.066406 95.355469 0.21875 101.851562 1.90625 108.082031 L 43.21875 261.117188 C 43.949219 263.828125 46.402344 265.613281 49.082031 265.613281 C 49.605469 265.613281 50.136719 265.539062 50.667969 265.394531 C 53.914062 264.523438 55.828125 261.183594 54.949219 257.945312 L 13.636719 104.910156 C 12.808594 101.828125 13.222656 98.609375 14.816406 95.851562 C 16.433594 93.050781 19.070312 91.042969 22.246094 90.199219 L 304.421875 15.15625 C 310.917969 13.4375 317.613281 17.242188 319.347656 23.660156 L 339.636719 98.816406 C 340.511719 102.054688 343.839844 103.972656 347.085938 103.097656 C 350.324219 102.222656 352.242188 98.882812 351.367188 95.644531 Z M 351.367188 95.644531 " fill-opacity="1" fill-rule="nonzero"/><g clip-path="url(#c1cb272191)"><path fill="#38b6ff" d="M 359.605469 93.738281 L 67.90625 93.738281 C 54.507812 93.738281 43.601562 104.660156 43.601562 118.082031 L 43.601562 342.851562 C 43.601562 356.277344 54.507812 367.199219 67.90625 367.199219 L 359.605469 367.199219 C 373.007812 367.199219 383.910156 356.277344 383.910156 342.851562 L 383.910156 118.085938 C 383.910156 104.660156 373.007812 93.738281 359.605469 93.738281 Z M 371.757812 342.851562 C 371.757812 349.574219 366.304688 355.046875 359.605469 355.046875 L 67.90625 355.046875 C 61.210938 355.046875 55.757812 349.574219 55.757812 342.851562 L 55.757812 118.085938 C 55.757812 111.363281 61.210938 105.890625 67.90625 105.890625 L 359.605469 105.890625 C 366.304688 105.890625 371.757812 111.359375 371.757812 118.082031 Z M 371.757812 342.851562 " fill-opacity="1" fill-rule="nonzero"/></g><path fill="#38b6ff" d="M 183.375 215.277344 L 80.066406 215.277344 C 76.710938 215.277344 73.988281 218 73.988281 221.351562 L 73.988281 282.121094 C 73.988281 285.476562 76.710938 288.203125 80.066406 288.203125 L 183.371094 288.203125 C 186.726562 288.203125 189.449219 285.476562 189.449219 282.121094 L 189.449219 221.351562 C 189.449219 218 186.726562 215.277344 183.375 215.277344 Z M 177.296875 276.046875 L 86.140625 276.046875 L 86.140625 227.433594 L 177.296875 227.433594 Z M 177.296875 276.046875 " fill-opacity="1" fill-rule="nonzero"/><path fill="#38b6ff" d="M 201.597656 233.511719 L 353.523438 233.511719 L 353.523438 221.351562 L 201.597656 221.351562 Z M 201.597656 233.511719 " fill-opacity="1" fill-rule="nonzero"/><path fill="#38b6ff" d="M 201.597656 282.121094 L 353.523438 282.121094 L 353.523438 269.96875 L 201.597656 269.96875 Z M 201.597656 282.121094 " fill-opacity="1" fill-rule="nonzero"/><path fill="#38b6ff" d="M 201.597656 257.816406 L 353.523438 257.816406 L 353.523438 245.664062 L 201.597656 245.664062 Z M 201.597656 257.816406 " fill-opacity="1" fill-rule="nonzero"/><path fill="#38b6ff" d="M 80.0625 306.429688 L 353.523438 306.429688 L 353.523438 294.277344 L 80.0625 294.277344 Z M 80.0625 306.429688 " fill-opacity="1" fill-rule="nonzero"/><path fill="#38b6ff" d="M 80.0625 330.738281 L 353.523438 330.738281 L 353.523438 318.585938 L 80.0625 318.585938 Z M 80.0625 330.738281 " fill-opacity="1" fill-rule="nonzero"/><path fill="#38b6ff" d="M 120.207031 137.816406 C 120.105469 137.109375 119.867188 136.488281 119.492188 135.964844 C 119.117188 135.4375 118.5625 135.023438 117.828125 134.707031 C 117.089844 134.394531 116.082031 134.238281 114.8125 134.238281 C 113.660156 134.238281 112.75 134.394531 112.089844 134.707031 C 111.425781 135.023438 110.925781 135.4375 110.589844 135.964844 C 110.253906 136.488281 110.035156 137.109375 109.933594 137.816406 C 109.835938 138.527344 109.78125 139.285156 109.78125 140.089844 L 109.78125 171.203125 L 108.882812 171.203125 L 96.960938 138.886719 C 96.632812 138.011719 96.195312 137.234375 95.648438 136.558594 C 95.148438 135.988281 94.503906 135.457031 93.71875 134.96875 C 92.925781 134.476562 91.910156 134.234375 90.664062 134.234375 L 85.710938 134.234375 C 84.3125 134.234375 83.230469 134.476562 82.46875 134.96875 C 81.703125 135.457031 81.152344 136.109375 80.800781 136.921875 C 80.453125 137.730469 80.242188 138.65625 80.183594 139.695312 C 80.121094 140.730469 80.089844 141.785156 80.089844 142.859375 L 80.089844 180.875 C 80.089844 181.671875 80.140625 182.429688 80.238281 183.136719 C 80.339844 183.851562 80.574219 184.472656 80.953125 185 C 81.324219 185.519531 81.886719 185.941406 82.636719 186.25 C 83.390625 186.5625 84.410156 186.71875 85.710938 186.71875 C 86.859375 186.71875 87.773438 186.5625 88.433594 186.25 C 89.09375 185.941406 89.597656 185.519531 89.933594 185 C 90.269531 184.472656 90.488281 183.851562 90.589844 183.136719 C 90.683594 182.429688 90.734375 181.671875 90.734375 180.875 L 90.734375 149.757812 L 91.636719 149.757812 L 102.957031 180.425781 C 103.132812 180.925781 103.375 181.539062 103.6875 182.261719 C 104 182.988281 104.421875 183.679688 104.949219 184.339844 C 105.472656 185.007812 106.128906 185.570312 106.914062 186.03125 C 107.699219 186.492188 108.683594 186.722656 109.855469 186.722656 L 114.808594 186.722656 C 116.179688 186.722656 117.25 186.480469 118.011719 185.992188 C 118.777344 185.503906 119.324219 184.855469 119.664062 184.046875 C 119.996094 183.234375 120.195312 182.3125 120.257812 181.289062 C 120.320312 180.265625 120.351562 179.199219 120.351562 178.101562 L 120.351562 140.089844 C 120.359375 139.285156 120.304688 138.527344 120.207031 137.816406 Z M 120.207031 137.816406 " fill-opacity="1" fill-rule="nonzero"/><path fill="#38b6ff" d="M 160.476562 160.121094 C 160.371094 159.089844 160.148438 158.0625 159.796875 157.050781 C 159.445312 156.042969 158.921875 155.054688 158.21875 154.105469 C 157.523438 153.160156 156.574219 152.320312 155.375 151.59375 C 154.175781 150.875 152.679688 150.28125 150.890625 149.835938 C 149.101562 149.382812 146.949219 149.15625 144.425781 149.15625 C 143.671875 149.15625 142.78125 149.195312 141.742188 149.269531 C 140.703125 149.347656 139.613281 149.535156 138.460938 149.832031 C 137.308594 150.132812 136.175781 150.589844 135.050781 151.203125 C 133.925781 151.8125 132.914062 152.667969 132.015625 153.769531 C 131.117188 154.867188 130.386719 156.242188 129.820312 157.894531 C 129.257812 159.539062 128.976562 161.554688 128.976562 163.925781 L 128.976562 172.710938 C 128.976562 175.285156 129.402344 177.453125 130.253906 179.230469 C 131.101562 181.003906 132.246094 182.441406 133.683594 183.542969 C 135.121094 184.640625 136.777344 185.441406 138.652344 185.941406 C 140.527344 186.441406 142.5 186.703125 144.574219 186.726562 C 146.148438 186.726562 147.84375 186.59375 149.652344 186.316406 C 151.46875 186.042969 153.144531 185.582031 154.699219 184.929688 C 156.246094 184.28125 157.539062 183.410156 158.558594 182.324219 C 159.585938 181.234375 160.097656 179.882812 160.097656 178.257812 C 160.097656 177.480469 159.960938 176.851562 159.683594 176.367188 C 159.410156 175.878906 159.046875 175.496094 158.597656 175.21875 C 158.148438 174.945312 157.625 174.753906 157.039062 174.652344 C 156.453125 174.558594 155.847656 174.503906 155.222656 174.503906 C 153.921875 174.503906 152.898438 174.621094 152.164062 174.863281 C 151.425781 175.097656 150.859375 175.390625 150.445312 175.738281 C 150.03125 176.09375 149.703125 176.464844 149.449219 176.867188 C 149.203125 177.265625 148.921875 177.644531 148.609375 177.992188 C 148.292969 178.339844 147.871094 178.636719 147.332031 178.871094 C 146.792969 179.109375 146.027344 179.226562 145.027344 179.226562 C 144.152344 179.226562 143.410156 179.050781 142.816406 178.699219 C 142.210938 178.351562 141.730469 177.90625 141.367188 177.351562 C 141.007812 176.800781 140.75 176.199219 140.601562 175.554688 C 140.453125 174.902344 140.375 174.273438 140.375 173.675781 L 140.375 170.078125 L 155.300781 170.078125 C 156.621094 170.078125 157.652344 169.902344 158.371094 169.550781 C 159.09375 169.203125 159.628906 168.785156 159.964844 168.296875 C 160.300781 167.8125 160.5 167.300781 160.546875 166.761719 C 160.59375 166.222656 160.621094 165.75 160.621094 165.351562 L 160.625 165.351562 L 160.625 163.03125 C 160.628906 162.125 160.578125 161.160156 160.476562 160.121094 Z M 140.375 164.453125 L 140.375 161.828125 C 140.375 161.40625 140.410156 160.917969 140.488281 160.367188 C 140.558594 159.820312 140.746094 159.292969 141.050781 158.808594 C 141.351562 158.324219 141.792969 157.917969 142.382812 157.59375 C 142.96875 157.265625 143.777344 157.105469 144.796875 157.105469 C 146.027344 157.105469 146.972656 157.265625 147.632812 157.59375 C 148.292969 157.921875 148.777344 158.398438 149.09375 159.019531 C 149.40625 159.640625 149.59375 160.414062 149.652344 161.328125 C 149.714844 162.234375 149.75 163.277344 149.75 164.457031 L 140.375 164.457031 Z M 140.375 164.453125 " fill-opacity="1" fill-rule="nonzero"/><path fill="#38b6ff" d="M 214.941406 152.792969 C 214.769531 152.121094 214.476562 151.519531 214.082031 150.996094 C 213.683594 150.472656 213.167969 150.046875 212.542969 149.722656 C 211.917969 149.394531 211.15625 149.234375 210.257812 149.234375 C 209.382812 149.234375 208.632812 149.386719 208.011719 149.699219 C 207.382812 150.015625 206.84375 150.425781 206.398438 150.9375 C 205.949219 151.453125 205.566406 152.035156 205.25 152.679688 C 204.9375 153.332031 204.683594 154.011719 204.484375 154.707031 L 200.28125 169.402344 L 199.6875 169.402344 L 195.710938 158.832031 C 194.984375 156.859375 194.152344 155.484375 193.21875 154.730469 C 192.28125 153.964844 191.214844 153.582031 190.011719 153.582031 C 188.8125 153.582031 187.695312 153.964844 186.65625 154.730469 C 185.617188 155.488281 184.785156 156.863281 184.160156 158.835938 L 180.714844 169.40625 L 180.113281 169.40625 L 175.390625 154.707031 C 175.164062 154.011719 174.890625 153.332031 174.566406 152.679688 C 174.238281 152.035156 173.855469 151.457031 173.402344 150.941406 C 172.957031 150.425781 172.449219 150.023438 171.886719 149.703125 C 171.320312 149.394531 170.691406 149.234375 169.992188 149.234375 C 168.992188 149.234375 168.15625 149.386719 167.484375 149.6875 C 166.804688 149.980469 166.261719 150.390625 165.847656 150.898438 C 165.4375 151.417969 165.140625 152.007812 164.949219 152.679688 C 164.761719 153.355469 164.667969 154.058594 164.667969 154.78125 C 164.667969 155.460938 164.761719 156.140625 164.949219 156.824219 C 165.136719 157.511719 165.34375 158.160156 165.566406 158.757812 L 173.96875 180.878906 C 174.519531 182.347656 175.046875 183.480469 175.542969 184.269531 C 176.046875 185.054688 176.535156 185.628906 177.023438 185.988281 C 177.511719 186.355469 177.996094 186.566406 178.484375 186.632812 C 178.972656 186.6875 179.488281 186.71875 180.039062 186.71875 C 180.539062 186.71875 181.019531 186.691406 181.464844 186.632812 C 181.917969 186.5625 182.359375 186.355469 182.800781 185.988281 C 183.234375 185.628906 183.6875 185.054688 184.148438 184.269531 C 184.609375 183.480469 185.113281 182.351562 185.667969 180.878906 L 189.714844 167.382812 L 190.316406 167.382812 L 194.210938 180.878906 C 194.765625 182.347656 195.289062 183.480469 195.789062 184.269531 C 196.289062 185.054688 196.78125 185.628906 197.269531 185.988281 C 197.753906 186.355469 198.242188 186.566406 198.730469 186.632812 C 199.21875 186.6875 199.734375 186.71875 200.285156 186.71875 C 200.785156 186.71875 201.265625 186.691406 201.710938 186.632812 C 202.160156 186.5625 202.613281 186.355469 203.058594 185.988281 C 203.511719 185.628906 203.96875 185.054688 204.429688 184.269531 C 204.894531 183.480469 205.410156 182.351562 205.984375 180.878906 L 214.308594 158.757812 C 214.53125 158.105469 214.738281 157.457031 214.925781 156.824219 C 215.113281 156.1875 215.207031 155.53125 215.207031 154.859375 C 215.207031 154.160156 215.117188 153.472656 214.941406 152.792969 Z M 214.941406 152.792969 " fill-opacity="1" fill-rule="nonzero"/><path fill="#38b6ff" d="M 246.449219 171.484375 C 245.785156 170.269531 244.929688 169.203125 243.882812 168.277344 C 242.835938 167.351562 241.667969 166.550781 240.394531 165.859375 C 239.121094 165.167969 237.871094 164.53125 236.648438 163.925781 C 235.84375 163.550781 235.074219 163.179688 234.339844 162.804688 C 233.601562 162.429688 232.953125 162.046875 232.390625 161.65625 C 231.828125 161.269531 231.386719 160.871094 231.058594 160.445312 C 230.738281 160.019531 230.574219 159.554688 230.574219 159.054688 C 230.574219 158.507812 230.675781 158.058594 230.859375 157.707031 C 231.046875 157.359375 231.292969 157.074219 231.605469 156.867188 C 231.925781 156.65625 232.273438 156.507812 232.660156 156.414062 C 233.050781 156.328125 233.453125 156.285156 233.875 156.285156 C 234.898438 156.285156 235.769531 156.535156 236.480469 157.03125 C 237.191406 157.535156 237.570312 158.261719 237.621094 159.210938 C 237.621094 159.558594 237.71875 159.921875 237.90625 160.296875 C 238.097656 160.671875 238.367188 161.007812 238.714844 161.304688 C 239.066406 161.609375 239.484375 161.855469 239.96875 162.058594 C 240.457031 162.261719 241 162.355469 241.601562 162.355469 C 242.300781 162.335938 242.972656 162.265625 243.625 162.152344 C 244.273438 162.039062 244.855469 161.84375 245.367188 161.558594 C 245.882812 161.265625 246.289062 160.878906 246.601562 160.390625 C 246.914062 159.90625 247.074219 159.289062 247.074219 158.535156 C 247.074219 158.089844 247.042969 157.542969 246.980469 156.890625 C 246.921875 156.242188 246.753906 155.558594 246.488281 154.847656 C 246.230469 154.132812 245.828125 153.429688 245.289062 152.730469 C 244.75 152.03125 244.015625 151.398438 243.078125 150.835938 C 242.144531 150.273438 240.964844 149.8125 239.554688 149.464844 C 238.140625 149.117188 236.421875 148.945312 234.402344 148.945312 L 233.800781 148.945312 C 231.550781 148.988281 229.546875 149.191406 227.785156 149.542969 C 226.027344 149.890625 224.527344 150.46875 223.304688 151.28125 C 222.078125 152.09375 221.148438 153.15625 220.515625 154.472656 C 219.875 155.78125 219.554688 157.410156 219.554688 159.363281 C 219.554688 160.6875 219.84375 161.867188 220.417969 162.90625 C 220.992188 163.945312 221.742188 164.875 222.667969 165.699219 C 223.59375 166.519531 224.621094 167.273438 225.761719 167.945312 C 226.898438 168.621094 228.03125 169.257812 229.15625 169.859375 C 230.054688 170.359375 230.933594 170.851562 231.796875 171.335938 C 232.660156 171.824219 233.429688 172.332031 234.105469 172.859375 C 234.78125 173.382812 235.320312 173.953125 235.730469 174.5625 C 236.144531 175.179688 236.355469 175.832031 236.355469 176.53125 C 236.355469 177.351562 236.046875 178.023438 235.433594 178.535156 C 234.824219 179.046875 234.027344 179.304688 233.054688 179.304688 C 232.582031 179.304688 232.09375 179.277344 231.589844 179.210938 C 231.09375 179.152344 230.636719 179.023438 230.226562 178.839844 C 229.8125 178.648438 229.472656 178.40625 229.210938 178.105469 C 228.949219 177.804688 228.804688 177.40625 228.78125 176.902344 C 228.730469 175.40625 228.304688 174.320312 227.503906 173.644531 C 226.703125 172.96875 225.679688 172.628906 224.429688 172.628906 C 222.707031 172.628906 221.421875 172.980469 220.585938 173.679688 C 219.75 174.382812 219.332031 175.480469 219.332031 176.984375 C 219.332031 177.605469 219.402344 178.285156 219.554688 179.023438 C 219.707031 179.761719 219.96875 180.507812 220.339844 181.25 C 220.714844 182.003906 221.238281 182.726562 221.898438 183.410156 C 222.5625 184.09375 223.40625 184.707031 224.429688 185.246094 C 225.453125 185.785156 226.679688 186.214844 228.105469 186.542969 C 229.523438 186.863281 231.199219 187.027344 233.125 187.027344 C 234.101562 187.027344 235.136719 186.957031 236.238281 186.820312 C 237.332031 186.679688 238.414062 186.449219 239.480469 186.128906 C 240.542969 185.800781 241.550781 185.363281 242.511719 184.8125 C 243.472656 184.261719 244.320312 183.566406 245.046875 182.734375 C 245.769531 181.894531 246.347656 180.898438 246.785156 179.75 C 247.230469 178.605469 247.445312 177.273438 247.445312 175.773438 C 247.445312 174.128906 247.113281 172.699219 246.449219 171.484375 Z M 246.449219 171.484375 " fill-opacity="1" fill-rule="nonzero"/></svg>