<svg xmlns="http://www.w3.org/2000/svg" xmlns:xlink="http://www.w3.org/1999/xlink" width="512" zoomAndPan="magnify" viewBox="0 0 384 383.999986" height="512" preserveAspectRatio="xMidYMid meet" version="1.0"><defs><clipPath id="714b5c74cc"><path d="M 0 37 L 233 37 L 233 383.996094 L 0 383.996094 Z M 0 37 " clip-rule="nonzero"/></clipPath><clipPath id="1ba27efe0c"><path d="M 151 0 L 383.996094 0 L 383.996094 347 L 151 347 Z M 151 0 " clip-rule="nonzero"/></clipPath></defs><g clip-path="url(#714b5c74cc)"><path fill="#38b6ff" d="M 216.714844 354.535156 C 188.210938 358.847656 158.96875 355.589844 132.109375 345.121094 C 26.398438 303.898438 -7.964844 167.476562 70.417969 81.398438 L 71.738281 102.109375 C 72.109375 108.0625 76.226562 112.917969 81.667969 114.484375 C 90.808594 117.15625 99.902344 109.925781 99.289062 100.34375 L 96.128906 50.515625 C 95.636719 42.917969 89.09375 37.132812 81.46875 37.621094 L 31.640625 40.785156 C 24.042969 41.273438 18.261719 47.84375 18.75 55.441406 C 19.214844 63.0625 25.785156 68.824219 33.40625 68.359375 L 45.808594 67.550781 C -44.511719 173.554688 5.195312 337.648438 138.234375 376.324219 C 164.976562 384.09375 193.210938 386.03125 220.859375 381.839844 C 228.382812 380.710938 233.578125 373.675781 232.425781 366.128906 C 231.300781 358.578125 224.265625 353.40625 216.714844 354.535156 " fill-opacity="1" fill-rule="nonzero"/></g><g clip-path="url(#1ba27efe0c)"><path fill="#38b6ff" d="M 350.757812 315.882812 L 337.988281 316.691406 C 424.289062 215.734375 383.699219 60.6875 261.910156 13.1875 C 230.5625 0.957031 196.421875 -2.84375 163.160156 2.179688 C 155.613281 3.332031 150.417969 10.367188 151.570312 17.890625 C 152.695312 25.441406 159.730469 30.636719 167.28125 29.484375 C 195.785156 25.195312 225.023438 28.457031 251.886719 38.921875 C 357.820312 80.21875 391.738281 216.59375 313.699219 302.476562 L 312.402344 282.109375 C 311.9375 274.507812 305.367188 268.726562 297.746094 269.214844 C 290.148438 269.707031 284.363281 276.25 284.851562 283.871094 L 288.015625 333.699219 C 288.503906 341.324219 295.074219 347.082031 302.671875 346.59375 L 352.5 343.429688 C 360.121094 342.941406 365.882812 336.398438 365.417969 328.773438 C 364.925781 321.152344 358.359375 315.390625 350.757812 315.882812 " fill-opacity="1" fill-rule="nonzero"/></g><path fill="#38b6ff" d="M 96.570312 267.179688 C 95.050781 266.765625 94.140625 265.195312 94.558594 263.675781 L 95.171875 261.398438 L 85.34375 255.710938 C 84.679688 255.34375 84.191406 254.707031 83.996094 253.96875 C 83.800781 253.234375 83.898438 252.449219 84.289062 251.8125 L 109.386719 208.332031 L 136.765625 106.101562 C 137.179688 104.582031 138.75 103.675781 140.269531 104.09375 L 165.660156 110.882812 L 172.597656 98.847656 L 128.015625 86.886719 L 77.351562 275.929688 L 157.574219 297.425781 L 112.621094 271.46875 L 96.570312 267.179688 " fill-opacity="1" fill-rule="nonzero"/><path fill="#38b6ff" d="M 154.609375 113.847656 L 141.542969 110.34375 L 138.0625 123.382812 C 145 124.019531 151.667969 120.171875 154.609375 113.847656 " fill-opacity="1" fill-rule="nonzero"/><path fill="#38b6ff" d="M 136.570312 128.96875 L 120.417969 189.214844 L 162.695312 116.003906 L 160.171875 115.34375 C 156.347656 124.679688 146.59375 130.320312 136.570312 128.96875 " fill-opacity="1" fill-rule="nonzero"/><path fill="#38b6ff" d="M 121.984375 258.0625 L 107.597656 249.753906 C 106.226562 248.945312 105.761719 247.207031 106.542969 245.832031 L 107.71875 243.800781 L 99.707031 235.761719 C 98.578125 234.65625 98.578125 232.84375 99.707031 231.714844 L 135.171875 196.25 L 188.113281 104.582031 C 188.898438 103.210938 190.636719 102.746094 192.011719 103.53125 L 214.753906 116.667969 L 224.582031 106.839844 L 184.609375 83.75 L 86.765625 253.234375 L 158.675781 294.753906 L 121.984375 258.0625 " fill-opacity="1" fill-rule="nonzero"/><path fill="#38b6ff" d="M 203.308594 116.667969 L 191.617188 109.902344 L 184.878906 121.59375 C 191.421875 123.996094 198.847656 122.011719 203.308594 116.667969 " fill-opacity="1" fill-rule="nonzero"/><path fill="#38b6ff" d="M 210.5625 120.859375 L 208.332031 119.558594 C 202.179688 127.597656 191.324219 130.515625 181.984375 126.617188 L 150.808594 180.613281 L 210.5625 120.859375 " fill-opacity="1" fill-rule="nonzero"/><path fill="#38b6ff" d="M 168.429688 260.808594 C 164.976562 260.808594 161.667969 261.863281 158.898438 263.824219 L 168.261719 273.1875 L 177.769531 263.675781 C 175.050781 261.8125 171.8125 260.808594 168.429688 260.808594 " fill-opacity="1" fill-rule="nonzero"/><path fill="#38b6ff" d="M 216.445312 185.5625 C 209.679688 178.773438 198.675781 178.773438 191.910156 185.5625 C 185.148438 192.328125 185.148438 203.332031 191.910156 210.097656 C 198.675781 216.863281 209.679688 216.863281 216.445312 210.097656 C 223.210938 203.332031 223.210938 192.328125 216.445312 185.5625 " fill-opacity="1" fill-rule="nonzero"/><path fill="#38b6ff" d="M 101.714844 233.75 L 168.261719 300.269531 L 306.640625 161.886719 L 240.097656 95.367188 Z M 285.613281 163.921875 L 170.269531 279.265625 C 169.167969 280.367188 167.351562 280.367188 166.226562 279.265625 L 122.746094 235.761719 C 121.617188 234.65625 121.617188 232.84375 122.746094 231.714844 L 238.089844 116.371094 C 239.191406 115.269531 241.003906 115.269531 242.132812 116.371094 L 285.613281 159.878906 C 286.738281 160.980469 286.738281 162.792969 285.613281 163.921875 " fill-opacity="1" fill-rule="nonzero"/><path fill="#38b6ff" d="M 279.558594 161.886719 L 270.195312 152.523438 C 266.226562 158.160156 266.175781 165.734375 270.050781 171.421875 L 279.558594 161.886719 " fill-opacity="1" fill-rule="nonzero"/><path fill="#38b6ff" d="M 128.800781 233.75 L 138.359375 243.285156 C 142.351562 237.597656 142.351562 229.902344 138.359375 224.191406 L 128.800781 233.75 " fill-opacity="1" fill-rule="nonzero"/><path fill="#38b6ff" d="M 249.65625 131.984375 L 240.097656 122.449219 L 230.5625 131.984375 C 236.25 136.003906 243.945312 136.003906 249.65625 131.984375 " fill-opacity="1" fill-rule="nonzero"/><path fill="#38b6ff" d="M 253.726562 136.078125 C 245.734375 142.253906 234.460938 142.253906 226.46875 136.078125 L 142.425781 220.121094 C 148.601562 228.113281 148.601562 239.386719 142.425781 247.378906 L 154.804688 259.753906 C 158.699219 256.738281 163.429688 255.097656 168.429688 255.097656 C 173.359375 255.097656 178.015625 256.667969 181.863281 259.582031 L 265.957031 175.515625 C 259.925781 167.523438 259.976562 156.371094 266.101562 148.457031 Z M 220.488281 214.140625 C 211.496094 223.136719 196.863281 223.136719 187.867188 214.140625 C 178.871094 205.148438 178.871094 190.515625 187.867188 181.519531 C 196.863281 172.523438 211.496094 172.523438 220.488281 181.519531 C 229.484375 190.515625 229.484375 205.148438 220.488281 214.140625 " fill-opacity="1" fill-rule="nonzero"/></svg>