<svg xmlns="http://www.w3.org/2000/svg" xmlns:xlink="http://www.w3.org/1999/xlink" width="768" zoomAndPan="magnify" viewBox="0 0 576 503.999982" height="672" preserveAspectRatio="xMidYMid meet" version="1.0"><path fill="#000000" d="M 421.066406 188.007812 C 421.585938 188.007812 422.097656 187.957031 422.601562 187.855469 C 423.109375 187.753906 423.601562 187.605469 424.078125 187.410156 C 424.558594 187.210938 425.011719 186.96875 425.441406 186.679688 C 425.871094 186.394531 426.265625 186.066406 426.632812 185.703125 C 426.996094 185.335938 427.324219 184.9375 427.609375 184.507812 C 427.898438 184.078125 428.140625 183.625 428.339844 183.144531 C 428.535156 182.667969 428.683594 182.175781 428.785156 181.667969 C 428.886719 181.160156 428.9375 180.648438 428.9375 180.132812 L 428.9375 7.875 C 428.9375 7.359375 428.886719 6.847656 428.785156 6.339844 C 428.683594 5.832031 428.535156 5.339844 428.339844 4.863281 C 428.140625 4.382812 427.898438 3.929688 427.609375 3.5 C 427.324219 3.070312 426.996094 2.671875 426.632812 2.304688 C 426.265625 1.941406 425.871094 1.613281 425.441406 1.328125 C 425.011719 1.039062 424.558594 0.796875 424.078125 0.597656 C 423.601562 0.402344 423.109375 0.253906 422.601562 0.152344 C 422.097656 0.0507812 421.585938 0 421.066406 0 L 154.570312 0 C 154.054688 0 153.542969 0.0507812 153.035156 0.152344 C 152.53125 0.253906 152.039062 0.402344 151.558594 0.597656 C 151.082031 0.796875 150.628906 1.039062 150.199219 1.328125 C 149.769531 1.613281 149.371094 1.941406 149.007812 2.304688 C 148.640625 2.671875 148.316406 3.070312 148.027344 3.5 C 147.742188 3.929688 147.5 4.382812 147.300781 4.863281 C 147.105469 5.339844 146.953125 5.832031 146.855469 6.339844 C 146.753906 6.847656 146.703125 7.359375 146.703125 7.875 L 146.703125 180.132812 C 146.703125 180.648438 146.753906 181.160156 146.855469 181.667969 C 146.953125 182.175781 147.105469 182.667969 147.300781 183.144531 C 147.5 183.625 147.742188 184.078125 148.027344 184.507812 C 148.316406 184.9375 148.640625 185.335938 149.007812 185.703125 C 149.371094 186.066406 149.769531 186.394531 150.199219 186.679688 C 150.628906 186.96875 151.082031 187.210938 151.558594 187.410156 C 152.039062 187.605469 152.53125 187.753906 153.035156 187.855469 C 153.542969 187.957031 154.054688 188.007812 154.570312 188.007812 Z M 162.441406 15.75 L 413.199219 15.75 L 413.199219 172.257812 L 162.441406 172.257812 Z M 388.539062 59.074219 C 387.929688 59.074219 387.320312 59.042969 386.714844 58.984375 C 386.105469 58.921875 385.503906 58.832031 384.90625 58.710938 C 384.308594 58.59375 383.714844 58.445312 383.132812 58.265625 C 382.546875 58.089844 381.976562 57.882812 381.410156 57.648438 C 380.847656 57.414062 380.296875 57.15625 379.757812 56.867188 C 379.222656 56.578125 378.699219 56.265625 378.191406 55.925781 C 377.683594 55.585938 377.195312 55.222656 376.722656 54.835938 C 376.25 54.449219 375.800781 54.039062 375.367188 53.605469 C 374.9375 53.175781 374.527344 52.722656 374.140625 52.25 C 373.753906 51.777344 373.390625 51.289062 373.050781 50.78125 C 372.710938 50.273438 372.398438 49.75 372.109375 49.214844 C 371.824219 48.675781 371.5625 48.125 371.328125 47.558594 C 371.09375 46.996094 370.886719 46.421875 370.710938 45.835938 C 370.535156 45.253906 370.386719 44.660156 370.265625 44.0625 C 370.144531 43.464844 370.054688 42.859375 369.996094 42.253906 C 369.933594 41.644531 369.90625 41.035156 369.902344 40.425781 C 369.902344 39.910156 369.851562 39.398438 369.753906 38.890625 C 369.652344 38.382812 369.503906 37.890625 369.304688 37.414062 C 369.105469 36.933594 368.863281 36.480469 368.578125 36.050781 C 368.289062 35.621094 367.964844 35.222656 367.597656 34.859375 C 367.234375 34.492188 366.835938 34.164062 366.40625 33.878906 C 365.976562 33.589844 365.523438 33.347656 365.046875 33.152344 C 364.566406 32.953125 364.078125 32.804688 363.570312 32.703125 C 363.0625 32.601562 362.550781 32.550781 362.035156 32.550781 L 213.605469 32.550781 C 213.089844 32.550781 212.578125 32.601562 212.070312 32.703125 C 211.5625 32.804688 211.070312 32.953125 210.59375 33.152344 C 210.117188 33.347656 209.664062 33.589844 209.234375 33.878906 C 208.804688 34.164062 208.40625 34.492188 208.039062 34.859375 C 207.675781 35.222656 207.347656 35.621094 207.0625 36.050781 C 206.773438 36.480469 206.53125 36.933594 206.335938 37.414062 C 206.136719 37.890625 205.988281 38.382812 205.886719 38.890625 C 205.785156 39.398438 205.734375 39.910156 205.734375 40.425781 C 205.734375 41.035156 205.703125 41.644531 205.644531 42.253906 C 205.582031 42.859375 205.492188 43.464844 205.375 44.0625 C 205.253906 44.660156 205.105469 45.253906 204.929688 45.835938 C 204.75 46.421875 204.546875 46.996094 204.3125 47.558594 C 204.078125 48.125 203.816406 48.675781 203.527344 49.214844 C 203.242188 49.75 202.925781 50.273438 202.589844 50.78125 C 202.25 51.289062 201.886719 51.78125 201.5 52.25 C 201.113281 52.722656 200.703125 53.175781 200.269531 53.605469 C 199.839844 54.039062 199.386719 54.449219 198.917969 54.835938 C 198.445312 55.222656 197.957031 55.585938 197.449219 55.925781 C 196.941406 56.265625 196.417969 56.578125 195.878906 56.867188 C 195.34375 57.15625 194.792969 57.414062 194.226562 57.648438 C 193.664062 57.882812 193.089844 58.089844 192.507812 58.265625 C 191.921875 58.445312 191.332031 58.59375 190.734375 58.710938 C 190.136719 58.832031 189.53125 58.921875 188.925781 58.984375 C 188.316406 59.042969 187.710938 59.074219 187.097656 59.074219 C 186.582031 59.074219 186.070312 59.125 185.5625 59.226562 C 185.058594 59.328125 184.566406 59.476562 184.089844 59.671875 C 183.609375 59.871094 183.15625 60.113281 182.726562 60.402344 C 182.296875 60.6875 181.898438 61.015625 181.535156 61.378906 C 181.167969 61.746094 180.84375 62.144531 180.554688 62.574219 C 180.269531 63.003906 180.027344 63.457031 179.828125 63.9375 C 179.632812 64.414062 179.480469 64.90625 179.382812 65.414062 C 179.28125 65.921875 179.230469 66.433594 179.230469 66.949219 L 179.230469 121.058594 C 179.230469 121.574219 179.28125 122.085938 179.382812 122.59375 C 179.480469 123.101562 179.632812 123.59375 179.828125 124.070312 C 180.027344 124.550781 180.269531 125.003906 180.554688 125.433594 C 180.84375 125.863281 181.167969 126.261719 181.535156 126.625 C 181.898438 126.992188 182.296875 127.320312 182.726562 127.605469 C 183.15625 127.894531 183.609375 128.136719 184.085938 128.332031 C 184.566406 128.53125 185.058594 128.679688 185.5625 128.78125 C 186.070312 128.882812 186.582031 128.933594 187.097656 128.933594 C 187.710938 128.933594 188.316406 128.964844 188.925781 129.023438 C 189.53125 129.085938 190.136719 129.175781 190.734375 129.296875 C 191.332031 129.414062 191.921875 129.5625 192.507812 129.742188 C 193.089844 129.917969 193.664062 130.125 194.226562 130.359375 C 194.792969 130.59375 195.34375 130.851562 195.878906 131.140625 C 196.417969 131.429688 196.941406 131.742188 197.449219 132.082031 C 197.953125 132.421875 198.445312 132.785156 198.917969 133.171875 C 199.386719 133.558594 199.839844 133.96875 200.269531 134.402344 C 200.703125 134.832031 201.113281 135.285156 201.5 135.757812 C 201.886719 136.230469 202.25 136.71875 202.589844 137.226562 C 202.925781 137.734375 203.242188 138.257812 203.527344 138.792969 C 203.816406 139.332031 204.078125 139.882812 204.3125 140.449219 C 204.542969 141.011719 204.75 141.585938 204.929688 142.171875 C 205.105469 142.753906 205.253906 143.347656 205.375 143.945312 C 205.492188 144.542969 205.582031 145.148438 205.644531 145.753906 C 205.703125 146.363281 205.734375 146.972656 205.734375 147.582031 C 205.734375 148.097656 205.785156 148.609375 205.886719 149.117188 C 205.988281 149.625 206.136719 150.117188 206.335938 150.59375 C 206.53125 151.074219 206.773438 151.527344 207.0625 151.957031 C 207.347656 152.386719 207.675781 152.785156 208.039062 153.148438 C 208.40625 153.515625 208.804688 153.84375 209.234375 154.128906 C 209.664062 154.417969 210.117188 154.660156 210.59375 154.855469 C 211.070312 155.054688 211.5625 155.203125 212.070312 155.304688 C 212.578125 155.40625 213.089844 155.457031 213.605469 155.457031 L 362.035156 155.457031 C 362.550781 155.457031 363.0625 155.40625 363.570312 155.304688 C 364.078125 155.203125 364.566406 155.054688 365.046875 154.855469 C 365.523438 154.660156 365.976562 154.417969 366.40625 154.128906 C 366.835938 153.84375 367.234375 153.515625 367.597656 153.148438 C 367.964844 152.785156 368.289062 152.386719 368.578125 151.957031 C 368.863281 151.527344 369.105469 151.074219 369.304688 150.59375 C 369.503906 150.117188 369.652344 149.625 369.753906 149.117188 C 369.851562 148.609375 369.902344 148.097656 369.902344 147.582031 C 369.90625 146.972656 369.933594 146.363281 369.996094 145.753906 C 370.054688 145.148438 370.144531 144.542969 370.265625 143.945312 C 370.386719 143.347656 370.535156 142.753906 370.710938 142.171875 C 370.890625 141.585938 371.09375 141.011719 371.328125 140.449219 C 371.5625 139.882812 371.824219 139.332031 372.109375 138.796875 C 372.398438 138.257812 372.710938 137.734375 373.050781 137.226562 C 373.390625 136.71875 373.753906 136.230469 374.140625 135.757812 C 374.527344 135.285156 374.9375 134.832031 375.367188 134.402344 C 375.800781 133.96875 376.25 133.558594 376.722656 133.171875 C 377.195312 132.785156 377.683594 132.421875 378.191406 132.082031 C 378.699219 131.742188 379.222656 131.429688 379.757812 131.140625 C 380.296875 130.855469 380.847656 130.59375 381.410156 130.359375 C 381.976562 130.125 382.546875 129.917969 383.132812 129.742188 C 383.714844 129.5625 384.308594 129.414062 384.90625 129.296875 C 385.503906 129.175781 386.105469 129.085938 386.714844 129.023438 C 387.320312 128.964844 387.929688 128.933594 388.539062 128.933594 C 389.054688 128.933594 389.566406 128.882812 390.074219 128.78125 C 390.582031 128.679688 391.074219 128.53125 391.550781 128.332031 C 392.027344 128.136719 392.480469 127.894531 392.910156 127.605469 C 393.339844 127.320312 393.738281 126.992188 394.105469 126.625 C 394.46875 126.261719 394.796875 125.863281 395.082031 125.433594 C 395.371094 125.003906 395.613281 124.550781 395.808594 124.070312 C 396.007812 123.59375 396.15625 123.101562 396.257812 122.59375 C 396.359375 122.085938 396.410156 121.574219 396.410156 121.058594 L 396.410156 66.949219 C 396.410156 66.433594 396.359375 65.921875 396.257812 65.414062 C 396.15625 64.90625 396.007812 64.414062 395.808594 63.9375 C 395.613281 63.457031 395.371094 63.003906 395.082031 62.574219 C 394.796875 62.144531 394.46875 61.746094 394.105469 61.378906 C 393.738281 61.015625 393.339844 60.6875 392.910156 60.402344 C 392.480469 60.113281 392.027344 59.871094 391.550781 59.671875 C 391.074219 59.476562 390.582031 59.328125 390.074219 59.226562 C 389.566406 59.125 389.054688 59.074219 388.539062 59.074219 Z M 380.671875 114.09375 C 379.121094 114.460938 377.609375 114.933594 376.125 115.511719 C 374.644531 116.085938 373.207031 116.761719 371.820312 117.539062 C 370.433594 118.316406 369.101562 119.183594 367.835938 120.144531 C 366.566406 121.101562 365.371094 122.144531 364.246094 123.269531 C 363.121094 124.394531 362.078125 125.59375 361.121094 126.863281 C 360.160156 128.132812 359.292969 129.460938 358.519531 130.851562 C 357.742188 132.238281 357.066406 133.675781 356.488281 135.160156 C 355.914062 136.640625 355.441406 138.15625 355.074219 139.707031 L 220.566406 139.707031 C 220.199219 138.15625 219.726562 136.640625 219.148438 135.160156 C 218.574219 133.675781 217.894531 132.238281 217.121094 130.851562 C 216.347656 129.460938 215.480469 128.132812 214.519531 126.863281 C 213.5625 125.59375 212.519531 124.394531 211.394531 123.269531 C 210.269531 122.144531 209.074219 121.101562 207.804688 120.140625 C 206.535156 119.183594 205.207031 118.316406 203.820312 117.539062 C 202.429688 116.761719 200.996094 116.085938 199.511719 115.511719 C 198.03125 114.933594 196.515625 114.460938 194.96875 114.09375 L 194.96875 73.914062 C 196.515625 73.546875 198.03125 73.074219 199.511719 72.496094 C 200.996094 71.921875 202.429688 71.246094 203.820312 70.46875 C 205.207031 69.691406 206.535156 68.824219 207.804688 67.863281 C 209.074219 66.90625 210.269531 65.863281 211.394531 64.738281 C 212.519531 63.613281 213.5625 62.414062 214.519531 61.144531 C 215.480469 59.875 216.347656 58.546875 217.121094 57.15625 C 217.894531 55.769531 218.574219 54.332031 219.148438 52.847656 C 219.726562 51.367188 220.199219 49.851562 220.566406 48.300781 L 355.074219 48.300781 C 355.441406 49.851562 355.914062 51.367188 356.488281 52.847656 C 357.066406 54.332031 357.742188 55.769531 358.519531 57.15625 C 359.292969 58.546875 360.160156 59.875 361.121094 61.144531 C 362.078125 62.414062 363.121094 63.613281 364.246094 64.738281 C 365.371094 65.863281 366.566406 66.90625 367.835938 67.863281 C 369.101562 68.824219 370.433594 69.691406 371.820312 70.46875 C 373.207031 71.242188 374.644531 71.921875 376.125 72.496094 C 377.609375 73.074219 379.121094 73.546875 380.671875 73.914062 Z M 287.820312 65.703125 C 286.894531 65.703125 285.96875 65.75 285.046875 65.839844 C 284.125 65.929688 283.210938 66.066406 282.304688 66.246094 C 281.394531 66.429688 280.496094 66.652344 279.609375 66.921875 C 278.726562 67.191406 277.855469 67.503906 276.996094 67.859375 C 276.140625 68.210938 275.304688 68.609375 274.488281 69.046875 C 273.671875 69.480469 272.878906 69.957031 272.109375 70.472656 C 271.339844 70.988281 270.597656 71.539062 269.878906 72.128906 C 269.164062 72.714844 268.476562 73.335938 267.824219 73.992188 C 267.167969 74.648438 266.546875 75.332031 265.960938 76.050781 C 265.371094 76.765625 264.820312 77.511719 264.304688 78.28125 C 263.792969 79.050781 263.316406 79.84375 262.878906 80.664062 C 262.441406 81.480469 262.046875 82.316406 261.691406 83.171875 C 261.339844 84.03125 261.027344 84.902344 260.757812 85.789062 C 260.488281 86.675781 260.265625 87.574219 260.082031 88.480469 C 259.902344 89.390625 259.765625 90.304688 259.675781 91.230469 C 259.585938 92.152344 259.539062 93.074219 259.539062 94.003906 C 259.539062 94.929688 259.585938 95.855469 259.675781 96.777344 C 259.765625 97.699219 259.902344 98.613281 260.082031 99.523438 C 260.265625 100.433594 260.488281 101.332031 260.757812 102.21875 C 261.027344 103.105469 261.335938 103.976562 261.691406 104.832031 C 262.046875 105.6875 262.441406 106.523438 262.878906 107.34375 C 263.316406 108.160156 263.789062 108.953125 264.304688 109.726562 C 264.820312 110.496094 265.371094 111.238281 265.957031 111.957031 C 266.546875 112.671875 267.167969 113.359375 267.820312 114.011719 C 268.476562 114.667969 269.160156 115.289062 269.878906 115.878906 C 270.59375 116.464844 271.335938 117.019531 272.105469 117.53125 C 272.875 118.046875 273.671875 118.523438 274.488281 118.960938 C 275.304688 119.398438 276.140625 119.792969 276.996094 120.148438 C 277.851562 120.503906 278.722656 120.816406 279.609375 121.085938 C 280.496094 121.351562 281.390625 121.578125 282.300781 121.757812 C 283.207031 121.941406 284.125 122.078125 285.046875 122.167969 C 285.96875 122.257812 286.890625 122.304688 287.816406 122.304688 C 288.742188 122.304688 289.667969 122.257812 290.589844 122.167969 C 291.511719 122.078125 292.425781 121.941406 293.335938 121.761719 C 294.242188 121.578125 295.140625 121.355469 296.027344 121.085938 C 296.914062 120.816406 297.785156 120.503906 298.640625 120.152344 C 299.496094 119.796875 300.332031 119.398438 301.148438 118.964844 C 301.964844 118.527344 302.757812 118.050781 303.527344 117.535156 C 304.300781 117.019531 305.042969 116.46875 305.757812 115.882812 C 306.472656 115.292969 307.160156 114.671875 307.816406 114.015625 C 308.46875 113.363281 309.089844 112.675781 309.679688 111.960938 C 310.265625 111.242188 310.816406 110.5 311.332031 109.730469 C 311.847656 108.957031 312.324219 108.164062 312.757812 107.347656 C 313.195312 106.53125 313.589844 105.691406 313.945312 104.835938 C 314.300781 103.980469 314.613281 103.109375 314.882812 102.222656 C 315.148438 101.335938 315.375 100.4375 315.554688 99.527344 C 315.738281 98.621094 315.871094 97.703125 315.964844 96.78125 C 316.054688 95.859375 316.101562 94.933594 316.101562 94.007812 C 316.097656 93.082031 316.054688 92.15625 315.960938 91.234375 C 315.871094 90.3125 315.734375 89.398438 315.550781 88.488281 C 315.371094 87.578125 315.144531 86.683594 314.875 85.796875 C 314.605469 84.910156 314.292969 84.039062 313.941406 83.183594 C 313.585938 82.324219 313.1875 81.488281 312.753906 80.671875 C 312.316406 79.855469 311.839844 79.0625 311.324219 78.292969 C 310.8125 77.519531 310.257812 76.777344 309.671875 76.0625 C 309.085938 75.34375 308.464844 74.660156 307.808594 74.003906 C 307.152344 73.347656 306.46875 72.726562 305.753906 72.140625 C 305.039062 71.550781 304.292969 71 303.523438 70.484375 C 302.753906 69.96875 301.960938 69.492188 301.144531 69.054688 C 300.328125 68.617188 299.492188 68.222656 298.636719 67.867188 C 297.78125 67.511719 296.914062 67.199219 296.027344 66.929688 C 295.140625 66.660156 294.242188 66.433594 293.335938 66.253906 C 292.425781 66.070312 291.511719 65.933594 290.589844 65.84375 C 289.667969 65.75 288.746094 65.707031 287.820312 65.703125 Z M 287.820312 106.554688 C 286.996094 106.554688 286.179688 106.476562 285.375 106.316406 C 284.566406 106.152344 283.78125 105.914062 283.019531 105.601562 C 282.261719 105.285156 281.535156 104.898438 280.851562 104.441406 C 280.167969 103.984375 279.535156 103.460938 278.953125 102.878906 C 278.371094 102.296875 277.851562 101.664062 277.390625 100.976562 C 276.933594 100.292969 276.546875 99.570312 276.234375 98.808594 C 275.917969 98.046875 275.679688 97.261719 275.519531 96.453125 C 275.359375 95.644531 275.277344 94.828125 275.277344 94.003906 C 275.277344 93.179688 275.359375 92.363281 275.519531 91.558594 C 275.679688 90.75 275.917969 89.964844 276.234375 89.203125 C 276.550781 88.441406 276.933594 87.71875 277.394531 87.03125 C 277.851562 86.347656 278.371094 85.714844 278.953125 85.132812 C 279.535156 84.546875 280.167969 84.027344 280.851562 83.570312 C 281.539062 83.113281 282.261719 82.726562 283.023438 82.410156 C 283.78125 82.09375 284.566406 81.859375 285.375 81.695312 C 286.183594 81.535156 286.996094 81.457031 287.820312 81.457031 C 288.644531 81.457031 289.460938 81.535156 290.269531 81.699219 C 291.074219 81.859375 291.859375 82.097656 292.621094 82.410156 C 293.382812 82.726562 294.105469 83.113281 294.789062 83.570312 C 295.472656 84.03125 296.105469 84.550781 296.6875 85.132812 C 297.269531 85.714844 297.792969 86.351562 298.25 87.035156 C 298.707031 87.71875 299.09375 88.445312 299.40625 89.203125 C 299.722656 89.964844 299.960938 90.75 300.121094 91.558594 C 300.28125 92.367188 300.359375 93.183594 300.359375 94.007812 C 300.359375 94.832031 300.277344 95.648438 300.117188 96.453125 C 299.957031 97.261719 299.71875 98.046875 299.402344 98.808594 C 299.085938 99.566406 298.699219 100.289062 298.242188 100.976562 C 297.785156 101.660156 297.265625 102.292969 296.683594 102.875 C 296.101562 103.457031 295.46875 103.976562 294.78125 104.433594 C 294.097656 104.894531 293.375 105.28125 292.617188 105.59375 C 291.855469 105.910156 291.070312 106.148438 290.265625 106.308594 C 289.457031 106.472656 288.644531 106.554688 287.820312 106.554688 Z M 364.339844 94.007812 C 364.339844 94.523438 364.289062 95.035156 364.1875 95.542969 C 364.085938 96.050781 363.9375 96.542969 363.738281 97.019531 C 363.542969 97.5 363.296875 97.953125 363.011719 98.382812 C 362.722656 98.8125 362.398438 99.210938 362.03125 99.578125 C 361.667969 99.941406 361.269531 100.269531 360.839844 100.554688 C 360.410156 100.84375 359.957031 101.085938 359.480469 101.285156 C 359.003906 101.480469 358.511719 101.628906 358.003906 101.730469 C 357.496094 101.832031 356.984375 101.882812 356.46875 101.882812 L 329.429688 101.882812 C 328.914062 101.882812 328.402344 101.832031 327.894531 101.730469 C 327.386719 101.628906 326.894531 101.480469 326.417969 101.285156 C 325.941406 101.085938 325.488281 100.84375 325.058594 100.554688 C 324.628906 100.269531 324.230469 99.941406 323.867188 99.578125 C 323.5 99.210938 323.171875 98.8125 322.886719 98.382812 C 322.597656 97.953125 322.355469 97.5 322.160156 97.019531 C 321.960938 96.542969 321.8125 96.050781 321.710938 95.542969 C 321.609375 95.035156 321.558594 94.523438 321.558594 94.007812 C 321.558594 93.492188 321.609375 92.980469 321.710938 92.472656 C 321.8125 91.964844 321.960938 91.472656 322.160156 90.996094 C 322.355469 90.515625 322.597656 90.0625 322.886719 89.632812 C 323.171875 89.203125 323.5 88.804688 323.867188 88.4375 C 324.230469 88.074219 324.628906 87.746094 325.058594 87.460938 C 325.488281 87.171875 325.941406 86.929688 326.417969 86.730469 C 326.894531 86.535156 327.386719 86.386719 327.894531 86.285156 C 328.402344 86.183594 328.914062 86.132812 329.429688 86.132812 L 356.464844 86.132812 C 356.980469 86.132812 357.492188 86.183594 358 86.285156 C 358.507812 86.382812 359 86.535156 359.476562 86.730469 C 359.953125 86.929688 360.410156 87.171875 360.839844 87.457031 C 361.269531 87.746094 361.667969 88.074219 362.03125 88.4375 C 362.398438 88.804688 362.722656 89.203125 363.011719 89.632812 C 363.296875 90.0625 363.539062 90.515625 363.738281 90.992188 C 363.9375 91.472656 364.085938 91.964844 364.1875 92.472656 C 364.289062 92.976562 364.339844 93.492188 364.339844 94.007812 Z M 254.078125 94.007812 C 254.078125 94.523438 254.027344 95.035156 253.929688 95.542969 C 253.828125 96.050781 253.679688 96.542969 253.480469 97.019531 C 253.28125 97.5 253.039062 97.953125 252.753906 98.382812 C 252.464844 98.8125 252.140625 99.210938 251.773438 99.578125 C 251.410156 99.941406 251.011719 100.269531 250.582031 100.554688 C 250.152344 100.84375 249.699219 101.085938 249.222656 101.285156 C 248.746094 101.480469 248.253906 101.628906 247.746094 101.730469 C 247.238281 101.832031 246.726562 101.882812 246.210938 101.882812 L 219.171875 101.882812 C 218.65625 101.882812 218.144531 101.832031 217.636719 101.730469 C 217.128906 101.628906 216.636719 101.480469 216.160156 101.285156 C 215.683594 101.085938 215.230469 100.84375 214.800781 100.554688 C 214.371094 100.269531 213.972656 99.941406 213.605469 99.578125 C 213.242188 99.210938 212.914062 98.8125 212.628906 98.382812 C 212.339844 97.953125 212.097656 97.5 211.902344 97.019531 C 211.703125 96.542969 211.554688 96.050781 211.453125 95.542969 C 211.351562 95.035156 211.300781 94.523438 211.300781 94.007812 C 211.300781 93.492188 211.351562 92.980469 211.453125 92.472656 C 211.554688 91.964844 211.703125 91.472656 211.902344 90.996094 C 212.097656 90.515625 212.339844 90.0625 212.628906 89.632812 C 212.914062 89.203125 213.242188 88.804688 213.605469 88.4375 C 213.972656 88.074219 214.371094 87.746094 214.800781 87.460938 C 215.230469 87.171875 215.683594 86.929688 216.160156 86.730469 C 216.636719 86.535156 217.128906 86.386719 217.636719 86.285156 C 218.144531 86.183594 218.65625 86.132812 219.171875 86.132812 L 246.210938 86.132812 C 246.726562 86.132812 247.238281 86.183594 247.746094 86.285156 C 248.253906 86.386719 248.746094 86.535156 249.222656 86.730469 C 249.699219 86.929688 250.152344 87.171875 250.582031 87.460938 C 251.011719 87.746094 251.410156 88.074219 251.773438 88.4375 C 252.140625 88.804688 252.464844 89.203125 252.753906 89.632812 C 253.039062 90.0625 253.28125 90.515625 253.480469 90.996094 C 253.679688 91.472656 253.828125 91.964844 253.929688 92.472656 C 254.027344 92.980469 254.078125 93.492188 254.078125 94.007812 Z M 468.902344 378.789062 L 520.15625 362.167969 C 520.863281 361.941406 521.554688 361.675781 522.230469 361.378906 C 522.910156 361.082031 523.574219 360.753906 524.21875 360.390625 C 524.867188 360.027344 525.492188 359.636719 526.101562 359.210938 C 526.707031 358.789062 527.292969 358.335938 527.855469 357.851562 C 528.417969 357.371094 528.957031 356.863281 529.472656 356.332031 C 529.984375 355.796875 530.472656 355.238281 530.929688 354.65625 C 531.390625 354.074219 531.820312 353.472656 532.21875 352.847656 C 532.617188 352.222656 532.988281 351.582031 533.324219 350.921875 C 533.660156 350.261719 533.964844 349.585938 534.234375 348.894531 C 534.503906 348.207031 534.742188 347.503906 534.945312 346.792969 C 535.144531 346.078125 535.3125 345.355469 535.441406 344.628906 C 535.574219 343.898438 535.667969 343.164062 535.730469 342.425781 C 535.789062 341.6875 535.8125 340.945312 535.796875 340.207031 C 535.785156 339.464844 535.734375 338.726562 535.648438 337.988281 C 535.5625 337.253906 535.441406 336.523438 535.285156 335.796875 C 535.128906 335.074219 534.933594 334.359375 534.707031 333.652344 L 491.808594 201.144531 C 491.578125 200.4375 491.316406 199.746094 491.019531 199.066406 C 490.722656 198.390625 490.390625 197.726562 490.03125 197.078125 C 489.667969 196.433594 489.277344 195.804688 488.851562 195.195312 C 488.429688 194.589844 487.976562 194.003906 487.496094 193.4375 C 487.015625 192.875 486.507812 192.335938 485.972656 191.820312 C 485.441406 191.308594 484.882812 190.820312 484.300781 190.363281 C 483.71875 189.902344 483.117188 189.472656 482.492188 189.074219 C 481.867188 188.671875 481.226562 188.304688 480.566406 187.964844 C 479.90625 187.628906 479.234375 187.324219 478.542969 187.054688 C 477.855469 186.785156 477.152344 186.546875 476.441406 186.34375 C 475.726562 186.144531 475.007812 185.976562 474.277344 185.84375 C 473.546875 185.714844 472.8125 185.621094 472.074219 185.558594 C 471.335938 185.5 470.597656 185.476562 469.855469 185.492188 C 469.117188 185.503906 468.378906 185.554688 467.640625 185.640625 C 466.90625 185.726562 466.175781 185.847656 465.453125 186.007812 C 464.730469 186.164062 464.015625 186.355469 463.308594 186.585938 L 412.050781 203.203125 C 411.347656 203.429688 410.65625 203.695312 409.976562 203.992188 C 409.296875 204.289062 408.636719 204.617188 407.988281 204.980469 C 407.34375 205.34375 406.714844 205.734375 406.105469 206.160156 C 405.5 206.582031 404.914062 207.035156 404.351562 207.515625 C 403.785156 208 403.246094 208.507812 402.734375 209.039062 C 402.21875 209.574219 401.734375 210.132812 401.273438 210.714844 C 400.816406 211.296875 400.386719 211.898438 399.988281 212.523438 C 399.585938 213.148438 399.21875 213.789062 398.882812 214.449219 C 398.546875 215.109375 398.242188 215.785156 397.96875 216.476562 C 397.699219 217.167969 397.464844 217.867188 397.261719 218.582031 C 397.058594 219.292969 396.894531 220.015625 396.761719 220.746094 C 396.632812 221.476562 396.535156 222.210938 396.476562 222.949219 C 396.417969 223.6875 396.394531 224.429688 396.410156 225.167969 C 396.421875 225.910156 396.472656 226.648438 396.558594 227.386719 C 396.644531 228.121094 396.765625 228.851562 396.921875 229.578125 C 397.082031 230.300781 397.273438 231.015625 397.5 231.722656 L 401.253906 243.316406 C 391.316406 246.84375 383.027344 247.804688 376.574219 246.171875 C 356.28125 232.992188 337.523438 227.601562 320.808594 230.164062 C 320.527344 230.207031 320.246094 230.265625 319.96875 230.339844 C 309.960938 233.015625 300.171875 236.328125 290.597656 240.285156 C 290.117188 239.921875 289.605469 239.613281 289.054688 239.367188 C 277.585938 234.238281 265.78125 230.050781 253.644531 226.808594 C 253.367188 226.734375 253.085938 226.675781 252.804688 226.628906 C 236.089844 224.070312 217.335938 229.457031 197.039062 242.636719 C 191.210938 244.113281 183.894531 243.472656 175.210938 240.738281 L 178.132812 231.714844 C 178.359375 231.007812 178.550781 230.292969 178.710938 229.570312 C 178.867188 228.84375 178.988281 228.113281 179.074219 227.378906 C 179.160156 226.640625 179.210938 225.902344 179.222656 225.164062 C 179.238281 224.421875 179.214844 223.679688 179.15625 222.941406 C 179.09375 222.203125 179 221.46875 178.867188 220.738281 C 178.738281 220.011719 178.570312 219.289062 178.371094 218.574219 C 178.167969 217.863281 177.929688 217.160156 177.660156 216.46875 C 177.390625 215.78125 177.085938 215.105469 176.75 214.445312 C 176.414062 213.785156 176.042969 213.144531 175.644531 212.519531 C 175.246094 211.894531 174.816406 211.292969 174.355469 210.710938 C 173.898438 210.128906 173.410156 209.570312 172.898438 209.035156 C 172.382812 208.503906 171.84375 207.996094 171.28125 207.511719 C 170.71875 207.03125 170.132812 206.578125 169.523438 206.15625 C 168.917969 205.730469 168.289062 205.339844 167.644531 204.976562 C 166.996094 204.613281 166.335938 204.285156 165.65625 203.988281 C 164.976562 203.691406 164.285156 203.429688 163.582031 203.199219 L 112.332031 186.585938 C 111.625 186.355469 110.910156 186.164062 110.1875 186.007812 C 109.464844 185.847656 108.734375 185.726562 107.996094 185.640625 C 107.261719 185.554688 106.523438 185.503906 105.78125 185.492188 C 105.042969 185.480469 104.304688 185.5 103.566406 185.5625 C 102.828125 185.621094 102.09375 185.714844 101.363281 185.847656 C 100.632812 185.976562 99.914062 186.144531 99.199219 186.347656 C 98.488281 186.546875 97.785156 186.785156 97.097656 187.054688 C 96.40625 187.328125 95.734375 187.628906 95.074219 187.96875 C 94.414062 188.304688 93.773438 188.671875 93.148438 189.074219 C 92.523438 189.472656 91.921875 189.902344 91.339844 190.363281 C 90.757812 190.820312 90.203125 191.308594 89.667969 191.824219 C 89.132812 192.335938 88.625 192.875 88.144531 193.4375 C 87.664062 194.003906 87.210938 194.589844 86.789062 195.195312 C 86.367188 195.804688 85.972656 196.433594 85.609375 197.078125 C 85.25 197.726562 84.917969 198.390625 84.621094 199.066406 C 84.324219 199.746094 84.0625 200.4375 83.832031 201.144531 L 40.9375 333.648438 C 40.710938 334.351562 40.515625 335.066406 40.359375 335.792969 C 40.203125 336.515625 40.082031 337.246094 39.996094 337.984375 C 39.910156 338.71875 39.859375 339.457031 39.847656 340.199219 C 39.832031 340.941406 39.855469 341.679688 39.914062 342.417969 C 39.972656 343.15625 40.070312 343.890625 40.199219 344.621094 C 40.332031 345.351562 40.5 346.074219 40.699219 346.785156 C 40.902344 347.5 41.140625 348.199219 41.410156 348.890625 C 41.679688 349.578125 41.984375 350.253906 42.320312 350.914062 C 42.65625 351.574219 43.027344 352.21875 43.425781 352.839844 C 43.824219 353.464844 44.253906 354.066406 44.714844 354.648438 C 45.171875 355.230469 45.660156 355.789062 46.171875 356.324219 C 46.6875 356.859375 47.222656 357.367188 47.789062 357.847656 C 48.351562 358.328125 48.9375 358.78125 49.542969 359.203125 C 50.152344 359.628906 50.777344 360.019531 51.425781 360.382812 C 52.070312 360.746094 52.734375 361.074219 53.410156 361.371094 C 54.089844 361.667969 54.78125 361.933594 55.484375 362.164062 L 106.742188 378.78125 C 110.503906 380.015625 114.316406 380.226562 118.1875 379.414062 C 120.597656 384.28125 123.832031 388.523438 127.890625 392.132812 C 126.917969 393.199219 126.027344 394.332031 125.226562 395.53125 L 113.683594 412.757812 C 112.964844 413.828125 112.320312 414.941406 111.753906 416.101562 C 111.1875 417.257812 110.699219 418.449219 110.292969 419.671875 C 109.886719 420.898438 109.5625 422.144531 109.324219 423.410156 C 109.085938 424.679688 108.933594 425.957031 108.871094 427.246094 C 108.804688 428.53125 108.824219 429.820312 108.933594 431.105469 C 109.042969 432.390625 109.238281 433.660156 109.519531 434.921875 C 109.796875 436.179688 110.164062 437.414062 110.609375 438.625 C 111.058594 439.832031 111.582031 441.007812 112.191406 442.144531 C 112.796875 443.285156 113.476562 444.378906 114.230469 445.421875 C 114.984375 446.46875 115.804688 447.460938 116.691406 448.394531 C 117.578125 449.332031 118.523438 450.203125 119.53125 451.011719 C 120.535156 451.816406 121.589844 452.554688 122.695312 453.21875 C 123.800781 453.882812 124.945312 454.46875 126.128906 454.976562 C 127.3125 455.488281 128.527344 455.914062 129.769531 456.261719 C 131.011719 456.605469 132.269531 456.867188 133.546875 457.039062 C 134.824219 457.214844 136.105469 457.304688 137.394531 457.304688 C 137.492188 457.304688 137.59375 457.296875 137.691406 457.296875 C 137.53125 458.734375 137.484375 460.179688 137.546875 461.625 C 137.605469 463.070312 137.777344 464.503906 138.054688 465.925781 C 138.332031 467.347656 138.71875 468.738281 139.207031 470.101562 C 139.695312 471.464844 140.285156 472.785156 140.976562 474.054688 C 141.664062 475.328125 142.449219 476.542969 143.320312 477.699219 C 144.195312 478.851562 145.152344 479.933594 146.1875 480.941406 C 147.226562 481.953125 148.335938 482.875 149.515625 483.71875 C 150.691406 484.558594 151.925781 485.304688 153.21875 485.957031 C 154.511719 486.609375 155.84375 487.164062 157.21875 487.613281 C 158.59375 488.0625 159.996094 488.40625 161.425781 488.644531 C 162.851562 488.882812 164.289062 489.011719 165.734375 489.027344 C 167.183594 489.046875 168.625 488.957031 170.058594 488.757812 C 171.488281 488.558594 172.898438 488.25 174.285156 487.835938 C 175.671875 487.421875 177.019531 486.90625 178.328125 486.285156 C 179.636719 485.667969 180.890625 484.953125 182.09375 484.144531 C 183.292969 483.335938 184.425781 482.4375 185.488281 481.457031 C 185.707031 482.007812 185.941406 482.550781 186.191406 483.085938 C 186.445312 483.621094 186.714844 484.148438 186.996094 484.667969 C 187.28125 485.183594 187.582031 485.695312 187.898438 486.195312 C 188.214844 486.695312 188.546875 487.183594 188.894531 487.664062 C 189.238281 488.144531 189.601562 488.613281 189.976562 489.070312 C 190.351562 489.527344 190.742188 489.96875 191.144531 490.402344 C 191.546875 490.835938 191.960938 491.257812 192.390625 491.664062 C 192.820312 492.070312 193.261719 492.464844 193.714844 492.84375 C 194.167969 493.222656 194.632812 493.589844 195.109375 493.9375 C 195.585938 494.289062 196.074219 494.625 196.570312 494.945312 C 197.066406 495.265625 197.574219 495.570312 198.089844 495.859375 C 198.605469 496.148438 199.128906 496.421875 199.660156 496.679688 C 200.195312 496.9375 200.734375 497.175781 201.28125 497.398438 C 201.828125 497.621094 202.382812 497.828125 202.945312 498.015625 C 203.503906 498.207031 204.070312 498.378906 204.640625 498.53125 C 205.210938 498.683594 205.789062 498.820312 206.367188 498.9375 C 206.945312 499.054688 207.527344 499.15625 208.113281 499.238281 C 208.699219 499.320312 209.289062 499.382812 209.878906 499.429688 C 210.464844 499.472656 211.058594 499.5 211.648438 499.507812 C 212.238281 499.519531 212.832031 499.507812 213.421875 499.480469 C 214.011719 499.453125 214.601562 499.40625 215.1875 499.339844 C 215.777344 499.277344 216.363281 499.195312 216.945312 499.09375 C 217.527344 498.992188 218.105469 498.871094 218.679688 498.734375 C 219.257812 498.597656 219.828125 498.445312 220.390625 498.273438 C 220.957031 498.101562 221.515625 497.910156 222.070312 497.703125 C 222.625 497.496094 223.171875 497.273438 223.710938 497.03125 C 224.253906 496.789062 224.785156 496.53125 225.308594 496.257812 C 225.832031 495.984375 226.347656 495.695312 226.855469 495.390625 C 227.359375 495.082031 227.855469 494.761719 228.34375 494.425781 C 228.828125 494.089844 229.304688 493.738281 229.769531 493.371094 C 230.230469 493.003906 230.683594 492.625 231.125 492.230469 C 231.566406 491.835938 231.996094 491.425781 232.410156 491.007812 C 232.9375 491.984375 233.53125 492.921875 234.183594 493.816406 C 234.839844 494.714844 235.550781 495.566406 236.320312 496.367188 C 237.089844 497.167969 237.90625 497.914062 238.777344 498.605469 C 239.644531 499.296875 240.554688 499.929688 241.507812 500.5 C 242.460938 501.066406 243.449219 501.570312 244.472656 502.007812 C 245.492188 502.445312 246.539062 502.8125 247.605469 503.105469 C 248.675781 503.402344 249.761719 503.625 250.863281 503.777344 C 251.960938 503.925781 253.066406 504.003906 254.179688 504.003906 C 255.824219 504.003906 257.453125 503.84375 259.066406 503.527344 C 260.671875 503.214844 262.226562 502.75 263.738281 502.132812 C 265.246094 501.511719 266.679688 500.75 268.039062 499.847656 C 269.398438 498.941406 270.65625 497.914062 271.8125 496.761719 C 272.96875 495.605469 274 494.351562 274.90625 492.992188 L 276.878906 490.046875 L 295.585938 500.003906 C 299.585938 502.144531 303.855469 503.214844 308.394531 503.21875 C 311.148438 503.214844 313.84375 502.808594 316.480469 502 C 317.902344 501.566406 319.277344 501.023438 320.609375 500.367188 C 321.941406 499.710938 323.210938 498.953125 324.421875 498.089844 C 325.628906 497.226562 326.761719 496.273438 327.8125 495.222656 C 328.867188 494.175781 329.828125 493.050781 330.699219 491.847656 C 331.570312 490.644531 332.335938 489.378906 333 488.050781 C 333.664062 486.71875 334.214844 485.347656 334.65625 483.929688 C 335.097656 482.507812 335.421875 481.0625 335.625 479.59375 C 335.832031 478.121094 335.917969 476.644531 335.882812 475.15625 C 337.046875 475.34375 338.222656 475.464844 339.402344 475.519531 C 340.582031 475.570312 341.761719 475.558594 342.941406 475.476562 C 344.117188 475.398438 345.289062 475.25 346.453125 475.039062 C 347.613281 474.824219 348.761719 474.546875 349.890625 474.203125 C 351.019531 473.859375 352.128906 473.457031 353.214844 472.988281 C 354.296875 472.519531 355.351562 471.988281 356.378906 471.402344 C 357.402344 470.8125 358.390625 470.167969 359.34375 469.46875 C 360.292969 468.765625 361.203125 468.015625 362.070312 467.210938 C 362.9375 466.40625 363.753906 465.558594 364.527344 464.660156 C 365.296875 463.765625 366.011719 462.828125 366.675781 461.847656 C 367.339844 460.871094 367.949219 459.859375 368.496094 458.8125 C 369.046875 457.765625 369.535156 456.691406 369.964844 455.589844 C 370.390625 454.488281 370.753906 453.363281 371.054688 452.21875 C 371.355469 451.078125 371.589844 449.921875 371.761719 448.75 C 371.929688 447.578125 372.03125 446.402344 372.070312 445.222656 C 372.105469 444.039062 372.074219 442.859375 371.976562 441.683594 C 372.5625 441.800781 373.152344 441.902344 373.746094 441.988281 C 374.335938 442.074219 374.929688 442.144531 375.527344 442.195312 C 376.121094 442.246094 376.71875 442.28125 377.316406 442.296875 C 377.914062 442.316406 378.511719 442.316406 379.109375 442.300781 C 379.707031 442.28125 380.304688 442.246094 380.902344 442.195312 C 381.496094 442.144531 382.089844 442.078125 382.683594 441.992188 C 383.277344 441.90625 383.863281 441.804688 384.449219 441.683594 C 385.035156 441.566406 385.617188 441.429688 386.199219 441.277344 C 386.777344 441.125 387.347656 440.953125 387.917969 440.769531 C 388.488281 440.582031 389.050781 440.382812 389.605469 440.164062 C 390.164062 439.945312 390.714844 439.710938 391.257812 439.464844 C 391.800781 439.214844 392.335938 438.949219 392.867188 438.667969 C 393.394531 438.386719 393.914062 438.09375 394.425781 437.78125 C 394.9375 437.472656 395.441406 437.148438 395.933594 436.808594 C 396.425781 436.46875 396.910156 436.117188 397.382812 435.75 C 397.855469 435.382812 398.316406 435.003906 398.769531 434.609375 C 399.21875 434.21875 399.65625 433.8125 400.085938 433.394531 C 400.511719 432.976562 400.929688 432.542969 401.332031 432.101562 C 401.734375 431.660156 402.125 431.207031 402.503906 430.742188 C 402.878906 430.277344 403.242188 429.800781 403.59375 429.316406 C 403.941406 428.832031 404.277344 428.335938 404.597656 427.832031 C 404.921875 427.328125 405.226562 426.8125 405.519531 426.289062 C 405.8125 425.769531 406.089844 425.238281 406.351562 424.699219 C 406.613281 424.160156 406.859375 423.617188 407.089844 423.0625 C 407.320312 422.511719 407.53125 421.953125 407.730469 421.386719 C 407.929688 420.824219 408.113281 420.253906 408.277344 419.679688 C 408.441406 419.101562 408.59375 418.523438 408.722656 417.941406 C 408.855469 417.355469 408.972656 416.769531 409.070312 416.179688 C 409.171875 415.589844 409.25 414.996094 409.316406 414.402344 C 409.382812 413.804688 409.429688 413.210938 409.460938 412.613281 C 409.492188 412.015625 409.503906 411.414062 409.5 410.816406 C 409.496094 410.21875 409.476562 409.621094 409.4375 409.023438 C 411.132812 409.476562 412.859375 409.789062 414.605469 409.953125 C 416.355469 410.117188 418.105469 410.132812 419.855469 410.003906 C 421.609375 409.871094 423.335938 409.597656 425.042969 409.175781 C 426.746094 408.753906 428.40625 408.191406 430.015625 407.492188 C 431.628906 406.789062 433.167969 405.957031 434.640625 404.996094 C 436.109375 404.035156 437.492188 402.960938 438.78125 401.765625 C 440.070312 400.574219 441.25 399.28125 442.324219 397.886719 C 443.394531 396.496094 444.34375 395.023438 445.167969 393.46875 C 446.65625 390.699219 447.671875 387.761719 448.21875 384.664062 C 448.769531 381.566406 448.816406 378.460938 448.371094 375.347656 C 449.816406 376.4375 451.371094 377.339844 453.035156 378.054688 C 454.699219 378.773438 456.425781 379.277344 458.210938 379.578125 C 460 379.878906 461.796875 379.960938 463.601562 379.824219 C 465.410156 379.691406 467.171875 379.34375 468.894531 378.78125 Z M 111.59375 363.796875 L 60.335938 347.179688 C 59.90625 347.039062 59.496094 346.855469 59.101562 346.636719 C 58.710938 346.414062 58.339844 346.15625 58 345.863281 C 57.65625 345.566406 57.34375 345.242188 57.066406 344.886719 C 56.785156 344.535156 56.542969 344.15625 56.339844 343.753906 C 56.132812 343.351562 55.96875 342.933594 55.84375 342.496094 C 55.722656 342.0625 55.640625 341.621094 55.605469 341.167969 C 55.570312 340.71875 55.574219 340.269531 55.628906 339.820312 C 55.679688 339.371094 55.773438 338.933594 55.910156 338.5 L 98.808594 206 C 98.945312 205.566406 99.125 205.15625 99.347656 204.761719 C 99.566406 204.367188 99.824219 203.996094 100.117188 203.652344 C 100.410156 203.308594 100.734375 202.996094 101.089844 202.714844 C 101.445312 202.433594 101.824219 202.191406 102.226562 201.988281 C 102.628906 201.78125 103.046875 201.617188 103.480469 201.492188 C 103.917969 201.371094 104.359375 201.289062 104.808594 201.253906 C 105.261719 201.21875 105.710938 201.226562 106.160156 201.28125 C 106.609375 201.332031 107.046875 201.429688 107.476562 201.570312 L 158.734375 218.183594 C 159.164062 218.324219 159.578125 218.503906 159.972656 218.726562 C 160.363281 218.949219 160.734375 219.203125 161.078125 219.5 C 161.421875 219.792969 161.734375 220.117188 162.011719 220.472656 C 162.292969 220.828125 162.535156 221.207031 162.742188 221.609375 C 162.945312 222.011719 163.109375 222.429688 163.234375 222.867188 C 163.355469 223.300781 163.4375 223.742188 163.472656 224.195312 C 163.507812 224.644531 163.5 225.09375 163.449219 225.542969 C 163.394531 225.992188 163.300781 226.433594 163.160156 226.863281 L 120.265625 359.367188 C 120.128906 359.796875 119.945312 360.207031 119.726562 360.601562 C 119.503906 360.996094 119.25 361.367188 118.953125 361.710938 C 118.660156 362.054688 118.335938 362.367188 117.984375 362.648438 C 117.628906 362.925781 117.25 363.171875 116.847656 363.375 C 116.445312 363.582031 116.023438 363.746094 115.589844 363.871094 C 115.15625 363.992188 114.714844 364.074219 114.261719 364.109375 C 113.8125 364.144531 113.363281 364.136719 112.914062 364.085938 C 112.464844 364.03125 112.023438 363.9375 111.59375 363.796875 Z M 130.277344 439.386719 C 129.578125 438.914062 128.933594 438.378906 128.339844 437.777344 C 127.746094 437.179688 127.214844 436.527344 126.75 435.824219 C 126.285156 435.121094 125.890625 434.378906 125.570312 433.597656 C 125.25 432.816406 125.007812 432.011719 124.84375 431.183594 C 124.679688 430.355469 124.601562 429.519531 124.601562 428.675781 C 124.601562 427.832031 124.683594 426.996094 124.847656 426.167969 C 125.011719 425.339844 125.253906 424.535156 125.574219 423.757812 C 125.894531 422.976562 126.289062 422.234375 126.753906 421.53125 L 138.300781 404.296875 C 138.773438 403.601562 139.308594 402.957031 139.90625 402.367188 C 140.507812 401.777344 141.15625 401.25 141.859375 400.785156 C 142.5625 400.324219 143.300781 399.933594 144.082031 399.613281 C 144.859375 399.296875 145.660156 399.058594 146.488281 398.898438 C 147.3125 398.738281 148.144531 398.660156 148.988281 398.660156 C 149.828125 398.664062 150.660156 398.75 151.484375 398.917969 C 152.308594 399.082031 153.109375 399.328125 153.886719 399.652344 C 154.664062 399.976562 155.402344 400.371094 156.097656 400.839844 C 156.796875 401.308594 157.445312 401.84375 158.039062 402.4375 C 158.632812 403.035156 159.164062 403.679688 159.632812 404.378906 C 160.097656 405.082031 160.492188 405.820312 160.816406 406.597656 C 161.136719 407.375 161.382812 408.175781 161.546875 409 C 161.714844 409.824219 161.796875 410.660156 161.800781 411.5 C 161.800781 412.34375 161.722656 413.175781 161.558594 414.003906 C 161.398438 414.828125 161.160156 415.628906 160.839844 416.410156 C 160.523438 417.1875 160.128906 417.929688 159.667969 418.632812 L 149.292969 434.117188 L 148.121094 435.867188 C 147.652344 436.566406 147.117188 437.214844 146.519531 437.8125 C 145.917969 438.40625 145.269531 438.9375 144.566406 439.40625 C 143.863281 439.875 143.121094 440.269531 142.339844 440.589844 C 141.558594 440.914062 140.753906 441.15625 139.925781 441.320312 C 139.097656 441.484375 138.261719 441.5625 137.417969 441.5625 C 136.574219 441.5625 135.738281 441.476562 134.910156 441.3125 C 134.082031 441.148438 133.277344 440.902344 132.5 440.578125 C 131.71875 440.253906 130.980469 439.855469 130.277344 439.386719 Z M 168.589844 473.019531 C 167.34375 473.261719 166.089844 473.320312 164.828125 473.191406 C 163.566406 473.066406 162.347656 472.757812 161.175781 472.269531 C 160.003906 471.777344 158.929688 471.132812 157.949219 470.324219 C 156.96875 469.515625 156.128906 468.582031 155.421875 467.527344 C 154.71875 466.46875 154.183594 465.332031 153.816406 464.117188 C 153.449219 462.902344 153.265625 461.660156 153.265625 460.386719 C 153.265625 459.117188 153.449219 457.875 153.816406 456.660156 C 154.183594 455.445312 154.71875 454.308594 155.421875 453.25 L 166.96875 436.019531 C 167.917969 434.601562 169.101562 433.421875 170.523438 432.480469 C 171.945312 431.535156 173.492188 430.902344 175.164062 430.582031 C 176.007812 430.414062 176.855469 430.332031 177.710938 430.332031 C 180.300781 430.328125 182.664062 431.050781 184.8125 432.496094 C 185.511719 432.96875 186.160156 433.503906 186.757812 434.101562 C 187.351562 434.699219 187.882812 435.351562 188.351562 436.054688 C 188.820312 436.757812 189.214844 437.5 189.535156 438.28125 C 189.855469 439.0625 190.097656 439.867188 190.261719 440.695312 C 190.425781 441.527344 190.507812 442.363281 190.507812 443.207031 C 190.503906 444.050781 190.421875 444.890625 190.257812 445.71875 C 190.089844 446.546875 189.847656 447.351562 189.523438 448.128906 C 189.199219 448.910156 188.804688 449.652344 188.332031 450.355469 L 176.789062 467.582031 C 175.839844 469 174.65625 470.179688 173.234375 471.121094 C 171.8125 472.066406 170.265625 472.699219 168.589844 473.019531 Z M 214.539062 483.496094 C 213.292969 483.738281 212.039062 483.796875 210.777344 483.667969 C 209.515625 483.539062 208.296875 483.230469 207.125 482.742188 C 205.953125 482.253906 204.878906 481.605469 203.898438 480.800781 C 202.917969 479.992188 202.078125 479.058594 201.375 478.003906 C 200.667969 476.945312 200.132812 475.808594 199.765625 474.59375 C 199.398438 473.378906 199.214844 472.136719 199.214844 470.863281 C 199.214844 469.59375 199.398438 468.351562 199.765625 467.136719 C 200.132812 465.921875 200.667969 464.785156 201.371094 463.726562 L 212.917969 446.5 C 213.390625 445.804688 213.925781 445.160156 214.523438 444.570312 C 215.121094 443.980469 215.773438 443.453125 216.476562 442.988281 C 217.175781 442.527344 217.917969 442.136719 218.695312 441.816406 C 219.476562 441.5 220.277344 441.261719 221.105469 441.101562 C 221.929688 440.9375 222.761719 440.859375 223.605469 440.863281 C 224.445312 440.867188 225.277344 440.953125 226.101562 441.117188 C 226.925781 441.285156 227.726562 441.53125 228.503906 441.855469 C 229.28125 442.179688 230.015625 442.574219 230.714844 443.042969 C 231.414062 443.511719 232.0625 444.042969 232.65625 444.640625 C 233.25 445.234375 233.78125 445.882812 234.246094 446.582031 C 234.714844 447.28125 235.109375 448.019531 235.433594 448.796875 C 235.753906 449.574219 236 450.378906 236.164062 451.203125 C 236.328125 452.027344 236.414062 452.859375 236.414062 453.703125 C 236.417969 454.542969 236.339844 455.378906 236.175781 456.203125 C 236.015625 457.03125 235.777344 457.832031 235.457031 458.613281 C 235.136719 459.390625 234.746094 460.132812 234.28125 460.832031 L 222.738281 478.058594 C 221.789062 479.476562 220.605469 480.65625 219.183594 481.601562 C 217.761719 482.542969 216.214844 483.175781 214.539062 483.496094 Z M 256.015625 488.074219 C 255.132812 488.246094 254.242188 488.285156 253.347656 488.195312 C 252.453125 488.105469 251.589844 487.886719 250.761719 487.539062 C 249.933594 487.191406 249.167969 486.734375 248.476562 486.160156 C 247.78125 485.589844 247.183594 484.929688 246.6875 484.179688 C 246.1875 483.433594 245.808594 482.628906 245.546875 481.765625 C 245.285156 480.90625 245.15625 480.023438 245.15625 479.125 C 245.15625 478.222656 245.285156 477.34375 245.546875 476.484375 C 245.804688 475.621094 246.1875 474.816406 246.683594 474.066406 L 256.144531 459.949219 C 256.816406 458.945312 257.660156 458.109375 258.664062 457.441406 C 259.671875 456.777344 260.769531 456.328125 261.953125 456.101562 C 262.550781 455.984375 263.15625 455.921875 263.765625 455.921875 C 264.585938 455.929688 265.390625 456.042969 266.183594 456.269531 C 266.972656 456.492188 267.71875 456.820312 268.421875 457.246094 C 269.125 457.671875 269.761719 458.1875 270.324219 458.785156 C 270.886719 459.382812 271.363281 460.042969 271.75 460.769531 C 272.132812 461.496094 272.417969 462.261719 272.59375 463.066406 C 272.773438 463.867188 272.84375 464.679688 272.800781 465.503906 C 272.761719 466.324219 272.613281 467.125 272.355469 467.90625 C 272.097656 468.6875 271.742188 469.421875 271.289062 470.105469 L 261.828125 484.222656 C 261.15625 485.230469 260.316406 486.066406 259.308594 486.730469 C 258.300781 487.398438 257.203125 487.847656 256.015625 488.074219 Z M 431.273438 386.070312 C 430.789062 386.976562 430.226562 387.820312 429.578125 388.613281 C 428.929688 389.40625 428.210938 390.125 427.421875 390.777344 C 426.632812 391.425781 425.789062 391.992188 424.886719 392.476562 C 423.984375 392.960938 423.046875 393.351562 422.070312 393.652344 C 421.089844 393.953125 420.09375 394.152344 419.074219 394.253906 C 418.058594 394.359375 417.039062 394.359375 416.023438 394.261719 C 415.003906 394.164062 414.007812 393.96875 413.027344 393.675781 C 412.046875 393.378906 411.105469 392.992188 410.203125 392.515625 L 392.914062 383.316406 L 392.902344 383.308594 L 351.496094 361.265625 C 351.042969 361.023438 350.566406 360.828125 350.070312 360.679688 C 349.578125 360.527344 349.070312 360.429688 348.558594 360.378906 C 348.042969 360.332031 347.527344 360.332031 347.015625 360.382812 C 346.5 360.433594 345.996094 360.535156 345.503906 360.6875 C 345.007812 360.839844 344.535156 361.035156 344.078125 361.28125 C 343.625 361.527344 343.195312 361.8125 342.796875 362.140625 C 342.398438 362.46875 342.035156 362.835938 341.707031 363.234375 C 341.382812 363.636719 341.097656 364.0625 340.855469 364.519531 C 340.613281 364.976562 340.414062 365.453125 340.265625 365.949219 C 340.117188 366.445312 340.019531 366.949219 339.96875 367.464844 C 339.917969 367.976562 339.921875 368.492188 339.972656 369.007812 C 340.023438 369.519531 340.125 370.027344 340.277344 370.519531 C 340.425781 371.015625 340.625 371.488281 340.871094 371.945312 C 341.113281 372.402344 341.402344 372.828125 341.730469 373.226562 C 342.058594 373.625 342.421875 373.988281 342.824219 374.316406 C 343.222656 374.644531 343.652344 374.929688 344.109375 375.171875 L 385.511719 397.210938 C 386.402344 397.695312 387.242188 398.261719 388.027344 398.914062 C 388.808594 399.5625 389.523438 400.28125 390.164062 401.070312 C 390.808594 401.859375 391.367188 402.707031 391.84375 403.605469 C 392.320312 404.503906 392.707031 405.441406 393 406.417969 C 393.292969 407.390625 393.488281 408.386719 393.585938 409.398438 C 393.6875 410.414062 393.683594 411.425781 393.585938 412.441406 C 393.484375 413.453125 393.289062 414.445312 392.996094 415.421875 C 392.699219 416.394531 392.3125 417.332031 391.835938 418.230469 C 391.359375 419.132812 390.796875 419.976562 390.15625 420.765625 C 389.511719 421.554688 388.796875 422.273438 388.015625 422.921875 C 387.230469 423.570312 386.390625 424.136719 385.496094 424.621094 C 384.601562 425.105469 383.667969 425.5 382.695312 425.800781 C 381.722656 426.101562 380.734375 426.308594 379.722656 426.414062 C 378.710938 426.519531 377.695312 426.527344 376.683594 426.4375 C 375.667969 426.347656 374.675781 426.15625 373.699219 425.871094 C 372.722656 425.582031 371.78125 425.203125 370.878906 424.734375 L 329.476562 402.695312 C 329.023438 402.453125 328.546875 402.257812 328.050781 402.109375 C 327.558594 401.960938 327.050781 401.859375 326.539062 401.8125 C 326.023438 401.761719 325.507812 401.761719 324.996094 401.8125 C 324.480469 401.867188 323.976562 401.96875 323.484375 402.117188 C 322.988281 402.269531 322.511719 402.46875 322.058594 402.710938 C 321.601562 402.957031 321.175781 403.242188 320.777344 403.574219 C 320.378906 403.902344 320.015625 404.265625 319.6875 404.667969 C 319.363281 405.066406 319.078125 405.496094 318.835938 405.953125 C 318.589844 406.410156 318.394531 406.882812 318.246094 407.378906 C 318.097656 407.875 318 408.378906 317.949219 408.894531 C 317.898438 409.410156 317.898438 409.921875 317.953125 410.4375 C 318.003906 410.953125 318.105469 411.457031 318.257812 411.953125 C 318.40625 412.445312 318.605469 412.921875 318.847656 413.375 C 319.09375 413.832031 319.378906 414.257812 319.710938 414.660156 C 320.039062 415.058594 320.402344 415.421875 320.800781 415.75 C 321.203125 416.074219 321.628906 416.359375 322.085938 416.601562 L 348.089844 430.441406 L 348.097656 430.449219 C 349.003906 430.929688 349.851562 431.492188 350.640625 432.140625 C 351.433594 432.789062 352.15625 433.507812 352.804688 434.296875 C 353.457031 435.085938 354.023438 435.933594 354.507812 436.835938 C 354.992188 437.734375 355.382812 438.675781 355.679688 439.65625 C 355.980469 440.632812 356.179688 441.632812 356.285156 442.652344 C 356.386719 443.667969 356.386719 444.6875 356.289062 445.707031 C 356.191406 446.726562 355.996094 447.726562 355.699219 448.707031 C 355.40625 449.683594 355.019531 450.628906 354.539062 451.53125 C 354.058594 452.433594 353.492188 453.28125 352.847656 454.074219 C 352.199219 454.867188 351.480469 455.589844 350.691406 456.242188 C 349.902344 456.890625 349.058594 457.457031 348.15625 457.941406 C 347.253906 458.425781 346.316406 458.820312 345.335938 459.117188 C 344.359375 459.417969 343.359375 459.617188 342.34375 459.722656 C 341.324219 459.824219 340.308594 459.824219 339.289062 459.726562 C 338.273438 459.628906 337.273438 459.433594 336.292969 459.136719 C 335.3125 458.84375 334.371094 458.453125 333.46875 457.972656 L 295.632812 437.835938 C 295.175781 437.59375 294.703125 437.398438 294.207031 437.25 C 293.710938 437.101562 293.207031 437 292.695312 436.953125 C 292.179688 436.902344 291.667969 436.90625 291.152344 436.957031 C 290.636719 437.007812 290.132812 437.109375 289.640625 437.261719 C 289.148438 437.414062 288.671875 437.609375 288.21875 437.855469 C 287.761719 438.101562 287.335938 438.386719 286.9375 438.714844 C 286.539062 439.042969 286.175781 439.410156 285.851562 439.808594 C 285.523438 440.210938 285.238281 440.636719 284.996094 441.09375 C 284.753906 441.550781 284.558594 442.027344 284.410156 442.519531 C 284.261719 443.015625 284.160156 443.519531 284.109375 444.035156 C 284.0625 444.550781 284.0625 445.0625 284.113281 445.578125 C 284.164062 446.089844 284.265625 446.597656 284.417969 447.089844 C 284.566406 447.585938 284.765625 448.058594 285.007812 448.515625 C 285.253906 448.96875 285.539062 449.398438 285.867188 449.796875 C 286.195312 450.195312 286.558594 450.558594 286.960938 450.886719 C 287.359375 451.214844 287.789062 451.5 288.242188 451.742188 L 313.964844 465.433594 C 314.644531 465.796875 315.277344 466.21875 315.871094 466.707031 C 316.464844 467.195312 317.003906 467.734375 317.492188 468.328125 C 317.980469 468.921875 318.402344 469.554688 318.765625 470.234375 C 319.128906 470.910156 319.421875 471.617188 319.644531 472.351562 C 319.867188 473.085938 320.015625 473.835938 320.09375 474.597656 C 320.167969 475.363281 320.167969 476.128906 320.09375 476.890625 C 320.019531 477.65625 319.871094 478.40625 319.652344 479.140625 C 319.429688 479.875 319.136719 480.582031 318.777344 481.261719 C 318.417969 481.9375 317.992188 482.574219 317.507812 483.167969 C 317.023438 483.761719 316.484375 484.304688 315.890625 484.792969 C 315.296875 485.28125 314.664062 485.707031 313.988281 486.070312 C 313.3125 486.433594 312.605469 486.726562 311.875 486.953125 C 311.140625 487.175781 310.390625 487.328125 309.628906 487.40625 C 308.863281 487.480469 308.101562 487.484375 307.335938 487.410156 C 306.574219 487.339844 305.824219 487.191406 305.089844 486.96875 C 304.351562 486.75 303.648438 486.460938 302.96875 486.097656 L 285.578125 476.847656 C 286.222656 475.644531 286.765625 474.402344 287.203125 473.113281 C 287.644531 471.820312 287.976562 470.503906 288.199219 469.160156 C 288.425781 467.816406 288.539062 466.464844 288.539062 465.101562 C 288.542969 463.738281 288.433594 462.386719 288.210938 461.039062 C 287.992188 459.695312 287.664062 458.378906 287.226562 457.085938 C 286.789062 455.796875 286.25 454.550781 285.609375 453.347656 C 284.964844 452.148438 284.230469 451.003906 283.402344 449.925781 C 282.574219 448.84375 281.664062 447.835938 280.667969 446.90625 C 279.675781 445.976562 278.609375 445.132812 277.476562 444.375 C 276.347656 443.617188 275.160156 442.960938 273.917969 442.398438 C 272.679688 441.835938 271.398438 441.382812 270.082031 441.03125 C 268.769531 440.679688 267.433594 440.4375 266.078125 440.304688 C 264.722656 440.175781 263.367188 440.152344 262.007812 440.246094 C 260.648438 440.335938 259.304688 440.539062 257.980469 440.851562 C 256.65625 441.164062 255.363281 441.582031 254.109375 442.105469 C 252.851562 442.628906 251.644531 443.253906 250.492188 443.976562 C 249.46875 441.097656 248.019531 438.457031 246.144531 436.046875 C 244.269531 433.636719 242.0625 431.585938 239.523438 429.890625 C 238.199219 429.003906 236.808594 428.234375 235.351562 427.578125 C 233.898438 426.925781 232.402344 426.394531 230.859375 425.992188 C 229.316406 425.589844 227.75 425.316406 226.164062 425.171875 C 224.574219 425.03125 222.984375 425.019531 221.394531 425.144531 C 219.804688 425.265625 218.238281 425.519531 216.691406 425.90625 C 215.144531 426.292969 213.640625 426.800781 212.175781 427.4375 C 210.714844 428.074219 209.316406 428.828125 207.980469 429.699219 C 206.644531 430.570312 205.386719 431.542969 204.214844 432.625 C 203.6875 431.289062 203.0625 430.003906 202.34375 428.761719 C 201.621094 427.523438 200.808594 426.34375 199.910156 425.226562 C 199.011719 424.109375 198.035156 423.066406 196.976562 422.09375 C 195.921875 421.125 194.796875 420.238281 193.609375 419.4375 C 192.417969 418.636719 191.175781 417.933594 189.878906 417.320312 C 188.582031 416.707031 187.246094 416.195312 185.875 415.78125 C 184.5 415.371094 183.101562 415.066406 181.683594 414.867188 C 180.265625 414.664062 178.835938 414.574219 177.402344 414.589844 C 177.710938 411.683594 177.582031 408.796875 177.015625 405.933594 C 176.832031 404.996094 176.601562 404.070312 176.328125 403.15625 C 176.050781 402.246094 175.730469 401.347656 175.367188 400.46875 C 175 399.585938 174.59375 398.726562 174.140625 397.886719 C 173.691406 397.046875 173.199219 396.230469 172.664062 395.441406 C 172.132812 394.648438 171.5625 393.886719 170.953125 393.15625 C 170.34375 392.421875 169.699219 391.71875 169.019531 391.050781 C 168.339844 390.382812 167.628906 389.75 166.882812 389.152344 C 166.140625 388.554688 165.371094 387.996094 164.570312 387.476562 C 163.773438 386.957031 162.949219 386.476562 162.101562 386.039062 C 161.257812 385.601562 160.390625 385.207031 159.503906 384.859375 C 158.617188 384.507812 157.714844 384.203125 156.800781 383.941406 C 155.882812 383.683594 154.953125 383.46875 154.015625 383.300781 C 153.078125 383.132812 152.132812 383.015625 151.183594 382.941406 C 150.234375 382.871094 149.28125 382.84375 148.328125 382.867188 C 147.375 382.890625 146.425781 382.960938 145.480469 383.078125 C 144.535156 383.199219 143.597656 383.363281 142.667969 383.574219 C 142.421875 383.375 142.164062 383.191406 141.894531 383.019531 C 139.609375 381.597656 137.59375 379.863281 135.847656 377.8125 C 134.097656 375.765625 132.703125 373.503906 131.652344 371.023438 C 133.242188 368.960938 134.4375 366.695312 135.238281 364.21875 L 170.367188 255.714844 C 176.894531 257.882812 183.597656 259.027344 190.472656 259.140625 C 194.609375 259.175781 198.664062 258.605469 202.628906 257.425781 C 203.355469 257.203125 204.039062 256.882812 204.675781 256.464844 C 221.832031 245.125 237.085938 240.3125 250.023438 242.140625 C 257.324219 244.113281 264.507812 246.457031 271.570312 249.164062 C 258.832031 255.824219 246.804688 263.585938 235.484375 272.449219 C 224.164062 281.316406 213.746094 291.132812 204.222656 301.90625 C 203.734375 302.460938 203.328125 303.074219 203.007812 303.742188 C 202.691406 304.414062 202.472656 305.113281 202.351562 305.84375 C 202.230469 306.578125 202.210938 307.308594 202.296875 308.046875 C 202.382812 308.78125 202.570312 309.492188 202.855469 310.175781 C 207.410156 321.054688 219.511719 349.957031 246.730469 340.945312 L 325.324219 314.929688 C 352.683594 323.042969 379.488281 332.878906 423.976562 364.464844 C 430.761719 369.277344 435.652344 377.832031 431.273438 386.070312 Z M 327.394531 299.117188 C 325.824219 298.65625 324.265625 298.683594 322.710938 299.199219 L 241.785156 325.988281 C 234.128906 328.519531 227.589844 326.382812 219.375 308.632812 C 226.367188 301.070312 233.855469 294.035156 241.839844 287.527344 C 249.820312 281.015625 258.222656 275.101562 267.035156 269.773438 C 275.851562 264.449219 284.996094 259.769531 294.472656 255.730469 C 303.945312 251.695312 313.65625 248.339844 323.601562 245.671875 C 336.539062 243.839844 351.789062 248.65625 368.949219 259.992188 C 369.582031 260.414062 370.265625 260.734375 370.992188 260.957031 C 380.757812 263.929688 392.558594 263.03125 406.109375 258.296875 L 437.492188 355.222656 C 436.105469 353.921875 434.636719 352.71875 433.085938 351.617188 C 385.332031 317.714844 356.972656 307.78125 327.398438 299.117188 Z M 455.371094 359.367188 L 412.476562 226.863281 C 412.339844 226.433594 412.242188 225.992188 412.191406 225.542969 C 412.136719 225.09375 412.128906 224.644531 412.167969 224.195312 C 412.203125 223.742188 412.28125 223.300781 412.40625 222.863281 C 412.527344 222.429688 412.691406 222.011719 412.898438 221.609375 C 413.101562 221.203125 413.347656 220.824219 413.625 220.46875 C 413.90625 220.117188 414.21875 219.792969 414.5625 219.496094 C 414.90625 219.203125 415.273438 218.945312 415.667969 218.726562 C 416.0625 218.503906 416.472656 218.324219 416.902344 218.183594 L 468.160156 201.566406 C 468.589844 201.425781 469.03125 201.332031 469.480469 201.277344 C 469.929688 201.226562 470.378906 201.214844 470.828125 201.253906 C 471.28125 201.289062 471.722656 201.367188 472.15625 201.488281 C 472.59375 201.613281 473.011719 201.777344 473.414062 201.984375 C 473.816406 202.1875 474.195312 202.433594 474.550781 202.710938 C 474.90625 202.992188 475.230469 203.304688 475.523438 203.648438 C 475.816406 203.992188 476.074219 204.363281 476.292969 204.757812 C 476.515625 205.152344 476.695312 205.566406 476.832031 205.996094 L 519.730469 338.5 C 519.867188 338.929688 519.960938 339.371094 520.011719 339.820312 C 520.0625 340.269531 520.070312 340.71875 520.035156 341.167969 C 520 341.617188 519.917969 342.058594 519.796875 342.496094 C 519.671875 342.929688 519.507812 343.347656 519.300781 343.75 C 519.097656 344.152344 518.855469 344.53125 518.574219 344.886719 C 518.296875 345.242188 517.984375 345.566406 517.640625 345.859375 C 517.296875 346.152344 516.929688 346.410156 516.535156 346.632812 C 516.144531 346.855469 515.730469 347.035156 515.304688 347.175781 L 464.046875 363.796875 C 463.617188 363.933594 463.175781 364.03125 462.726562 364.082031 C 462.277344 364.136719 461.828125 364.144531 461.378906 364.109375 C 460.929688 364.070312 460.484375 363.992188 460.050781 363.867188 C 459.617188 363.746094 459.195312 363.582031 458.792969 363.375 C 458.390625 363.171875 458.011719 362.925781 457.660156 362.648438 C 457.304688 362.367188 456.980469 362.054688 456.6875 361.710938 C 456.394531 361.367188 456.136719 360.996094 455.914062 360.601562 C 455.695312 360.207031 455.515625 359.796875 455.375 359.367188 Z M 129.796875 232.535156 C 129.796875 232.019531 129.84375 231.507812 129.945312 231.003906 C 130.042969 230.496094 130.191406 230.003906 130.386719 229.527344 C 130.585938 229.046875 130.828125 228.59375 131.113281 228.164062 C 131.398438 227.734375 131.722656 227.335938 132.089844 226.972656 C 132.453125 226.605469 132.847656 226.277344 133.277344 225.992188 C 133.707031 225.703125 134.160156 225.460938 134.636719 225.261719 C 135.113281 225.066406 135.605469 224.914062 136.109375 224.8125 C 136.617188 224.710938 137.128906 224.664062 137.644531 224.660156 L 137.691406 224.660156 C 138.207031 224.664062 138.71875 224.714844 139.222656 224.816406 C 139.730469 224.921875 140.222656 225.070312 140.699219 225.269531 C 141.175781 225.46875 141.625 225.710938 142.054688 226 C 142.484375 226.289062 142.878906 226.617188 143.246094 226.980469 C 143.609375 227.347656 143.933594 227.746094 144.21875 228.175781 C 144.503906 228.609375 144.746094 229.0625 144.945312 229.539062 C 145.140625 230.015625 145.289062 230.511719 145.386719 231.015625 C 145.488281 231.523438 145.535156 232.035156 145.535156 232.550781 C 145.535156 233.070312 145.484375 233.582031 145.382812 234.085938 C 145.28125 234.59375 145.128906 235.085938 144.929688 235.5625 C 144.734375 236.039062 144.488281 236.492188 144.203125 236.921875 C 143.914062 237.351562 143.589844 237.75 143.222656 238.113281 C 142.855469 238.480469 142.460938 238.804688 142.03125 239.089844 C 141.597656 239.378906 141.144531 239.617188 140.667969 239.816406 C 140.191406 240.011719 139.699219 240.160156 139.191406 240.261719 C 138.6875 240.363281 138.175781 240.414062 137.660156 240.410156 C 137.140625 240.410156 136.628906 240.359375 136.125 240.257812 C 135.617188 240.15625 135.125 240.007812 134.648438 239.808594 C 134.171875 239.613281 133.71875 239.371094 133.289062 239.082031 C 132.859375 238.792969 132.464844 238.46875 132.097656 238.101562 C 131.734375 237.738281 131.40625 237.339844 131.121094 236.910156 C 130.835938 236.480469 130.59375 236.027344 130.394531 235.546875 C 130.199219 235.070312 130.046875 234.578125 129.949219 234.074219 C 129.847656 233.566406 129.796875 233.054688 129.796875 232.535156 Z M 445.449219 231.425781 C 445.449219 231.945312 445.398438 232.457031 445.300781 232.964844 C 445.199219 233.472656 445.050781 233.964844 444.855469 234.445312 C 444.65625 234.921875 444.414062 235.378906 444.128906 235.808594 C 443.84375 236.238281 443.515625 236.636719 443.152344 237.003906 C 442.785156 237.371094 442.390625 237.699219 441.960938 237.988281 C 441.53125 238.273438 441.078125 238.519531 440.597656 238.71875 C 440.121094 238.917969 439.628906 239.066406 439.121094 239.171875 C 438.617188 239.273438 438.105469 239.324219 437.585938 239.324219 C 437.070312 239.328125 436.558594 239.277344 436.050781 239.175781 C 435.542969 239.078125 435.050781 238.929688 434.570312 238.734375 C 434.09375 238.535156 433.636719 238.292969 433.207031 238.007812 C 432.777344 237.722656 432.378906 237.394531 432.011719 237.03125 C 431.644531 236.667969 431.316406 236.269531 431.027344 235.839844 C 430.738281 235.410156 430.496094 234.957031 430.296875 234.480469 C 430.097656 234.003906 429.945312 233.507812 429.84375 233.003906 C 429.738281 232.496094 429.6875 231.984375 429.6875 231.464844 C 429.683594 230.949219 429.734375 230.433594 429.832031 229.925781 C 429.929688 229.417969 430.078125 228.925781 430.273438 228.445312 C 430.472656 227.96875 430.710938 227.511719 430.996094 227.082031 C 431.285156 226.648438 431.609375 226.25 431.972656 225.882812 C 432.335938 225.515625 432.734375 225.1875 433.164062 224.898438 C 433.589844 224.609375 434.042969 224.363281 434.519531 224.164062 C 435 223.964844 435.488281 223.8125 435.996094 223.710938 C 436.503906 223.605469 437.015625 223.554688 437.53125 223.550781 L 437.578125 223.550781 C 438.097656 223.550781 438.609375 223.601562 439.113281 223.703125 C 439.621094 223.804688 440.113281 223.953125 440.589844 224.152344 C 441.066406 224.347656 441.523438 224.589844 441.953125 224.878906 C 442.378906 225.164062 442.777344 225.492188 443.144531 225.859375 C 443.507812 226.222656 443.835938 226.621094 444.121094 227.050781 C 444.410156 227.480469 444.652344 227.933594 444.847656 228.414062 C 445.046875 228.890625 445.195312 229.382812 445.296875 229.890625 C 445.398438 230.398438 445.449219 230.910156 445.449219 231.425781 Z M 445.449219 231.425781 " fill-opacity="1" fill-rule="nonzero"/></svg>