<svg xmlns="http://www.w3.org/2000/svg" xmlns:xlink="http://www.w3.org/1999/xlink" width="768" zoomAndPan="magnify" viewBox="0 0 576 503.999982" height="672" preserveAspectRatio="xMidYMid meet" version="1.0"><path fill="#000000" d="M 214.773438 189.738281 C 253.238281 189.738281 286.347656 212.613281 301.246094 245.488281 L 301.246094 196.476562 C 303.914062 196.675781 306.609375 196.78125 309.328125 196.78125 C 312.050781 196.78125 314.746094 196.675781 317.414062 196.476562 L 317.414062 245.484375 C 332.3125 212.613281 365.421875 189.738281 403.886719 189.738281 C 409.1875 189.738281 414.386719 190.179688 419.453125 191.015625 C 415.417969 239.667969 374.625 277.894531 324.894531 277.894531 C 322.378906 277.894531 319.882812 277.796875 317.414062 277.601562 L 317.414062 305.574219 C 311.996094 304.023438 306.609375 302.359375 301.246094 300.621094 L 301.246094 277.601562 C 298.777344 277.796875 296.28125 277.894531 293.761719 277.894531 C 244.03125 277.894531 203.242188 239.667969 199.203125 191.015625 C 204.269531 190.179688 209.46875 189.738281 214.773438 189.738281 Z M 165.441406 477.921875 L 83.222656 332.746094 C 82.417969 331.324219 81.109375 330.3125 79.5 329.863281 C 78.945312 329.714844 78.390625 329.640625 77.839844 329.640625 C 76.78125 329.640625 75.777344 329.90625 74.867188 330.421875 L 46.890625 346.234375 C 43.921875 347.910156 42.917969 351.664062 44.578125 354.605469 L 126.796875 499.78125 C 128.460938 502.734375 132.234375 503.769531 135.152344 502.105469 L 163.128906 486.289062 C 164.539062 485.488281 165.542969 484.164062 165.996094 482.582031 C 166.449219 480.992188 166.25 479.339844 165.441406 477.921875 Z M 113.632812 351.800781 L 167.390625 446.59375 L 187.621094 434.929688 C 189.582031 433.792969 191.898438 433.492188 194.109375 434.078125 L 321.148438 462.039062 C 337.953125 466.527344 353.753906 464.3125 368.195312 455.441406 L 522.457031 359.636719 C 530.859375 354.488281 533.425781 339.375 527.640625 329.695312 C 519.238281 315.675781 496.996094 317.332031 468.113281 334.128906 L 395.0625 376.644531 C 379.867188 385.515625 363.464844 388.386719 344.996094 385.429688 C 341.625 384.886719 338.304688 384.308594 335.035156 383.679688 C 334.328125 383.628906 272.890625 367.667969 265.847656 365.773438 C 261.269531 364.558594 258.550781 359.882812 259.808594 355.339844 C 261.015625 350.785156 265.695312 348.089844 270.222656 349.308594 C 277.417969 351.234375 320.996094 363.578125 337.347656 366.753906 C 345.703125 367.285156 355.414062 364.964844 358.734375 352.675781 C 361.453125 342.601562 355.515625 332.367188 344.898438 328.691406 C 315.058594 323.230469 286.226562 312.828125 263.078125 304.449219 C 254.976562 301.53125 247.984375 299.003906 241.945312 297.042969 C 222.925781 290.878906 204.859375 298.96875 188.207031 308.628906 Z M 81.460938 355.832031 C 82.265625 361.289062 78.492188 366.351562 73.058594 367.152344 C 67.574219 367.949219 62.542969 364.175781 61.738281 358.71875 C 60.929688 353.273438 64.707031 348.199219 70.140625 347.398438 C 75.625 346.609375 80.707031 350.382812 81.460938 355.832031 Z M 309.328125 0.191406 C 359.191406 0.191406 399.613281 40.582031 399.613281 90.40625 C 399.613281 140.234375 359.191406 180.625 309.328125 180.625 C 259.464844 180.625 219.046875 140.234375 219.046875 90.40625 C 219.046875 40.582031 259.464844 0.191406 309.328125 0.191406 Z M 336.285156 66.6875 C 332.457031 57.578125 325.164062 52.3125 317.152344 50.28125 L 316.550781 50.136719 L 316.550781 46.8125 C 316.550781 42.828125 313.320312 39.597656 309.328125 39.597656 C 305.339844 39.597656 302.105469 42.828125 302.105469 46.8125 L 302.105469 50.242188 C 297.925781 51.246094 294.019531 53.101562 290.8125 55.707031 C 285.375 60.125 281.925781 66.539062 282.316406 74.539062 C 282.707031 82.613281 286.730469 88.023438 292.335938 91.679688 C 297.097656 94.789062 302.898438 96.386719 308.234375 97.261719 C 312.238281 97.921875 316.5 98.949219 319.6875 100.871094 C 322.027344 102.285156 323.785156 104.332031 324.15625 107.378906 C 324.210938 107.835938 324.242188 108.136719 324.246094 108.285156 C 324.300781 110.59375 323.175781 112.371094 321.484375 113.648438 C 319.15625 115.417969 315.828125 116.464844 312.472656 116.871094 C 311.511719 116.988281 310.707031 117.054688 310.058594 117.066406 C 306.105469 117.164062 302.21875 116.203125 299.195312 114.195312 C 296.800781 112.601562 294.96875 110.273438 294.207031 107.21875 C 293.257812 103.359375 289.355469 100.996094 285.488281 101.949219 C 281.625 102.898438 279.261719 106.796875 280.214844 110.660156 C 281.925781 117.515625 285.964844 122.695312 291.238281 126.207031 C 294.484375 128.363281 298.203125 129.859375 302.105469 130.6875 L 302.105469 134.003906 C 302.105469 137.988281 305.339844 141.21875 309.328125 141.21875 C 313.316406 141.21875 316.550781 137.988281 316.550781 134.003906 L 316.550781 130.828125 C 321.402344 129.929688 326.269531 128.058594 330.175781 125.097656 C 335.363281 121.164062 338.816406 115.523438 338.632812 107.949219 C 338.613281 107.070312 338.566406 106.3125 338.488281 105.6875 C 337.488281 97.445312 333.035156 92.085938 327.136719 88.523438 C 322.074219 85.472656 316.054688 83.960938 310.546875 83.054688 C 306.84375 82.449219 302.964844 81.433594 300.179688 79.617188 C 298.230469 78.347656 296.832031 76.519531 296.707031 73.867188 C 296.5625 70.914062 297.855469 68.53125 299.898438 66.871094 C 301.578125 65.507812 303.738281 64.554688 306.085938 64.082031 C 308.519531 63.59375 311.144531 63.632812 313.652344 64.265625 C 317.550781 65.253906 321.097656 67.820312 322.964844 72.269531 C 324.507812 75.945312 328.742188 77.675781 332.417969 76.132812 C 336.097656 74.589844 337.828125 70.363281 336.285156 66.6875 Z M 309.328125 13.441406 C 288.058594 13.441406 268.804688 22.054688 254.863281 35.984375 C 240.925781 49.910156 232.304688 69.152344 232.304688 90.40625 C 232.304688 111.660156 240.925781 130.902344 254.863281 144.832031 C 268.804688 158.761719 288.058594 167.375 309.328125 167.375 C 330.597656 167.375 349.855469 158.761719 363.792969 144.832031 C 377.730469 130.902344 386.355469 111.660156 386.355469 90.40625 C 386.355469 69.152344 377.730469 49.910156 363.792969 35.984375 C 349.855469 22.054688 330.597656 13.441406 309.328125 13.441406 Z M 352.363281 47.40625 C 341.351562 36.402344 326.132812 29.59375 309.328125 29.59375 C 292.523438 29.59375 277.308594 36.402344 266.296875 47.40625 C 255.285156 58.410156 248.472656 73.613281 248.472656 90.40625 C 248.472656 107.199219 255.285156 122.40625 266.296875 133.40625 C 277.308594 144.414062 292.523438 151.21875 309.328125 151.21875 C 326.132812 151.21875 341.351562 144.414062 352.363281 133.40625 C 363.375 122.40625 370.1875 107.199219 370.1875 90.40625 C 370.1875 73.613281 363.375 58.410156 352.363281 47.40625 Z M 352.363281 47.40625 " fill-opacity="1" fill-rule="evenodd"/></svg>