<svg xmlns="http://www.w3.org/2000/svg" xmlns:xlink="http://www.w3.org/1999/xlink" width="768" zoomAndPan="magnify" viewBox="0 0 576 503.999982" height="672" preserveAspectRatio="xMidYMid meet" version="1.0"><defs><clipPath id="b36eb65bf1"><path d="M 113 118 L 173 118 L 173 420.117188 L 113 420.117188 Z M 113 118 " clip-rule="nonzero"/></clipPath><clipPath id="87df8d4d87"><path d="M 201 159 L 261 159 L 261 420.117188 L 201 420.117188 Z M 201 159 " clip-rule="nonzero"/></clipPath><clipPath id="5e8ab0101a"><path d="M 289 159 L 349 159 L 349 420.117188 L 289 420.117188 Z M 289 159 " clip-rule="nonzero"/></clipPath><clipPath id="99763a9755"><path d="M 26 163 L 86 163 L 86 420.117188 L 26 420.117188 Z M 26 163 " clip-rule="nonzero"/></clipPath><clipPath id="567c6bc0bb"><path d="M 376 298 L 436 298 L 436 420.117188 L 376 420.117188 Z M 376 298 " clip-rule="nonzero"/></clipPath><clipPath id="8e023337ba"><path d="M 2 19.617188 L 460 19.617188 L 460 163 L 2 163 Z M 2 19.617188 " clip-rule="nonzero"/></clipPath></defs><g clip-path="url(#b36eb65bf1)"><path fill="#000000" d="M 172.707031 118.824219 L 113.773438 149.136719 L 113.8125 420.261719 L 172.75 420.261719 Z M 172.707031 118.824219 " fill-opacity="1" fill-rule="evenodd"/></g><g clip-path="url(#87df8d4d87)"><path fill="#000000" d="M 201.503906 159.296875 L 201.546875 420.261719 L 260.472656 420.261719 L 260.433594 189.570312 Z M 201.503906 159.296875 " fill-opacity="1" fill-rule="evenodd"/></g><g clip-path="url(#5e8ab0101a)"><path fill="#000000" d="M 348.152344 159.496094 L 289.183594 189.570312 L 289.269531 420.308594 L 348.199219 420.261719 Z M 348.152344 159.496094 " fill-opacity="1" fill-rule="evenodd"/></g><g clip-path="url(#99763a9755)"><path fill="#000000" d="M 84.976562 163.957031 L 26.09375 194.269531 L 26.136719 420.261719 L 85.101562 420.261719 Z M 84.976562 163.957031 " fill-opacity="1" fill-rule="evenodd"/></g><g clip-path="url(#567c6bc0bb)"><path fill="#000000" d="M 376.964844 298.816406 L 376.964844 420.261719 L 435.933594 420.261719 L 435.890625 331.121094 C 433.933594 330.792969 431.984375 330.375 430.019531 329.832031 L 429.980469 329.832031 C 409.914062 324.460938 391.570312 313.515625 376.964844 298.816406 Z M 376.964844 298.816406 " fill-opacity="1" fill-rule="evenodd"/></g><path fill="#000000" d="M 460.140625 155.132812 C 465.800781 155.042969 471.464844 155.804688 476.953125 157.25 C 510.328125 166.203125 530.144531 200.554688 521.195312 233.992188 C 512.246094 267.375 477.914062 287.242188 444.488281 278.289062 C 411.121094 269.292969 391.265625 234.9375 400.214844 201.550781 C 404.585938 185.1875 415.40625 171.28125 430.1875 163.03125 C 439.335938 157.921875 449.660156 155.210938 460.140625 155.132812 Z M 464.226562 122.492188 C 461.851562 122.402344 459.488281 122.402344 457.066406 122.53125 C 442.085938 123.066406 427.4375 127.144531 414.324219 134.484375 C 391.816406 147.007812 375.375 168.160156 368.675781 193.0625 C 355.070312 243.9375 385.242188 296.226562 436.089844 309.847656 C 453.445312 314.429688 471.761719 314.003906 488.898438 308.671875 L 490.816406 312.46875 C 495.859375 323.5 509.042969 326.378906 519.742188 320.175781 C 530.441406 314.003906 534.5625 301.109375 527.5625 291.238281 L 525.3125 287.816406 C 538.550781 275.578125 548.074219 259.835938 552.789062 242.441406 C 566.398438 191.601562 536.226562 139.3125 485.40625 125.691406 C 478.457031 123.828125 471.382812 122.738281 464.226562 122.492188 Z M 464.226562 122.492188 " fill-opacity="1" fill-rule="nonzero"/><path fill="#000000" d="M 535.140625 319.464844 C 532.144531 322.628906 528.484375 325.539062 524.242188 328 C 519.988281 330.457031 515.667969 332.167969 511.382812 333.15625 L 533.4375 381.625 C 539.4375 393.832031 551.167969 393.617188 559.453125 388.828125 C 567.730469 384.039062 573.804688 373.960938 566.269531 362.726562 Z M 535.140625 319.464844 " fill-opacity="1" fill-rule="nonzero"/><g clip-path="url(#8e023337ba)"><path fill="#000000" d="M 274.792969 106.335938 C 284.949219 106.335938 292.976562 114.328125 292.976562 124.492188 C 292.976562 134.652344 284.949219 142.644531 274.792969 142.644531 C 264.636719 142.644531 256.605469 134.652344 256.605469 124.492188 C 256.605469 114.328125 264.636719 106.335938 274.792969 106.335938 Z M 40.238281 106.335938 C 50.394531 106.335938 58.421875 114.328125 58.421875 124.492188 C 58.421875 134.652344 50.394531 142.644531 40.238281 142.644531 C 30.082031 142.644531 22.050781 134.652344 22.050781 124.492188 C 22.050781 114.328125 30.089844 106.335938 40.238281 106.335938 Z M 421.742188 39.84375 C 431.898438 39.84375 439.886719 47.875 439.886719 58.035156 C 439.886719 68.148438 431.898438 76.191406 421.742188 76.191406 C 411.585938 76.191406 403.554688 68.15625 403.554688 58.035156 C 403.554688 47.882812 411.585938 39.84375 421.742188 39.84375 Z M 167.425781 39.84375 C 177.582031 39.84375 185.574219 47.875 185.574219 58.035156 C 185.574219 68.148438 177.582031 76.191406 167.425781 76.191406 C 157.269531 76.191406 149.242188 68.15625 149.242188 58.035156 C 149.242188 47.882812 157.269531 39.84375 167.425781 39.84375 Z M 167.425781 19.984375 C 146.53125 19.984375 129.304688 37.09375 129.304688 58.035156 C 129.304688 59.285156 129.554688 60.53125 129.679688 61.777344 L 64.382812 95.425781 C 57.808594 89.925781 49.433594 86.429688 40.246094 86.429688 C 19.351562 86.429688 2.171875 103.578125 2.171875 124.480469 C 2.171875 145.386719 19.359375 162.574219 40.246094 162.574219 C 61.132812 162.574219 78.246094 145.378906 78.246094 124.480469 C 78.246094 120.03125 77.328125 115.824219 75.914062 111.828125 L 136.871094 80.46875 C 143.871094 89.875 154.9375 96.128906 167.425781 96.128906 C 179.949219 96.128906 191.054688 89.835938 198.011719 80.355469 L 241.503906 106.582031 C 238.589844 111.949219 236.75 117.992188 236.75 124.480469 C 236.75 145.386719 253.90625 162.574219 274.792969 162.574219 C 295.679688 162.574219 312.867188 145.378906 312.867188 124.480469 C 312.867188 123.820312 312.699219 123.195312 312.699219 122.53125 L 392.144531 81.601562 C 399.144531 90.339844 409.753906 96.128906 421.742188 96.128906 C 442.636719 96.128906 459.816406 78.933594 459.816406 58.035156 C 459.816406 37.09375 442.628906 19.984375 421.742188 19.984375 C 400.847656 19.984375 383.699219 37.09375 383.699219 58.035156 C 383.699219 59.828125 384.042969 61.578125 384.28125 63.320312 L 306.425781 103.417969 C 299.554688 93.21875 287.894531 86.429688 274.792969 86.429688 C 267.761719 86.429688 261.214844 88.507812 255.558594 91.890625 L 205.085938 61.363281 C 205.171875 60.242188 205.414062 59.15625 205.414062 58.035156 C 205.414062 37.09375 188.3125 19.984375 167.425781 19.984375 Z M 167.425781 19.984375 " fill-opacity="1" fill-rule="evenodd"/></g></svg>