<svg xmlns="http://www.w3.org/2000/svg" xmlns:xlink="http://www.w3.org/1999/xlink" width="768" zoomAndPan="magnify" viewBox="0 0 576 503.999982" height="672" preserveAspectRatio="xMidYMid meet" version="1.0"><defs><clipPath id="f4a1365580"><path d="M 192 421 L 253 421 L 253 440.433594 L 192 440.433594 Z M 192 421 " clip-rule="nonzero"/></clipPath><clipPath id="2e5c02b369"><path d="M 265 421 L 300 421 L 300 440.433594 L 265 440.433594 Z M 265 421 " clip-rule="nonzero"/></clipPath><clipPath id="75566edfa9"><path d="M 315 421 L 455 421 L 455 440.433594 L 315 440.433594 Z M 315 421 " clip-rule="nonzero"/></clipPath></defs><path fill="#000000" d="M 564.378906 382.160156 L 509.222656 382.160156 L 509.222656 174.464844 C 509.222656 169.320312 505.046875 165.148438 499.898438 165.148438 L 460.554688 165.148438 C 455.40625 165.148438 451.234375 169.320312 451.234375 174.464844 L 451.234375 382.160156 L 429.4375 382.160156 L 429.4375 265.296875 C 429.4375 260.152344 425.261719 255.980469 420.117188 255.980469 L 380.773438 255.980469 C 375.621094 255.980469 371.449219 260.152344 371.449219 265.296875 L 371.449219 382.160156 L 349.65625 382.160156 L 349.65625 212.976562 C 349.65625 207.828125 345.480469 203.65625 340.332031 203.65625 L 300.988281 203.65625 C 295.839844 203.65625 291.667969 207.828125 291.667969 212.976562 L 291.667969 382.160156 L 269.871094 382.160156 L 269.871094 301.71875 C 269.871094 296.574219 265.695312 292.402344 260.550781 292.402344 L 221.203125 292.402344 C 216.054688 292.402344 211.882812 296.574219 211.882812 301.71875 L 211.882812 382.160156 L 180.578125 382.160156 C 187.863281 368.644531 192.007812 353.191406 192.007812 336.789062 C 192.007812 288.082031 155.507812 247.757812 108.417969 241.644531 L 108.417969 45.714844 C 108.417969 39.285156 103.199219 34.070312 96.765625 34.070312 C 90.328125 34.070312 85.109375 39.285156 85.109375 45.714844 L 85.109375 241.449219 C 37.273438 246.867188 -0.0273438 287.546875 -0.0273438 336.789062 C -0.0273438 389.710938 43.042969 432.765625 95.988281 432.765625 C 122.027344 432.765625 145.664062 422.335938 162.976562 405.457031 L 564.378906 405.457031 C 570.816406 405.457031 576.03125 400.242188 576.03125 393.808594 C 576.03125 387.375 570.8125 382.160156 564.378906 382.160156 Z M 469.878906 183.78125 L 490.578125 183.78125 L 490.578125 382.160156 L 469.878906 382.160156 Z M 390.09375 274.613281 L 410.792969 274.613281 L 410.792969 382.160156 L 390.09375 382.160156 Z M 310.308594 222.292969 L 331.007812 222.292969 L 331.007812 382.160156 L 310.308594 382.160156 Z M 230.523438 311.035156 L 251.222656 311.035156 L 251.222656 382.160156 L 230.523438 382.160156 Z M 75.589844 376.40625 C 71.648438 374.078125 68.441406 370.972656 65.976562 367.089844 C 63.507812 363.207031 62.277344 359.429688 62.277344 355.761719 C 62.277344 353.632812 63.015625 351.808594 64.496094 350.289062 C 65.976562 348.773438 67.859375 348.015625 70.148438 348.015625 C 72.003906 348.015625 73.570312 348.605469 74.851562 349.789062 C 76.132812 350.972656 77.230469 352.726562 78.136719 355.050781 C 79.238281 357.8125 80.433594 360.117188 81.714844 361.972656 C 82.996094 363.824219 84.804688 365.355469 87.128906 366.558594 C 89.457031 367.761719 92.515625 368.359375 96.300781 368.359375 C 101.507812 368.359375 105.738281 367.148438 108.996094 364.722656 C 112.25 362.296875 113.875 359.273438 113.875 355.644531 C 113.875 352.765625 113 350.429688 111.242188 348.632812 C 109.488281 346.84375 107.21875 345.472656 104.4375 344.523438 C 101.660156 343.578125 97.941406 342.574219 93.285156 341.507812 C 87.050781 340.046875 81.832031 338.34375 77.632812 336.390625 C 73.429688 334.4375 70.097656 331.777344 67.632812 328.40625 C 65.164062 325.035156 63.933594 320.847656 63.933594 315.839844 C 63.933594 311.066406 65.234375 306.828125 67.839844 303.121094 C 70.441406 299.414062 74.210938 296.566406 79.140625 294.574219 C 82.386719 293.265625 86.015625 292.394531 90.011719 291.945312 L 90.011719 284.605469 C 90.011719 280.898438 93.042969 277.871094 96.746094 277.871094 C 100.453125 277.871094 103.480469 280.898438 103.480469 284.605469 L 103.480469 292.03125 C 105.972656 292.359375 108.277344 292.863281 110.355469 293.570312 C 114.242188 294.890625 117.46875 296.644531 120.03125 298.832031 C 122.59375 301.019531 124.46875 303.316406 125.652344 305.722656 C 126.835938 308.128906 127.425781 310.472656 127.425781 312.761719 C 127.425781 314.851562 126.683594 316.738281 125.207031 318.410156 C 123.726562 320.085938 121.882812 320.925781 119.675781 320.925781 C 117.664062 320.925781 116.132812 320.421875 115.089844 319.414062 C 114.042969 318.410156 112.910156 316.765625 111.6875 314.476562 C 110.105469 311.203125 108.214844 308.648438 106.003906 306.816406 C 103.796875 304.984375 100.246094 304.066406 95.355469 304.066406 C 90.816406 304.066406 87.160156 305.0625 84.378906 307.054688 C 81.59375 309.046875 80.207031 311.441406 80.207031 314.242188 C 80.207031 315.976562 80.679688 317.472656 81.625 318.734375 C 82.570312 319.996094 83.875 321.082031 85.53125 321.988281 C 87.1875 322.894531 88.863281 323.605469 90.558594 324.117188 C 92.257812 324.628906 95.058594 325.378906 98.964844 326.367188 C 103.855469 327.507812 108.28125 328.769531 112.246094 330.152344 C 116.214844 331.53125 119.585938 333.207031 122.367188 335.179688 C 125.148438 337.152344 127.316406 339.644531 128.875 342.660156 C 130.433594 345.675781 131.210938 349.375 131.210938 353.75 C 131.210938 358.996094 129.859375 363.707031 127.160156 367.886719 C 124.457031 372.066406 120.503906 375.339844 115.292969 377.707031 C 111.785156 379.300781 107.832031 380.34375 103.449219 380.863281 C 103.453125 380.960938 103.476562 381.050781 103.476562 381.148438 L 103.476562 388.648438 C 103.476562 392.351562 100.449219 395.382812 96.742188 395.382812 C 93.039062 395.382812 90.007812 392.351562 90.007812 388.648438 L 90.007812 381.148438 C 90.007812 381.054688 90.03125 380.964844 90.035156 380.871094 C 84.441406 380.226562 79.621094 378.746094 75.589844 376.40625 Z M 75.589844 376.40625 " fill-opacity="1" fill-rule="nonzero"/><path fill="#000000" d="M 183.457031 239.589844 C 186.4375 239.589844 189.421875 238.449219 191.695312 236.179688 L 306.910156 121.015625 L 367.253906 181.335938 C 369.4375 183.519531 372.402344 184.746094 375.492188 184.746094 C 378.582031 184.746094 381.546875 183.519531 383.730469 181.335938 L 476.433594 88.671875 L 490.910156 103.144531 C 492.386719 104.621094 494.371094 105.417969 496.402344 105.417969 C 497.136719 105.417969 497.878906 105.316406 498.601562 105.101562 C 501.332031 104.296875 503.398438 102.0625 503.996094 99.28125 L 516.550781 40.714844 C 517.101562 38.140625 516.3125 35.460938 514.449219 33.597656 C 512.585938 31.734375 509.90625 30.945312 507.328125 31.496094 L 448.738281 44.046875 C 445.957031 44.640625 443.722656 46.710938 442.917969 49.4375 C 442.109375 52.167969 442.859375 55.117188 444.875 57.128906 L 459.953125 72.199219 L 375.492188 156.628906 L 315.144531 96.308594 C 310.59375 91.757812 303.21875 91.757812 298.664062 96.308594 L 175.214844 219.707031 C 170.667969 224.253906 170.667969 231.628906 175.214844 236.175781 C 177.492188 238.453125 180.476562 239.589844 183.457031 239.589844 Z M 183.457031 239.589844 " fill-opacity="1" fill-rule="nonzero"/><g clip-path="url(#f4a1365580)"><path fill="#000000" d="M 243.414062 421.65625 L 201.660156 421.65625 C 196.511719 421.65625 192.339844 425.828125 192.339844 430.972656 C 192.339844 436.121094 196.515625 440.289062 201.660156 440.289062 L 243.414062 440.289062 C 248.5625 440.289062 252.734375 436.117188 252.734375 430.972656 C 252.734375 425.828125 248.5625 421.65625 243.414062 421.65625 Z M 243.414062 421.65625 " fill-opacity="1" fill-rule="nonzero"/></g><g clip-path="url(#2e5c02b369)"><path fill="#000000" d="M 290.65625 421.65625 L 275.296875 421.65625 C 270.148438 421.65625 265.972656 425.828125 265.972656 430.972656 C 265.972656 436.121094 270.148438 440.289062 275.296875 440.289062 L 290.65625 440.289062 C 295.804688 440.289062 299.980469 436.117188 299.980469 430.972656 C 299.980469 425.828125 295.804688 421.65625 290.65625 421.65625 Z M 290.65625 421.65625 " fill-opacity="1" fill-rule="nonzero"/></g><g clip-path="url(#75566edfa9)"><path fill="#000000" d="M 444.707031 421.65625 L 324.332031 421.65625 C 319.183594 421.65625 315.011719 425.828125 315.011719 430.972656 C 315.011719 436.121094 319.1875 440.289062 324.332031 440.289062 L 444.707031 440.289062 C 449.855469 440.289062 454.027344 436.117188 454.027344 430.972656 C 454.027344 425.828125 449.855469 421.65625 444.707031 421.65625 Z M 444.707031 421.65625 " fill-opacity="1" fill-rule="nonzero"/></g></svg>