<svg xmlns="http://www.w3.org/2000/svg" xmlns:xlink="http://www.w3.org/1999/xlink" width="500" zoomAndPan="magnify" viewBox="0 0 375 374.999991" height="500" preserveAspectRatio="xMidYMid meet" version="1.0"><defs><clipPath id="41dc27e5a9"><path d="M 9.761719 9.761719 L 365.261719 9.761719 L 365.261719 365.261719 L 9.761719 365.261719 Z M 9.761719 9.761719 " clip-rule="nonzero"/></clipPath></defs><g clip-path="url(#41dc27e5a9)"><path fill="#ff0000" d="M 365.226562 187.496094 C 365.226562 190.40625 365.15625 193.3125 365.015625 196.21875 C 364.871094 199.121094 364.65625 202.023438 364.371094 204.917969 C 364.085938 207.8125 363.730469 210.699219 363.304688 213.574219 C 362.878906 216.453125 362.378906 219.316406 361.8125 222.167969 C 361.246094 225.023438 360.609375 227.859375 359.902344 230.679688 C 359.195312 233.503906 358.417969 236.304688 357.574219 239.089844 C 356.730469 241.871094 355.820312 244.632812 354.839844 247.371094 C 353.859375 250.109375 352.8125 252.824219 351.699219 255.511719 C 350.585938 258.199219 349.40625 260.855469 348.164062 263.488281 C 346.921875 266.117188 345.613281 268.714844 344.242188 271.277344 C 342.871094 273.84375 341.4375 276.375 339.941406 278.867188 C 338.445312 281.363281 336.890625 283.820312 335.273438 286.238281 C 333.660156 288.65625 331.984375 291.035156 330.253906 293.371094 C 328.519531 295.707031 326.730469 298 324.886719 300.25 C 323.039062 302.496094 321.140625 304.699219 319.1875 306.855469 C 317.234375 309.007812 315.230469 311.113281 313.171875 313.171875 C 311.113281 315.230469 309.007812 317.234375 306.855469 319.1875 C 304.699219 321.140625 302.496094 323.039062 300.25 324.886719 C 298 326.730469 295.707031 328.519531 293.371094 330.253906 C 291.035156 331.984375 288.65625 333.660156 286.238281 335.273438 C 283.820312 336.890625 281.363281 338.445312 278.867188 339.941406 C 276.375 341.4375 273.84375 342.871094 271.277344 344.242188 C 268.714844 345.613281 266.117188 346.921875 263.488281 348.164062 C 260.855469 349.40625 258.199219 350.585938 255.511719 351.699219 C 252.824219 352.8125 250.109375 353.859375 247.371094 354.839844 C 244.632812 355.820312 241.871094 356.730469 239.089844 357.574219 C 236.304688 358.417969 233.503906 359.195312 230.679688 359.902344 C 227.859375 360.609375 225.023438 361.246094 222.167969 361.8125 C 219.316406 362.378906 216.453125 362.878906 213.574219 363.304688 C 210.699219 363.730469 207.8125 364.085938 204.917969 364.371094 C 202.023438 364.65625 199.121094 364.871094 196.21875 365.015625 C 193.3125 365.15625 190.40625 365.226562 187.496094 365.226562 C 184.585938 365.226562 181.679688 365.15625 178.773438 365.015625 C 175.871094 364.871094 172.96875 364.65625 170.074219 364.371094 C 167.179688 364.085938 164.292969 363.730469 161.417969 363.304688 C 158.539062 362.878906 155.675781 362.378906 152.820312 361.8125 C 149.96875 361.246094 147.132812 360.609375 144.308594 359.902344 C 141.488281 359.195312 138.6875 358.417969 135.902344 357.574219 C 133.121094 356.730469 130.359375 355.820312 127.621094 354.839844 C 124.882812 353.859375 122.167969 352.8125 119.480469 351.699219 C 116.792969 350.585938 114.136719 349.40625 111.503906 348.164062 C 108.875 346.921875 106.277344 345.613281 103.714844 344.242188 C 101.148438 342.871094 98.617188 341.4375 96.125 339.941406 C 93.628906 338.445312 91.171875 336.890625 88.753906 335.273438 C 86.335938 333.660156 83.957031 331.984375 81.621094 330.253906 C 79.285156 328.519531 76.992188 326.730469 74.742188 324.886719 C 72.496094 323.039062 70.292969 321.140625 68.136719 319.1875 C 65.984375 317.234375 63.875 315.230469 61.820312 313.171875 C 59.761719 311.113281 57.757812 309.007812 55.804688 306.855469 C 53.851562 304.699219 51.953125 302.496094 50.105469 300.25 C 48.261719 298 46.472656 295.707031 44.738281 293.371094 C 43.007812 291.035156 41.332031 288.65625 39.71875 286.238281 C 38.101562 283.820312 36.546875 281.363281 35.050781 278.867188 C 33.554688 276.375 32.121094 273.84375 30.75 271.277344 C 29.378906 268.714844 28.070312 266.117188 26.828125 263.488281 C 25.585938 260.855469 24.40625 258.199219 23.292969 255.511719 C 22.179688 252.824219 21.132812 250.109375 20.152344 247.371094 C 19.171875 244.632812 18.261719 241.871094 17.417969 239.089844 C 16.574219 236.304688 15.796875 233.503906 15.089844 230.679688 C 14.382812 227.859375 13.746094 225.023438 13.179688 222.167969 C 12.609375 219.316406 12.113281 216.453125 11.6875 213.574219 C 11.261719 210.699219 10.90625 207.8125 10.621094 204.917969 C 10.335938 202.023438 10.121094 199.121094 9.976562 196.21875 C 9.835938 193.3125 9.761719 190.40625 9.761719 187.496094 C 9.761719 184.585938 9.835938 181.679688 9.976562 178.773438 C 10.121094 175.871094 10.335938 172.96875 10.621094 170.074219 C 10.90625 167.179688 11.261719 164.292969 11.6875 161.417969 C 12.113281 158.539062 12.609375 155.675781 13.179688 152.820312 C 13.746094 149.96875 14.382812 147.132812 15.089844 144.3125 C 15.796875 141.488281 16.574219 138.6875 17.417969 135.902344 C 18.261719 133.121094 19.171875 130.359375 20.152344 127.621094 C 21.132812 124.882812 22.179688 122.167969 23.292969 119.480469 C 24.40625 116.792969 25.585938 114.136719 26.828125 111.503906 C 28.070312 108.875 29.378906 106.277344 30.75 103.714844 C 32.121094 101.148438 33.554688 98.617188 35.050781 96.125 C 36.546875 93.628906 38.101562 91.171875 39.71875 88.753906 C 41.332031 86.335938 43.007812 83.957031 44.738281 81.621094 C 46.472656 79.285156 48.261719 76.992188 50.105469 74.742188 C 51.953125 72.496094 53.851562 70.292969 55.804688 68.136719 C 57.757812 65.984375 59.761719 63.878906 61.820312 61.820312 C 63.875 59.761719 65.984375 57.757812 68.136719 55.804688 C 70.292969 53.851562 72.496094 51.953125 74.742188 50.105469 C 76.992188 48.261719 79.285156 46.472656 81.621094 44.738281 C 83.957031 43.007812 86.335938 41.332031 88.753906 39.71875 C 91.171875 38.101562 93.628906 36.546875 96.125 35.050781 C 98.617188 33.554688 101.148438 32.121094 103.714844 30.75 C 106.277344 29.378906 108.875 28.070312 111.503906 26.828125 C 114.136719 25.585938 116.792969 24.40625 119.480469 23.292969 C 122.167969 22.179688 124.882812 21.132812 127.621094 20.152344 C 130.359375 19.171875 133.121094 18.261719 135.902344 17.417969 C 138.6875 16.574219 141.488281 15.796875 144.308594 15.089844 C 147.132812 14.382812 149.96875 13.746094 152.820312 13.179688 C 155.675781 12.609375 158.539062 12.113281 161.417969 11.6875 C 164.292969 11.261719 167.179688 10.90625 170.074219 10.621094 C 172.96875 10.335938 175.871094 10.121094 178.773438 9.976562 C 181.679688 9.835938 184.585938 9.761719 187.496094 9.761719 C 190.40625 9.761719 193.3125 9.835938 196.21875 9.976562 C 199.121094 10.121094 202.023438 10.335938 204.917969 10.621094 C 207.8125 10.90625 210.699219 11.261719 213.574219 11.6875 C 216.453125 12.113281 219.316406 12.609375 222.167969 13.179688 C 225.023438 13.746094 227.859375 14.382812 230.679688 15.089844 C 233.503906 15.796875 236.304688 16.574219 239.089844 17.417969 C 241.871094 18.261719 244.632812 19.171875 247.371094 20.152344 C 250.109375 21.132812 252.824219 22.179688 255.511719 23.292969 C 258.199219 24.40625 260.855469 25.585938 263.488281 26.828125 C 266.117188 28.070312 268.714844 29.378906 271.277344 30.75 C 273.84375 32.121094 276.375 33.554688 278.867188 35.050781 C 281.363281 36.546875 283.820312 38.101562 286.238281 39.71875 C 288.65625 41.332031 291.035156 43.007812 293.371094 44.738281 C 295.707031 46.472656 298 48.261719 300.25 50.105469 C 302.496094 51.953125 304.699219 53.851562 306.855469 55.804688 C 309.007812 57.757812 311.113281 59.761719 313.171875 61.820312 C 315.230469 63.878906 317.234375 65.984375 319.1875 68.136719 C 321.140625 70.292969 323.039062 72.496094 324.886719 74.742188 C 326.730469 76.992188 328.519531 79.285156 330.25 81.621094 C 331.984375 83.957031 333.660156 86.335938 335.273438 88.753906 C 336.890625 91.171875 338.445312 93.628906 339.941406 96.125 C 341.4375 98.617188 342.871094 101.148438 344.242188 103.714844 C 345.613281 106.277344 346.921875 108.875 348.164062 111.503906 C 349.40625 114.136719 350.585938 116.792969 351.699219 119.480469 C 352.8125 122.167969 353.859375 124.882812 354.839844 127.621094 C 355.820312 130.359375 356.730469 133.121094 357.574219 135.902344 C 358.417969 138.6875 359.195312 141.488281 359.902344 144.3125 C 360.609375 147.132812 361.246094 149.96875 361.8125 152.820312 C 362.378906 155.675781 362.878906 158.539062 363.304688 161.417969 C 363.730469 164.292969 364.085938 167.179688 364.371094 170.074219 C 364.65625 172.96875 364.871094 175.871094 365.015625 178.773438 C 365.15625 181.679688 365.226562 184.585938 365.226562 187.496094 Z M 365.226562 187.496094 " fill-opacity="1" fill-rule="nonzero"/></g><path fill="#ffffff" d="M 160.835938 107.515625 L 214.15625 107.515625 L 214.15625 267.476562 L 160.835938 267.476562 Z M 160.835938 107.515625 " fill-opacity="1" fill-rule="nonzero"/><path fill="#ffffff" d="M 107.515625 160.835938 L 267.476562 160.835938 L 267.476562 214.15625 L 107.515625 214.15625 Z M 107.515625 160.835938 " fill-opacity="1" fill-rule="nonzero"/></svg>