<svg xmlns="http://www.w3.org/2000/svg" xmlns:xlink="http://www.w3.org/1999/xlink" width="500" zoomAndPan="magnify" viewBox="0 0 375 374.999991" height="500" preserveAspectRatio="xMidYMid meet" version="1.0"><defs><clipPath id="36dc8805f7"><path d="M 8.4375 8.4375 L 366.1875 8.4375 L 366.1875 366.1875 L 8.4375 366.1875 Z M 8.4375 8.4375 " clip-rule="nonzero"/></clipPath></defs><g clip-path="url(#36dc8805f7)"><path fill="#00309a" d="M 366.1875 187.3125 C 366.1875 190.242188 366.117188 193.167969 365.972656 196.089844 C 365.828125 199.015625 365.613281 201.933594 365.328125 204.847656 C 365.039062 207.757812 364.679688 210.664062 364.25 213.558594 C 363.824219 216.457031 363.320312 219.339844 362.75 222.210938 C 362.179688 225.082031 361.539062 227.9375 360.828125 230.777344 C 360.117188 233.617188 359.335938 236.4375 358.484375 239.238281 C 357.636719 242.039062 356.71875 244.816406 355.730469 247.574219 C 354.746094 250.332031 353.691406 253.0625 352.570312 255.765625 C 351.453125 258.46875 350.265625 261.144531 349.015625 263.792969 C 347.761719 266.4375 346.445312 269.050781 345.066406 271.632812 C 343.6875 274.214844 342.242188 276.761719 340.738281 279.273438 C 339.234375 281.785156 337.667969 284.257812 336.042969 286.691406 C 334.414062 289.125 332.730469 291.515625 330.988281 293.867188 C 329.242188 296.21875 327.441406 298.527344 325.585938 300.789062 C 323.726562 303.054688 321.816406 305.269531 319.851562 307.4375 C 317.882812 309.605469 315.867188 311.726562 313.796875 313.796875 C 311.726562 315.867188 309.605469 317.882812 307.4375 319.851562 C 305.269531 321.816406 303.054688 323.726562 300.789062 325.585938 C 298.527344 327.441406 296.21875 329.242188 293.867188 330.988281 C 291.515625 332.730469 289.125 334.414062 286.691406 336.042969 C 284.257812 337.667969 281.785156 339.234375 279.273438 340.738281 C 276.761719 342.246094 274.214844 343.6875 271.632812 345.066406 C 269.050781 346.445312 266.4375 347.761719 263.792969 349.015625 C 261.144531 350.265625 258.46875 351.453125 255.765625 352.570312 C 253.0625 353.691406 250.332031 354.746094 247.574219 355.730469 C 244.816406 356.71875 242.039062 357.636719 239.238281 358.484375 C 236.4375 359.335938 233.617188 360.117188 230.777344 360.828125 C 227.9375 361.539062 225.082031 362.179688 222.210938 362.75 C 219.339844 363.320312 216.457031 363.824219 213.558594 364.25 C 210.664062 364.679688 207.757812 365.039062 204.847656 365.328125 C 201.933594 365.613281 199.015625 365.828125 196.089844 365.972656 C 193.167969 366.117188 190.242188 366.1875 187.3125 366.1875 C 184.386719 366.1875 181.460938 366.117188 178.535156 365.972656 C 175.613281 365.828125 172.695312 365.613281 169.78125 365.328125 C 166.867188 365.039062 163.960938 364.679688 161.066406 364.25 C 158.171875 363.824219 155.289062 363.320312 152.417969 362.75 C 149.546875 362.179688 146.691406 361.539062 143.851562 360.828125 C 141.011719 360.117188 138.191406 359.335938 135.386719 358.484375 C 132.585938 357.636719 129.808594 356.71875 127.050781 355.730469 C 124.296875 354.746094 121.566406 353.691406 118.859375 352.570312 C 116.15625 351.453125 113.480469 350.265625 110.835938 349.015625 C 108.1875 347.761719 105.574219 346.445312 102.992188 345.066406 C 100.410156 343.6875 97.863281 342.242188 95.351562 340.738281 C 92.84375 339.234375 90.371094 337.667969 87.933594 336.042969 C 85.5 334.414062 83.109375 332.730469 80.757812 330.988281 C 78.40625 329.242188 76.097656 327.441406 73.835938 325.585938 C 71.574219 323.726562 69.355469 321.816406 67.1875 319.851562 C 65.019531 317.882812 62.898438 315.867188 60.828125 313.796875 C 58.757812 311.726562 56.742188 309.605469 54.773438 307.4375 C 52.808594 305.269531 50.898438 303.054688 49.039062 300.789062 C 47.183594 298.527344 45.382812 296.21875 43.640625 293.867188 C 41.894531 291.515625 40.210938 289.125 38.582031 286.691406 C 36.957031 284.257812 35.390625 281.785156 33.886719 279.273438 C 32.382812 276.761719 30.9375 274.214844 29.558594 271.632812 C 28.179688 269.050781 26.863281 266.4375 25.613281 263.792969 C 24.359375 261.144531 23.175781 258.46875 22.054688 255.765625 C 20.933594 253.0625 19.878906 250.332031 18.894531 247.574219 C 17.90625 244.816406 16.988281 242.039062 16.140625 239.238281 C 15.289062 236.4375 14.511719 233.617188 13.796875 230.777344 C 13.085938 227.9375 12.445312 225.082031 11.875 222.210938 C 11.304688 219.339844 10.804688 216.457031 10.375 213.558594 C 9.945312 210.664062 9.585938 207.757812 9.300781 204.847656 C 9.011719 201.933594 8.796875 199.015625 8.652344 196.089844 C 8.511719 193.167969 8.4375 190.242188 8.4375 187.3125 C 8.4375 184.386719 8.511719 181.460938 8.652344 178.535156 C 8.796875 175.613281 9.011719 172.695312 9.300781 169.78125 C 9.585938 166.867188 9.945312 163.960938 10.375 161.066406 C 10.804688 158.171875 11.304688 155.289062 11.875 152.417969 C 12.445312 149.546875 13.085938 146.691406 13.796875 143.851562 C 14.511719 141.011719 15.289062 138.191406 16.140625 135.386719 C 16.988281 132.585938 17.90625 129.808594 18.894531 127.050781 C 19.878906 124.296875 20.933594 121.566406 22.054688 118.859375 C 23.175781 116.15625 24.359375 113.480469 25.613281 110.835938 C 26.863281 108.1875 28.179688 105.574219 29.558594 102.992188 C 30.9375 100.410156 32.382812 97.863281 33.886719 95.351562 C 35.390625 92.84375 36.957031 90.371094 38.582031 87.933594 C 40.210938 85.5 41.894531 83.109375 43.640625 80.757812 C 45.382812 78.40625 47.183594 76.097656 49.039062 73.835938 C 50.898438 71.574219 52.808594 69.355469 54.773438 67.1875 C 56.742188 65.019531 58.757812 62.898438 60.828125 60.828125 C 62.898438 58.757812 65.019531 56.742188 67.1875 54.773438 C 69.355469 52.808594 71.574219 50.898438 73.835938 49.039062 C 76.097656 47.183594 78.40625 45.382812 80.757812 43.640625 C 83.109375 41.894531 85.5 40.210938 87.933594 38.582031 C 90.371094 36.957031 92.84375 35.390625 95.351562 33.886719 C 97.863281 32.382812 100.410156 30.9375 102.992188 29.558594 C 105.574219 28.179688 108.1875 26.863281 110.835938 25.613281 C 113.480469 24.359375 116.15625 23.175781 118.859375 22.054688 C 121.566406 20.933594 124.296875 19.878906 127.050781 18.894531 C 129.808594 17.90625 132.585938 16.988281 135.386719 16.140625 C 138.191406 15.289062 141.011719 14.511719 143.851562 13.796875 C 146.691406 13.085938 149.546875 12.445312 152.417969 11.875 C 155.289062 11.304688 158.171875 10.804688 161.066406 10.375 C 163.960938 9.945312 166.867188 9.585938 169.78125 9.300781 C 172.695312 9.011719 175.613281 8.796875 178.535156 8.652344 C 181.460938 8.511719 184.386719 8.4375 187.3125 8.4375 C 190.242188 8.4375 193.167969 8.511719 196.089844 8.652344 C 199.015625 8.796875 201.933594 9.011719 204.847656 9.300781 C 207.757812 9.585938 210.664062 9.945312 213.558594 10.375 C 216.457031 10.804688 219.339844 11.304688 222.210938 11.875 C 225.082031 12.445312 227.9375 13.085938 230.777344 13.796875 C 233.617188 14.511719 236.4375 15.289062 239.238281 16.140625 C 242.039062 16.988281 244.816406 17.90625 247.574219 18.894531 C 250.332031 19.878906 253.0625 20.933594 255.765625 22.054688 C 258.46875 23.175781 261.144531 24.359375 263.792969 25.613281 C 266.4375 26.863281 269.050781 28.179688 271.632812 29.558594 C 274.214844 30.9375 276.761719 32.382812 279.273438 33.886719 C 281.785156 35.390625 284.257812 36.957031 286.691406 38.582031 C 289.125 40.210938 291.515625 41.894531 293.867188 43.640625 C 296.21875 45.382812 298.527344 47.183594 300.789062 49.039062 C 303.054688 50.898438 305.269531 52.808594 307.4375 54.773438 C 309.605469 56.742188 311.726562 58.757812 313.796875 60.828125 C 315.867188 62.898438 317.882812 65.019531 319.851562 67.1875 C 321.816406 69.355469 323.726562 71.574219 325.585938 73.835938 C 327.441406 76.097656 329.242188 78.40625 330.988281 80.757812 C 332.730469 83.109375 334.414062 85.5 336.042969 87.933594 C 337.667969 90.371094 339.234375 92.84375 340.738281 95.351562 C 342.246094 97.863281 343.6875 100.410156 345.066406 102.992188 C 346.445312 105.574219 347.761719 108.1875 349.015625 110.835938 C 350.265625 113.480469 351.453125 116.15625 352.570312 118.859375 C 353.691406 121.566406 354.746094 124.296875 355.730469 127.050781 C 356.71875 129.808594 357.636719 132.585938 358.484375 135.386719 C 359.335938 138.191406 360.117188 141.011719 360.828125 143.851562 C 361.539062 146.691406 362.179688 149.546875 362.75 152.417969 C 363.320312 155.289062 363.824219 158.171875 364.25 161.066406 C 364.679688 163.960938 365.039062 166.867188 365.328125 169.78125 C 365.613281 172.695312 365.828125 175.613281 365.972656 178.535156 C 366.117188 181.460938 366.1875 184.386719 366.1875 187.3125 Z M 366.1875 187.3125 " fill-opacity="1" fill-rule="nonzero"/></g><path fill="#fdcb00" d="M 187.3125 77.9375 L 190.464844 87.488281 L 200.527344 87.535156 L 192.417969 93.488281 L 195.480469 103.070312 L 187.3125 97.195312 L 179.148438 103.070312 L 182.214844 93.488281 L 174.097656 87.535156 L 184.160156 87.488281 Z M 187.3125 77.9375 " fill-opacity="1" fill-rule="nonzero"/><path fill="#fdcb00" d="M 139.960938 91.070312 L 143.113281 100.628906 L 153.175781 100.671875 L 145.058594 106.621094 L 148.125 116.207031 L 139.960938 110.328125 L 131.789062 116.207031 L 134.855469 106.621094 L 126.746094 100.671875 L 136.800781 100.628906 Z M 139.960938 91.070312 " fill-opacity="1" fill-rule="nonzero"/><path fill="#fdcb00" d="M 104.679688 124.679688 L 107.832031 134.234375 L 117.894531 134.28125 L 109.777344 140.230469 L 112.847656 149.816406 L 104.679688 143.9375 L 96.515625 149.816406 L 99.578125 140.230469 L 91.464844 134.28125 L 101.527344 134.234375 Z M 104.679688 124.679688 " fill-opacity="1" fill-rule="nonzero"/><path fill="#fdcb00" d="M 90.5 174.746094 L 93.652344 184.300781 L 103.714844 184.347656 L 95.605469 190.300781 L 98.671875 199.882812 L 90.5 194.003906 L 82.335938 199.882812 L 85.402344 190.300781 L 77.285156 184.347656 L 87.347656 184.300781 Z M 90.5 174.746094 " fill-opacity="1" fill-rule="nonzero"/><path fill="#fdcb00" d="M 106.351562 221.0625 L 109.503906 230.617188 L 119.566406 230.664062 L 111.449219 236.613281 L 114.515625 246.199219 L 106.351562 240.320312 L 98.179688 246.199219 L 101.246094 236.613281 L 93.136719 230.664062 L 103.195312 230.617188 Z M 106.351562 221.0625 " fill-opacity="1" fill-rule="nonzero"/><path fill="#fdcb00" d="M 138.289062 254.671875 L 141.441406 264.226562 L 151.503906 264.273438 L 143.386719 270.222656 L 146.453125 279.808594 L 138.289062 273.929688 L 130.121094 279.808594 L 133.183594 270.222656 L 125.074219 264.273438 L 135.136719 264.226562 Z M 138.289062 254.671875 " fill-opacity="1" fill-rule="nonzero"/><path fill="#fdcb00" d="M 187.3125 271.558594 L 190.464844 281.113281 L 200.527344 281.160156 L 192.417969 287.109375 L 195.480469 296.695312 L 187.3125 290.816406 L 179.148438 296.695312 L 182.214844 287.109375 L 174.097656 281.160156 L 184.160156 281.113281 Z M 187.3125 271.558594 " fill-opacity="1" fill-rule="nonzero"/><path fill="#fdcb00" d="M 236.34375 254.671875 L 239.496094 264.226562 L 249.554688 264.273438 L 241.441406 270.222656 L 244.507812 279.808594 L 236.34375 273.929688 L 228.171875 279.808594 L 231.238281 270.222656 L 223.128906 264.273438 L 233.183594 264.226562 Z M 236.34375 254.671875 " fill-opacity="1" fill-rule="nonzero"/><path fill="#fdcb00" d="M 268.28125 221.0625 L 271.433594 230.617188 L 281.492188 230.664062 L 273.378906 236.613281 L 276.445312 246.199219 L 268.28125 240.320312 L 260.113281 246.199219 L 263.175781 236.613281 L 255.066406 230.664062 L 265.128906 230.617188 Z M 268.28125 221.0625 " fill-opacity="1" fill-rule="nonzero"/><path fill="#fdcb00" d="M 284.125 174.746094 L 287.277344 184.300781 L 297.339844 184.347656 L 289.222656 190.300781 L 292.292969 199.882812 L 284.125 194.003906 L 275.960938 199.882812 L 279.023438 190.300781 L 270.910156 184.347656 L 280.972656 184.300781 Z M 284.125 174.746094 " fill-opacity="1" fill-rule="nonzero"/><path fill="#fdcb00" d="M 269.949219 124.679688 L 273.101562 134.234375 L 283.160156 134.28125 L 275.050781 140.230469 L 278.117188 149.816406 L 269.949219 143.9375 L 261.78125 149.816406 L 264.847656 140.230469 L 256.738281 134.28125 L 266.792969 134.234375 Z M 269.949219 124.679688 " fill-opacity="1" fill-rule="nonzero"/><path fill="#fdcb00" d="M 234.671875 91.070312 L 237.824219 100.628906 L 247.886719 100.671875 L 239.769531 106.621094 L 242.835938 116.207031 L 234.671875 110.328125 L 226.503906 116.207031 L 229.566406 106.621094 L 221.457031 100.671875 L 231.519531 100.628906 Z M 234.671875 91.070312 " fill-opacity="1" fill-rule="nonzero"/></svg>