<svg xmlns="http://www.w3.org/2000/svg" xmlns:xlink="http://www.w3.org/1999/xlink" width="500" zoomAndPan="magnify" viewBox="0 0 375 374.999991" height="500" preserveAspectRatio="xMidYMid meet" version="1.0"><defs><clipPath id="b43b0af364"><path d="M 13.320312 13.320312 L 361.320312 13.320312 L 361.320312 361.320312 L 13.320312 361.320312 Z M 13.320312 13.320312 " clip-rule="nonzero"/></clipPath><clipPath id="796fd79ef0"><path d="M 18 13.320312 L 361.320312 13.320312 L 361.320312 361.320312 L 18 361.320312 Z M 18 13.320312 " clip-rule="nonzero"/></clipPath><clipPath id="24e5939f37"><path d="M 13.320312 13.320312 L 188 13.320312 L 188 201 L 13.320312 201 Z M 13.320312 13.320312 " clip-rule="nonzero"/></clipPath></defs><g clip-path="url(#b43b0af364)"><path fill="#ffffff" d="M 361.671875 187.496094 C 361.671875 283.695312 283.695312 361.671875 187.496094 361.671875 C 91.300781 361.671875 13.320312 283.695312 13.320312 187.496094 C 13.320312 91.300781 91.300781 13.320312 187.496094 13.320312 C 283.695312 13.320312 361.671875 91.300781 361.671875 187.496094 Z M 361.671875 187.496094 " fill-opacity="1" fill-rule="evenodd"/></g><g clip-path="url(#796fd79ef0)"><path fill="#e53935" d="M 279.308594 39.441406 L 187.496094 39.441406 L 187.496094 13.320312 C 221.175781 13.320312 252.625 22.882812 279.308594 39.441406 Z M 313.289062 67.03125 C 320.964844 75.046875 327.878906 83.777344 333.929688 93.152344 L 187.496094 93.152344 L 187.496094 67.03125 Z M 348.40625 120.746094 C 351.921875 129.136719 354.753906 137.867188 356.910156 146.863281 L 187.496094 146.863281 L 187.496094 120.746094 Z M 361.179688 174.417969 C 361.519531 178.726562 361.671875 183.113281 361.671875 187.496094 C 361.671875 191.882812 361.519531 196.226562 361.179688 200.574219 L 187.496094 200.574219 L 187.496094 174.417969 Z M 18.082031 228.128906 L 356.910156 228.128906 C 354.753906 237.125 351.921875 245.859375 348.40625 254.25 L 26.589844 254.25 C 23.074219 245.859375 20.238281 237.125 18.082031 228.128906 Z M 41.066406 281.84375 L 333.929688 281.84375 C 327.878906 291.214844 320.964844 299.949219 313.289062 307.960938 L 61.703125 307.960938 C 54.03125 299.949219 47.113281 291.214844 41.066406 281.84375 Z M 95.683594 335.554688 L 279.308594 335.554688 C 252.773438 352.035156 221.515625 361.558594 187.988281 361.671875 L 187.003906 361.671875 C 153.476562 361.558594 122.21875 352.035156 95.683594 335.554688 Z M 95.683594 335.554688 " fill-opacity="1" fill-rule="evenodd"/></g><g clip-path="url(#24e5939f37)"><path fill="#227fbb" d="M 187.496094 13.320312 L 187.496094 200.574219 L 13.8125 200.574219 C 13.472656 196.265625 13.320312 191.882812 13.320312 187.496094 C 13.320312 91.300781 91.300781 13.320312 187.496094 13.320312 Z M 187.496094 13.320312 " fill-opacity="1" fill-rule="evenodd"/></g><path fill="#ffffff" d="M 151.210938 53.238281 L 146.9375 55.464844 L 147.769531 50.742188 L 144.292969 47.378906 L 149.09375 46.660156 L 151.210938 42.351562 L 153.328125 46.660156 L 158.128906 47.378906 L 154.648438 50.742188 L 155.480469 55.464844 Z M 151.210938 53.238281 " fill-opacity="1" fill-rule="evenodd"/><path fill="#ffffff" d="M 122.179688 53.238281 L 117.910156 55.464844 L 118.742188 50.742188 L 115.265625 47.378906 L 120.0625 46.660156 L 122.179688 42.351562 L 124.296875 46.660156 L 129.097656 47.378906 L 125.621094 50.742188 L 126.453125 55.464844 Z M 122.179688 53.238281 " fill-opacity="1" fill-rule="evenodd"/><path fill="#ffffff" d="M 165.726562 31.464844 L 161.453125 33.695312 L 162.285156 28.96875 L 158.808594 25.605469 L 163.609375 24.886719 L 165.726562 20.578125 L 167.839844 24.886719 L 172.640625 25.605469 L 169.164062 28.96875 L 169.996094 33.695312 Z M 165.726562 31.464844 " fill-opacity="1" fill-rule="evenodd"/><path fill="#ffffff" d="M 78.636719 75.007812 L 74.367188 77.238281 L 75.199219 72.511719 L 71.71875 69.148438 L 76.519531 68.429688 L 78.636719 64.121094 L 80.753906 68.429688 L 85.554688 69.148438 L 82.078125 72.511719 L 82.910156 77.238281 Z M 78.636719 75.007812 " fill-opacity="1" fill-rule="evenodd"/><path fill="#ffffff" d="M 107.667969 75.007812 L 103.394531 77.238281 L 104.226562 72.511719 L 100.75 69.148438 L 105.550781 68.429688 L 107.667969 64.121094 L 109.78125 68.429688 L 114.582031 69.148438 L 111.105469 72.511719 L 111.9375 77.238281 Z M 107.667969 75.007812 " fill-opacity="1" fill-rule="evenodd"/><path fill="#ffffff" d="M 136.695312 75.007812 L 132.425781 77.238281 L 133.257812 72.511719 L 129.777344 69.148438 L 134.578125 68.429688 L 136.695312 64.121094 L 138.8125 68.429688 L 143.613281 69.148438 L 140.136719 72.511719 L 140.96875 77.238281 Z M 136.695312 75.007812 " fill-opacity="1" fill-rule="evenodd"/><path fill="#ffffff" d="M 136.695312 75.007812 L 132.425781 77.238281 L 133.257812 72.511719 L 129.777344 69.148438 L 134.578125 68.429688 L 136.695312 64.121094 L 138.8125 68.429688 L 143.613281 69.148438 L 140.136719 72.511719 L 140.96875 77.238281 Z M 136.695312 75.007812 " fill-opacity="1" fill-rule="evenodd"/><path fill="#ffffff" d="M 151.210938 96.78125 L 146.9375 99.011719 L 147.769531 94.285156 L 144.292969 90.921875 L 149.09375 90.203125 L 151.210938 85.894531 L 153.328125 90.203125 L 158.128906 90.921875 L 154.648438 94.285156 L 155.480469 99.011719 Z M 151.210938 96.78125 " fill-opacity="1" fill-rule="evenodd"/><path fill="#ffffff" d="M 64.121094 96.78125 L 59.851562 99.011719 L 60.683594 94.285156 L 57.207031 90.921875 L 62.003906 90.203125 L 64.121094 85.894531 L 66.238281 90.203125 L 71.039062 90.921875 L 67.5625 94.285156 L 68.394531 99.011719 Z M 64.121094 96.78125 " fill-opacity="1" fill-rule="evenodd"/><path fill="#ffffff" d="M 93.152344 96.78125 L 88.878906 99.011719 L 89.710938 94.285156 L 86.234375 90.921875 L 91.035156 90.203125 L 93.152344 85.894531 L 95.269531 90.203125 L 100.070312 90.921875 L 96.589844 94.285156 L 97.421875 99.011719 Z M 93.152344 96.78125 " fill-opacity="1" fill-rule="evenodd"/><path fill="#ffffff" d="M 122.179688 96.78125 L 117.910156 99.011719 L 118.742188 94.285156 L 115.265625 90.921875 L 120.0625 90.203125 L 122.179688 85.894531 L 124.296875 90.203125 L 129.097656 90.921875 L 125.621094 94.285156 L 126.453125 99.011719 Z M 122.179688 96.78125 " fill-opacity="1" fill-rule="evenodd"/><path fill="#ffffff" d="M 165.726562 75.007812 L 161.453125 77.238281 L 162.285156 72.511719 L 158.808594 69.148438 L 163.609375 68.429688 L 165.726562 64.121094 L 167.839844 68.429688 L 172.640625 69.148438 L 169.164062 72.511719 L 169.996094 77.238281 Z M 165.726562 75.007812 " fill-opacity="1" fill-rule="evenodd"/><path fill="#ffffff" d="M 49.609375 118.550781 L 45.335938 120.78125 L 46.167969 116.058594 L 42.691406 112.695312 L 47.492188 111.976562 L 49.609375 107.667969 L 51.722656 111.976562 L 56.523438 112.695312 L 53.046875 116.058594 L 53.878906 120.78125 Z M 49.609375 118.550781 " fill-opacity="1" fill-rule="evenodd"/><path fill="#ffffff" d="M 78.636719 118.550781 L 74.367188 120.78125 L 75.199219 116.058594 L 71.71875 112.695312 L 76.519531 111.976562 L 78.636719 107.667969 L 80.753906 111.976562 L 85.554688 112.695312 L 82.078125 116.058594 L 82.910156 120.78125 Z M 78.636719 118.550781 " fill-opacity="1" fill-rule="evenodd"/><path fill="#ffffff" d="M 107.667969 118.550781 L 103.394531 120.78125 L 104.226562 116.058594 L 100.75 112.695312 L 105.550781 111.976562 L 107.667969 107.667969 L 109.78125 111.976562 L 114.582031 112.695312 L 111.105469 116.058594 L 111.9375 120.78125 Z M 107.667969 118.550781 " fill-opacity="1" fill-rule="evenodd"/><path fill="#ffffff" d="M 136.695312 118.550781 L 132.425781 120.78125 L 133.257812 116.058594 L 129.777344 112.695312 L 134.578125 111.976562 L 136.695312 107.667969 L 138.8125 111.976562 L 143.613281 112.695312 L 140.136719 116.058594 L 140.96875 120.78125 Z M 136.695312 118.550781 " fill-opacity="1" fill-rule="evenodd"/><path fill="#ffffff" d="M 136.695312 118.550781 L 132.425781 120.78125 L 133.257812 116.058594 L 129.777344 112.695312 L 134.578125 111.976562 L 136.695312 107.667969 L 138.8125 111.976562 L 143.613281 112.695312 L 140.136719 116.058594 L 140.96875 120.78125 Z M 136.695312 118.550781 " fill-opacity="1" fill-rule="evenodd"/><path fill="#ffffff" d="M 151.210938 140.324219 L 146.9375 142.554688 L 147.769531 137.828125 L 144.292969 134.464844 L 149.09375 133.746094 L 151.210938 129.4375 L 153.328125 133.746094 L 158.128906 134.464844 L 154.648438 137.828125 L 155.480469 142.554688 Z M 151.210938 140.324219 " fill-opacity="1" fill-rule="evenodd"/><path fill="#ffffff" d="M 35.09375 140.324219 L 30.820312 142.554688 L 31.652344 137.828125 L 28.175781 134.464844 L 32.976562 133.746094 L 35.09375 129.4375 L 37.210938 133.746094 L 42.011719 134.464844 L 38.53125 137.828125 L 39.363281 142.554688 Z M 35.09375 140.324219 " fill-opacity="1" fill-rule="evenodd"/><path fill="#ffffff" d="M 64.121094 140.324219 L 59.851562 142.554688 L 60.683594 137.828125 L 57.207031 134.464844 L 62.003906 133.746094 L 64.121094 129.4375 L 66.238281 133.746094 L 71.039062 134.464844 L 67.5625 137.828125 L 68.394531 142.554688 Z M 64.121094 140.324219 " fill-opacity="1" fill-rule="evenodd"/><path fill="#ffffff" d="M 93.152344 140.324219 L 88.878906 142.554688 L 89.710938 137.828125 L 86.234375 134.464844 L 91.035156 133.746094 L 93.152344 129.4375 L 95.269531 133.746094 L 100.070312 134.464844 L 96.589844 137.828125 L 97.421875 142.554688 Z M 93.152344 140.324219 " fill-opacity="1" fill-rule="evenodd"/><path fill="#ffffff" d="M 122.179688 140.324219 L 117.910156 142.554688 L 118.742188 137.828125 L 115.265625 134.464844 L 120.0625 133.746094 L 122.179688 129.4375 L 124.296875 133.746094 L 129.097656 134.464844 L 125.621094 137.828125 L 126.453125 142.554688 Z M 122.179688 140.324219 " fill-opacity="1" fill-rule="evenodd"/><path fill="#ffffff" d="M 165.726562 118.550781 L 161.453125 120.78125 L 162.285156 116.058594 L 158.808594 112.695312 L 163.609375 111.976562 L 165.726562 107.667969 L 167.839844 111.976562 L 172.640625 112.695312 L 169.164062 116.058594 L 169.996094 120.78125 Z M 165.726562 118.550781 " fill-opacity="1" fill-rule="evenodd"/><path fill="#ffffff" d="M 49.609375 162.097656 L 45.335938 164.328125 L 46.167969 159.601562 L 42.691406 156.238281 L 47.492188 155.519531 L 49.609375 151.210938 L 51.722656 155.519531 L 56.523438 156.238281 L 53.046875 159.601562 L 53.878906 164.328125 Z M 49.609375 162.097656 " fill-opacity="1" fill-rule="evenodd"/><path fill="#ffffff" d="M 78.636719 162.097656 L 74.367188 164.328125 L 75.199219 159.601562 L 71.71875 156.238281 L 76.519531 155.519531 L 78.636719 151.210938 L 80.753906 155.519531 L 85.554688 156.238281 L 82.078125 159.601562 L 82.910156 164.328125 Z M 78.636719 162.097656 " fill-opacity="1" fill-rule="evenodd"/><path fill="#ffffff" d="M 107.667969 162.097656 L 103.394531 164.328125 L 104.226562 159.601562 L 100.75 156.238281 L 105.550781 155.519531 L 107.667969 151.210938 L 109.78125 155.519531 L 114.582031 156.238281 L 111.105469 159.601562 L 111.9375 164.328125 Z M 107.667969 162.097656 " fill-opacity="1" fill-rule="evenodd"/><path fill="#ffffff" d="M 136.695312 162.097656 L 132.425781 164.328125 L 133.257812 159.601562 L 129.777344 156.238281 L 134.578125 155.519531 L 136.695312 151.210938 L 138.8125 155.519531 L 143.613281 156.238281 L 140.136719 159.601562 L 140.96875 164.328125 Z M 136.695312 162.097656 " fill-opacity="1" fill-rule="evenodd"/><path fill="#ffffff" d="M 136.695312 162.097656 L 132.425781 164.328125 L 133.257812 159.601562 L 129.777344 156.238281 L 134.578125 155.519531 L 136.695312 151.210938 L 138.8125 155.519531 L 143.613281 156.238281 L 140.136719 159.601562 L 140.96875 164.328125 Z M 136.695312 162.097656 " fill-opacity="1" fill-rule="evenodd"/><path fill="#ffffff" d="M 151.210938 183.867188 L 146.9375 186.097656 L 147.769531 181.375 L 144.292969 178.007812 L 149.09375 177.292969 L 151.210938 172.980469 L 153.328125 177.292969 L 158.128906 178.007812 L 154.648438 181.375 L 155.480469 186.097656 Z M 151.210938 183.867188 " fill-opacity="1" fill-rule="evenodd"/><path fill="#ffffff" d="M 35.09375 183.867188 L 30.820312 186.097656 L 31.652344 181.375 L 28.175781 178.007812 L 32.976562 177.292969 L 35.09375 172.980469 L 37.210938 177.292969 L 42.011719 178.007812 L 38.53125 181.375 L 39.363281 186.097656 Z M 35.09375 183.867188 " fill-opacity="1" fill-rule="evenodd"/><path fill="#ffffff" d="M 64.121094 183.867188 L 59.851562 186.097656 L 60.683594 181.375 L 57.207031 178.007812 L 62.003906 177.292969 L 64.121094 172.980469 L 66.238281 177.292969 L 71.039062 178.007812 L 67.5625 181.375 L 68.394531 186.097656 Z M 64.121094 183.867188 " fill-opacity="1" fill-rule="evenodd"/><path fill="#ffffff" d="M 93.152344 183.867188 L 88.878906 186.097656 L 89.710938 181.375 L 86.234375 178.007812 L 91.035156 177.292969 L 93.152344 172.980469 L 95.269531 177.292969 L 100.070312 178.007812 L 96.589844 181.375 L 97.421875 186.097656 Z M 93.152344 183.867188 " fill-opacity="1" fill-rule="evenodd"/><path fill="#ffffff" d="M 122.179688 183.867188 L 117.910156 186.097656 L 118.742188 181.375 L 115.265625 178.007812 L 120.0625 177.292969 L 122.179688 172.980469 L 124.296875 177.292969 L 129.097656 178.007812 L 125.621094 181.375 L 126.453125 186.097656 Z M 122.179688 183.867188 " fill-opacity="1" fill-rule="evenodd"/><path fill="#ffffff" d="M 165.726562 162.097656 L 161.453125 164.328125 L 162.285156 159.601562 L 158.808594 156.238281 L 163.609375 155.519531 L 165.726562 151.210938 L 167.839844 155.519531 L 172.640625 156.238281 L 169.164062 159.601562 L 169.996094 164.328125 Z M 165.726562 162.097656 " fill-opacity="1" fill-rule="evenodd"/></svg>