<svg xmlns="http://www.w3.org/2000/svg" xmlns:xlink="http://www.w3.org/1999/xlink" width="512" zoomAndPan="magnify" viewBox="0 0 384 383.999986" height="512" preserveAspectRatio="xMidYMid meet" version="1.0"><path fill="#38b6ff" d="M 286.519531 0 L 177.164062 0 C 176.671875 0 176.1875 0.046875 175.703125 0.144531 C 175.222656 0.238281 174.753906 0.382812 174.300781 0.570312 C 173.847656 0.757812 173.414062 0.988281 173.007812 1.261719 C 172.597656 1.535156 172.222656 1.84375 171.875 2.191406 C 171.527344 2.539062 171.21875 2.914062 170.945312 3.324219 C 170.671875 3.734375 170.441406 4.164062 170.253906 4.617188 C 170.066406 5.070312 169.921875 5.539062 169.828125 6.019531 C 169.730469 6.503906 169.683594 6.988281 169.683594 7.480469 C 169.683594 7.96875 169.730469 8.457031 169.828125 8.9375 C 169.921875 9.421875 170.066406 9.886719 170.253906 10.339844 C 170.441406 10.796875 170.671875 11.226562 170.945312 11.636719 C 171.21875 12.042969 171.527344 12.421875 171.875 12.769531 C 172.222656 13.117188 172.597656 13.425781 173.007812 13.699219 C 173.414062 13.972656 173.847656 14.203125 174.300781 14.390625 C 174.753906 14.578125 175.222656 14.71875 175.703125 14.816406 C 176.1875 14.910156 176.671875 14.960938 177.164062 14.960938 L 286.519531 14.960938 C 287.871094 14.960938 289.222656 14.996094 290.570312 15.0625 C 291.917969 15.132812 293.265625 15.230469 294.609375 15.367188 C 295.953125 15.5 297.292969 15.667969 298.628906 15.867188 C 299.964844 16.066406 301.296875 16.296875 302.621094 16.5625 C 303.945312 16.828125 305.261719 17.125 306.574219 17.453125 C 307.882812 17.78125 309.183594 18.144531 310.476562 18.535156 C 311.769531 18.929688 313.050781 19.355469 314.320312 19.808594 C 315.59375 20.265625 316.851562 20.753906 318.101562 21.269531 C 319.347656 21.789062 320.582031 22.335938 321.800781 22.914062 C 323.023438 23.492188 324.230469 24.101562 325.417969 24.738281 C 326.609375 25.375 327.785156 26.042969 328.941406 26.738281 C 330.101562 27.433594 331.242188 28.15625 332.363281 28.90625 C 333.488281 29.65625 334.589844 30.433594 335.675781 31.238281 C 336.761719 32.042969 337.824219 32.875 338.867188 33.734375 C 339.914062 34.589844 340.933594 35.472656 341.933594 36.378906 C 342.9375 37.285156 343.914062 38.21875 344.867188 39.171875 C 345.824219 40.128906 346.753906 41.105469 347.660156 42.105469 C 348.570312 43.109375 349.449219 44.128906 350.308594 45.175781 C 351.164062 46.21875 351.996094 47.285156 352.800781 48.367188 C 353.605469 49.453125 354.382812 50.558594 355.132812 51.679688 C 355.882812 52.804688 356.605469 53.945312 357.300781 55.101562 C 357.996094 56.261719 358.660156 57.433594 359.296875 58.625 C 359.933594 59.816406 360.542969 61.023438 361.121094 62.246094 C 361.699219 63.464844 362.246094 64.699219 362.761719 65.945312 C 363.28125 67.195312 363.765625 68.453125 364.222656 69.726562 C 364.679688 70.996094 365.101562 72.28125 365.496094 73.570312 C 365.886719 74.863281 366.25 76.164062 366.578125 77.476562 C 366.90625 78.785156 367.203125 80.101562 367.46875 81.425781 C 367.730469 82.753906 367.964844 84.082031 368.164062 85.417969 C 368.363281 86.753906 368.527344 88.09375 368.660156 89.4375 C 368.792969 90.78125 368.894531 92.128906 368.960938 93.476562 C 369.03125 94.828125 369.0625 96.175781 369.066406 97.527344 L 369.066406 286.519531 C 369.0625 287.871094 369.03125 289.222656 368.960938 290.570312 C 368.894531 291.917969 368.792969 293.265625 368.660156 294.609375 C 368.527344 295.953125 368.363281 297.292969 368.164062 298.628906 C 367.964844 299.964844 367.730469 301.296875 367.46875 302.621094 C 367.203125 303.945312 366.90625 305.261719 366.578125 306.574219 C 366.25 307.882812 365.886719 309.183594 365.496094 310.476562 C 365.101562 311.769531 364.679688 313.050781 364.222656 314.324219 C 363.765625 315.59375 363.28125 316.855469 362.761719 318.101562 C 362.246094 319.347656 361.699219 320.582031 361.121094 321.804688 C 360.542969 323.027344 359.933594 324.230469 359.296875 325.421875 C 358.660156 326.613281 357.996094 327.789062 357.300781 328.945312 C 356.605469 330.105469 355.882812 331.246094 355.132812 332.367188 C 354.382812 333.492188 353.605469 334.597656 352.800781 335.679688 C 351.996094 336.765625 351.164062 337.828125 350.308594 338.875 C 349.449219 339.917969 348.570312 340.941406 347.660156 341.941406 C 346.753906 342.941406 345.824219 343.921875 344.867188 344.875 C 343.914062 345.832031 342.9375 346.761719 341.933594 347.667969 C 340.933594 348.578125 339.914062 349.460938 338.867188 350.316406 C 337.824219 351.171875 336.761719 352.003906 335.675781 352.808594 C 334.589844 353.613281 333.488281 354.394531 332.363281 355.144531 C 331.242188 355.894531 330.101562 356.617188 328.945312 357.3125 C 327.785156 358.007812 326.609375 358.671875 325.417969 359.3125 C 324.230469 359.949219 323.023438 360.554688 321.800781 361.132812 C 320.582031 361.710938 319.347656 362.261719 318.101562 362.777344 C 316.851562 363.296875 315.59375 363.78125 314.320312 364.238281 C 313.050781 364.695312 311.769531 365.121094 310.476562 365.511719 C 309.183594 365.90625 307.882812 366.265625 306.574219 366.597656 C 305.261719 366.925781 303.945312 367.222656 302.621094 367.488281 C 301.296875 367.75 299.964844 367.984375 298.628906 368.183594 C 297.292969 368.382812 295.953125 368.550781 294.609375 368.683594 C 293.265625 368.816406 291.917969 368.917969 290.570312 368.984375 C 289.222656 369.054688 287.871094 369.089844 286.519531 369.089844 L 97.527344 369.089844 C 96.175781 369.089844 94.828125 369.054688 93.476562 368.988281 C 92.128906 368.917969 90.78125 368.820312 89.4375 368.683594 C 88.09375 368.550781 86.753906 368.386719 85.417969 368.1875 C 84.078125 367.988281 82.75 367.753906 81.425781 367.492188 C 80.101562 367.226562 78.78125 366.929688 77.472656 366.601562 C 76.160156 366.273438 74.859375 365.910156 73.566406 365.519531 C 72.273438 365.125 70.992188 364.699219 69.722656 364.246094 C 68.449219 363.789062 67.1875 363.300781 65.941406 362.785156 C 64.695312 362.265625 63.460938 361.71875 62.238281 361.140625 C 61.015625 360.5625 59.8125 359.957031 58.621094 359.320312 C 57.429688 358.679688 56.253906 358.015625 55.09375 357.320312 C 53.9375 356.625 52.796875 355.902344 51.671875 355.152344 C 50.550781 354.402344 49.445312 353.625 48.359375 352.816406 C 47.273438 352.011719 46.210938 351.183594 45.167969 350.324219 C 44.121094 349.46875 43.101562 348.585938 42.097656 347.679688 C 41.097656 346.769531 40.121094 345.839844 39.164062 344.882812 C 38.210938 343.929688 37.277344 342.949219 36.371094 341.949219 C 35.464844 340.949219 34.582031 339.925781 33.722656 338.882812 C 32.867188 337.839844 32.035156 336.773438 31.230469 335.6875 C 30.425781 334.605469 29.648438 333.5 28.898438 332.375 C 28.144531 331.253906 27.421875 330.113281 26.726562 328.953125 C 26.035156 327.796875 25.367188 326.621094 24.730469 325.429688 C 24.09375 324.238281 23.484375 323.03125 22.90625 321.8125 C 22.328125 320.589844 21.78125 319.355469 21.265625 318.109375 C 20.746094 316.859375 20.257812 315.601562 19.804688 314.328125 C 19.347656 313.054688 18.925781 311.773438 18.53125 310.480469 C 18.136719 309.1875 17.777344 307.886719 17.449219 306.578125 C 17.117188 305.265625 16.824219 303.949219 16.558594 302.625 C 16.292969 301.300781 16.0625 299.96875 15.863281 298.632812 C 15.664062 297.296875 15.496094 295.957031 15.363281 294.613281 C 15.230469 293.269531 15.128906 291.921875 15.0625 290.570312 C 14.996094 289.222656 14.960938 287.871094 14.960938 286.519531 L 14.960938 97.527344 C 14.960938 96.175781 14.996094 94.828125 15.0625 93.476562 C 15.128906 92.128906 15.230469 90.78125 15.363281 89.4375 C 15.496094 88.09375 15.664062 86.753906 15.863281 85.417969 C 16.0625 84.078125 16.292969 82.75 16.558594 81.425781 C 16.820312 80.101562 17.117188 78.78125 17.449219 77.472656 C 17.777344 76.160156 18.136719 74.859375 18.53125 73.566406 C 18.925781 72.273438 19.347656 70.992188 19.804688 69.722656 C 20.261719 68.449219 20.746094 67.1875 21.265625 65.941406 C 21.78125 64.695312 22.328125 63.460938 22.90625 62.238281 C 23.484375 61.015625 24.09375 59.8125 24.730469 58.621094 C 25.367188 57.429688 26.035156 56.253906 26.730469 55.09375 C 27.421875 53.9375 28.144531 52.796875 28.898438 51.671875 C 29.648438 50.550781 30.425781 49.445312 31.230469 48.359375 C 32.035156 47.273438 32.867188 46.210938 33.722656 45.167969 C 34.582031 44.121094 35.464844 43.101562 36.371094 42.097656 C 37.277344 41.097656 38.210938 40.121094 39.164062 39.164062 C 40.121094 38.210938 41.097656 37.277344 42.097656 36.371094 C 43.101562 35.464844 44.121094 34.582031 45.167969 33.722656 C 46.210938 32.867188 47.273438 32.035156 48.359375 31.230469 C 49.445312 30.425781 50.550781 29.648438 51.671875 28.898438 C 52.796875 28.144531 53.9375 27.421875 55.09375 26.730469 C 56.253906 26.035156 57.429688 25.367188 58.621094 24.730469 C 59.8125 24.09375 61.015625 23.484375 62.238281 22.90625 C 63.460938 22.328125 64.695312 21.78125 65.941406 21.265625 C 67.191406 20.746094 68.449219 20.257812 69.722656 19.804688 C 70.992188 19.347656 72.273438 18.925781 73.566406 18.53125 C 74.859375 18.136719 76.160156 17.777344 77.472656 17.449219 C 78.78125 17.117188 80.101562 16.820312 81.425781 16.558594 C 82.75 16.292969 84.078125 16.0625 85.417969 15.863281 C 86.753906 15.664062 88.09375 15.496094 89.4375 15.363281 C 90.78125 15.230469 92.128906 15.128906 93.476562 15.0625 C 94.828125 14.996094 96.175781 14.960938 97.527344 14.960938 L 117.082031 14.960938 C 117.574219 14.960938 118.058594 14.910156 118.542969 14.816406 C 119.023438 14.71875 119.492188 14.578125 119.945312 14.390625 C 120.398438 14.203125 120.828125 13.972656 121.238281 13.699219 C 121.644531 13.425781 122.023438 13.117188 122.371094 12.769531 C 122.71875 12.421875 123.027344 12.042969 123.300781 11.636719 C 123.574219 11.226562 123.804688 10.796875 123.992188 10.339844 C 124.179688 9.886719 124.320312 9.421875 124.417969 8.9375 C 124.515625 8.457031 124.5625 7.96875 124.5625 7.480469 C 124.5625 6.988281 124.515625 6.503906 124.417969 6.019531 C 124.320312 5.539062 124.179688 5.070312 123.992188 4.617188 C 123.804688 4.164062 123.574219 3.734375 123.300781 3.324219 C 123.027344 2.914062 122.71875 2.539062 122.371094 2.191406 C 122.023438 1.84375 121.644531 1.535156 121.238281 1.261719 C 120.828125 0.988281 120.398438 0.757812 119.945312 0.570312 C 119.492188 0.382812 119.023438 0.238281 118.542969 0.144531 C 118.058594 0.046875 117.574219 0 117.082031 0 L 97.527344 0 C 95.933594 0.00390625 94.339844 0.046875 92.746094 0.128906 C 91.152344 0.210938 89.5625 0.332031 87.976562 0.492188 C 86.390625 0.652344 84.808594 0.851562 83.230469 1.085938 C 81.652344 1.324219 80.082031 1.601562 78.519531 1.914062 C 76.953125 2.226562 75.398438 2.582031 73.851562 2.96875 C 72.304688 3.359375 70.769531 3.789062 69.242188 4.253906 C 67.71875 4.71875 66.207031 5.222656 64.703125 5.761719 C 63.203125 6.300781 61.714844 6.875 60.242188 7.488281 C 58.769531 8.101562 57.3125 8.75 55.871094 9.433594 C 54.429688 10.117188 53.007812 10.835938 51.601562 11.585938 C 50.195312 12.339844 48.808594 13.128906 47.441406 13.949219 C 46.074219 14.769531 44.726562 15.625 43.402344 16.511719 C 42.074219 17.398438 40.773438 18.316406 39.492188 19.269531 C 38.210938 20.21875 36.953125 21.199219 35.722656 22.210938 C 34.488281 23.222656 33.28125 24.265625 32.101562 25.335938 C 30.917969 26.410156 29.765625 27.507812 28.636719 28.636719 C 27.507812 29.765625 26.410156 30.917969 25.335938 32.101562 C 24.265625 33.28125 23.222656 34.488281 22.210938 35.722656 C 21.199219 36.953125 20.21875 38.210938 19.269531 39.492188 C 18.316406 40.773438 17.398438 42.074219 16.511719 43.402344 C 15.625 44.726562 14.769531 46.074219 13.949219 47.441406 C 13.128906 48.808594 12.339844 50.195312 11.585938 51.601562 C 10.835938 53.007812 10.117188 54.429688 9.433594 55.871094 C 8.75 57.3125 8.101562 58.769531 7.488281 60.242188 C 6.875 61.714844 6.300781 63.203125 5.761719 64.703125 C 5.222656 66.207031 4.71875 67.71875 4.253906 69.242188 C 3.789062 70.769531 3.359375 72.304688 2.972656 73.851562 C 2.582031 75.398438 2.226562 76.953125 1.914062 78.519531 C 1.601562 80.082031 1.324219 81.652344 1.085938 83.230469 C 0.851562 84.808594 0.652344 86.390625 0.492188 87.976562 C 0.332031 89.5625 0.210938 91.152344 0.128906 92.746094 C 0.046875 94.339844 0.00390625 95.933594 0 97.527344 L 0 286.519531 C 0.00390625 288.117188 0.046875 289.710938 0.128906 291.304688 C 0.210938 292.894531 0.332031 294.484375 0.492188 296.074219 C 0.652344 297.660156 0.851562 299.242188 1.085938 300.820312 C 1.324219 302.398438 1.601562 303.96875 1.914062 305.53125 C 2.226562 307.09375 2.582031 308.648438 2.96875 310.195312 C 3.359375 311.742188 3.789062 313.277344 4.253906 314.804688 C 4.71875 316.332031 5.222656 317.84375 5.761719 319.34375 C 6.300781 320.847656 6.875 322.332031 7.488281 323.804688 C 8.101562 325.277344 8.75 326.734375 9.433594 328.175781 C 10.117188 329.617188 10.835938 331.042969 11.585938 332.449219 C 12.339844 333.851562 13.128906 335.238281 13.949219 336.605469 C 14.769531 337.976562 15.625 339.320312 16.511719 340.648438 C 17.398438 341.972656 18.316406 343.277344 19.269531 344.554688 C 20.21875 345.835938 21.199219 347.09375 22.210938 348.328125 C 23.222656 349.558594 24.265625 350.765625 25.335938 351.949219 C 26.410156 353.128906 27.507812 354.285156 28.636719 355.414062 C 29.765625 356.539062 30.917969 357.640625 32.101562 358.710938 C 33.28125 359.78125 34.488281 360.824219 35.722656 361.835938 C 36.953125 362.847656 38.210938 363.832031 39.492188 364.78125 C 40.773438 365.730469 42.074219 366.652344 43.402344 367.539062 C 44.726562 368.425781 46.074219 369.277344 47.441406 370.101562 C 48.808594 370.921875 50.195312 371.707031 51.601562 372.460938 C 53.007812 373.214844 54.429688 373.933594 55.871094 374.617188 C 57.3125 375.300781 58.769531 375.949219 60.242188 376.558594 C 61.714844 377.171875 63.203125 377.75 64.703125 378.289062 C 66.207031 378.828125 67.71875 379.328125 69.242188 379.792969 C 70.769531 380.261719 72.304688 380.6875 73.851562 381.078125 C 75.398438 381.46875 76.953125 381.820312 78.519531 382.132812 C 80.082031 382.449219 81.652344 382.722656 83.230469 382.960938 C 84.808594 383.199219 86.390625 383.398438 87.976562 383.558594 C 89.5625 383.71875 91.152344 383.839844 92.746094 383.917969 C 94.339844 384 95.933594 384.042969 97.527344 384.050781 L 286.519531 384.050781 C 288.117188 384.046875 289.710938 384.007812 291.308594 383.929688 C 292.902344 383.851562 294.492188 383.734375 296.082031 383.578125 C 297.667969 383.421875 299.253906 383.226562 300.832031 382.992188 C 302.410156 382.757812 303.984375 382.484375 305.546875 382.175781 C 307.113281 381.863281 308.671875 381.515625 310.21875 381.125 C 311.765625 380.738281 313.304688 380.3125 314.832031 379.847656 C 316.359375 379.386719 317.875 378.886719 319.378906 378.347656 C 320.878906 377.808594 322.367188 377.234375 323.84375 376.625 C 325.316406 376.015625 326.777344 375.367188 328.21875 374.683594 C 329.664062 374.003906 331.085938 373.285156 332.496094 372.53125 C 333.902344 371.78125 335.292969 370.992188 336.660156 370.171875 C 338.03125 369.351562 339.378906 368.5 340.703125 367.613281 C 342.03125 366.726562 343.335938 365.808594 344.617188 364.855469 C 345.902344 363.90625 347.160156 362.921875 348.390625 361.910156 C 349.625 360.898438 350.835938 359.855469 352.015625 358.785156 C 353.199219 357.710938 354.355469 356.613281 355.484375 355.484375 C 356.613281 354.355469 357.710938 353.199219 358.785156 352.015625 C 359.855469 350.835938 360.898438 349.625 361.910156 348.390625 C 362.921875 347.160156 363.90625 345.902344 364.855469 344.617188 C 365.808594 343.335938 366.726562 342.03125 367.613281 340.703125 C 368.5 339.378906 369.351562 338.03125 370.171875 336.660156 C 370.992188 335.292969 371.78125 333.902344 372.53125 332.496094 C 373.285156 331.085938 374.003906 329.664062 374.683594 328.21875 C 375.367188 326.777344 376.015625 325.316406 376.625 323.84375 C 377.234375 322.367188 377.808594 320.878906 378.347656 319.378906 C 378.886719 317.875 379.386719 316.359375 379.847656 314.832031 C 380.3125 313.304688 380.738281 311.765625 381.125 310.21875 C 381.515625 308.671875 381.863281 307.113281 382.175781 305.546875 C 382.484375 303.980469 382.757812 302.410156 382.992188 300.832031 C 383.226562 299.253906 383.421875 297.667969 383.578125 296.082031 C 383.734375 294.492188 383.851562 292.902344 383.929688 291.308594 C 384.007812 289.710938 384.050781 288.117188 384.050781 286.519531 L 384.050781 97.527344 C 384.042969 95.933594 384 94.339844 383.917969 92.746094 C 383.835938 91.152344 383.71875 89.5625 383.558594 87.976562 C 383.398438 86.390625 383.199219 84.808594 382.960938 83.230469 C 382.722656 81.652344 382.449219 80.082031 382.132812 78.519531 C 381.820312 76.953125 381.46875 75.398438 381.078125 73.851562 C 380.6875 72.304688 380.261719 70.769531 379.792969 69.242188 C 379.328125 67.71875 378.828125 66.207031 378.289062 64.703125 C 377.746094 63.203125 377.171875 61.714844 376.558594 60.242188 C 375.949219 58.769531 375.300781 57.3125 374.617188 55.871094 C 373.933594 54.429688 373.214844 53.007812 372.460938 51.601562 C 371.707031 50.195312 370.921875 48.808594 370.097656 47.441406 C 369.277344 46.074219 368.425781 44.726562 367.539062 43.402344 C 366.652344 42.074219 365.730469 40.773438 364.78125 39.492188 C 363.832031 38.210938 362.847656 36.953125 361.835938 35.722656 C 360.824219 34.488281 359.78125 33.28125 358.710938 32.101562 C 357.640625 30.917969 356.539062 29.765625 355.414062 28.636719 C 354.285156 27.507812 353.128906 26.410156 351.949219 25.335938 C 350.765625 24.265625 349.558594 23.222656 348.328125 22.210938 C 347.09375 21.199219 345.835938 20.21875 344.554688 19.269531 C 343.277344 18.316406 341.972656 17.398438 340.648438 16.511719 C 339.320312 15.625 337.976562 14.769531 336.605469 13.949219 C 335.238281 13.128906 333.851562 12.339844 332.445312 11.585938 C 331.042969 10.835938 329.617188 10.117188 328.175781 9.433594 C 326.734375 8.75 325.277344 8.101562 323.804688 7.488281 C 322.332031 6.875 320.847656 6.300781 319.34375 5.761719 C 317.84375 5.222656 316.332031 4.71875 314.804688 4.253906 C 313.277344 3.789062 311.742188 3.359375 310.195312 2.972656 C 308.648438 2.582031 307.09375 2.226562 305.53125 1.914062 C 303.96875 1.601562 302.398438 1.324219 300.820312 1.085938 C 299.242188 0.851562 297.660156 0.652344 296.074219 0.492188 C 294.484375 0.332031 292.894531 0.210938 291.304688 0.128906 C 289.710938 0.046875 288.117188 0.00390625 286.519531 0 Z M 286.519531 0 " fill-opacity="1" fill-rule="nonzero"/><path fill="#38b6ff" d="M 267.1875 354.105469 L 286.519531 354.105469 C 287.625 354.105469 288.730469 354.074219 289.835938 354.019531 C 290.941406 353.960938 292.042969 353.878906 293.140625 353.769531 C 294.242188 353.660156 295.339844 353.523438 296.433594 353.359375 C 297.523438 353.195312 298.613281 353.003906 299.699219 352.789062 C 300.78125 352.570312 301.859375 352.328125 302.933594 352.058594 C 304.003906 351.785156 305.070312 351.492188 306.125 351.167969 C 307.183594 350.847656 308.234375 350.5 309.273438 350.125 C 310.3125 349.75 311.34375 349.351562 312.367188 348.929688 C 313.386719 348.503906 314.398438 348.054688 315.394531 347.582031 C 316.394531 347.109375 317.382812 346.613281 318.355469 346.089844 C 319.332031 345.566406 320.292969 345.023438 321.238281 344.453125 C 322.1875 343.886719 323.121094 343.292969 324.039062 342.679688 C 324.960938 342.0625 325.863281 341.425781 326.75 340.769531 C 327.636719 340.109375 328.507812 339.429688 329.363281 338.726562 C 330.21875 338.027344 331.054688 337.304688 331.875 336.5625 C 332.691406 335.820312 333.492188 335.058594 334.273438 334.273438 C 335.058594 333.492188 335.820312 332.691406 336.5625 331.875 C 337.304688 331.054688 338.027344 330.21875 338.726562 329.363281 C 339.429688 328.507812 340.109375 327.636719 340.769531 326.75 C 341.425781 325.863281 342.0625 324.960938 342.679688 324.039062 C 343.292969 323.121094 343.886719 322.1875 344.453125 321.242188 C 345.023438 320.292969 345.566406 319.332031 346.089844 318.355469 C 346.613281 317.382812 347.109375 316.394531 347.582031 315.394531 C 348.054688 314.398438 348.503906 313.386719 348.929688 312.367188 C 349.351562 311.34375 349.75 310.3125 350.125 309.273438 C 350.5 308.234375 350.847656 307.183594 351.167969 306.125 C 351.492188 305.070312 351.785156 304.003906 352.058594 302.933594 C 352.328125 301.859375 352.570312 300.78125 352.789062 299.699219 C 353.003906 298.613281 353.195312 297.523438 353.359375 296.433594 C 353.523438 295.339844 353.660156 294.242188 353.769531 293.140625 C 353.878906 292.042969 353.960938 290.941406 354.019531 289.835938 C 354.074219 288.730469 354.105469 287.625 354.105469 286.519531 L 354.105469 97.527344 C 354.105469 96.421875 354.074219 95.316406 354.019531 94.214844 C 353.960938 93.109375 353.878906 92.007812 353.769531 90.90625 C 353.660156 89.808594 353.523438 88.710938 353.359375 87.617188 C 353.195312 86.523438 353.003906 85.433594 352.789062 84.351562 C 352.570312 83.265625 352.328125 82.1875 352.058594 81.117188 C 351.785156 80.042969 351.492188 78.980469 351.167969 77.921875 C 350.847656 76.863281 350.5 75.816406 350.125 74.773438 C 349.75 73.734375 349.351562 72.703125 348.929688 71.683594 C 348.503906 70.660156 348.054688 69.652344 347.582031 68.652344 C 347.109375 67.652344 346.613281 66.667969 346.089844 65.691406 C 345.566406 64.71875 345.023438 63.757812 344.453125 62.808594 C 343.886719 61.859375 343.292969 60.925781 342.679688 60.007812 C 342.0625 59.089844 341.425781 58.1875 340.769531 57.296875 C 340.109375 56.410156 339.429688 55.539062 338.726562 54.683594 C 338.027344 53.832031 337.304688 52.992188 336.5625 52.175781 C 335.820312 51.355469 335.058594 50.554688 334.273438 49.773438 C 333.492188 48.992188 332.691406 48.230469 331.875 47.488281 C 331.054688 46.746094 330.21875 46.023438 329.363281 45.320312 C 328.507812 44.621094 327.636719 43.9375 326.75 43.28125 C 325.863281 42.621094 324.960938 41.984375 324.039062 41.371094 C 323.121094 40.753906 322.1875 40.164062 321.238281 39.59375 C 320.292969 39.027344 319.332031 38.480469 318.355469 37.957031 C 317.382812 37.4375 316.394531 36.941406 315.394531 36.464844 C 314.398438 35.992188 313.386719 35.542969 312.367188 35.121094 C 311.34375 34.695312 310.3125 34.296875 309.273438 33.921875 C 308.234375 33.550781 307.183594 33.203125 306.125 32.878906 C 305.070312 32.558594 304.003906 32.261719 302.933594 31.992188 C 301.859375 31.722656 300.78125 31.480469 299.699219 31.261719 C 298.613281 31.042969 297.523438 30.855469 296.433594 30.691406 C 295.339844 30.527344 294.242188 30.390625 293.140625 30.277344 C 292.042969 30.167969 290.941406 30.085938 289.835938 30.03125 C 288.730469 29.972656 287.625 29.945312 286.519531 29.941406 L 97.527344 29.941406 C 96.421875 29.945312 95.316406 29.972656 94.214844 30.03125 C 93.109375 30.085938 92.007812 30.167969 90.90625 30.277344 C 89.808594 30.390625 88.710938 30.527344 87.617188 30.691406 C 86.523438 30.855469 85.433594 31.042969 84.351562 31.261719 C 83.265625 31.480469 82.1875 31.722656 81.117188 31.992188 C 80.042969 32.261719 78.980469 32.558594 77.921875 32.878906 C 76.863281 33.203125 75.816406 33.550781 74.773438 33.921875 C 73.734375 34.296875 72.703125 34.695312 71.683594 35.121094 C 70.660156 35.542969 69.652344 35.992188 68.652344 36.464844 C 67.652344 36.941406 66.667969 37.4375 65.691406 37.957031 C 64.71875 38.480469 63.757812 39.027344 62.808594 39.59375 C 61.859375 40.164062 60.925781 40.753906 60.007812 41.371094 C 59.089844 41.984375 58.1875 42.621094 57.296875 43.28125 C 56.410156 43.9375 55.539062 44.621094 54.683594 45.320312 C 53.832031 46.023438 52.992188 46.746094 52.175781 47.488281 C 51.355469 48.230469 50.554688 48.992188 49.773438 49.773438 C 48.992188 50.554688 48.230469 51.355469 47.488281 52.175781 C 46.746094 52.992188 46.023438 53.832031 45.320312 54.683594 C 44.621094 55.539062 43.9375 56.410156 43.28125 57.296875 C 42.621094 58.1875 41.984375 59.089844 41.371094 60.007812 C 40.753906 60.925781 40.164062 61.859375 39.59375 62.808594 C 39.027344 63.757812 38.480469 64.71875 37.957031 65.691406 C 37.4375 66.667969 36.941406 67.652344 36.464844 68.652344 C 35.992188 69.652344 35.542969 70.660156 35.121094 71.683594 C 34.695312 72.703125 34.296875 73.734375 33.921875 74.773438 C 33.550781 75.816406 33.203125 76.863281 32.878906 77.921875 C 32.558594 78.980469 32.261719 80.042969 31.992188 81.117188 C 31.722656 82.1875 31.480469 83.265625 31.261719 84.351562 C 31.042969 85.433594 30.855469 86.523438 30.691406 87.617188 C 30.527344 88.710938 30.390625 89.808594 30.277344 90.90625 C 30.167969 92.007812 30.085938 93.109375 30.03125 94.214844 C 29.972656 95.316406 29.945312 96.421875 29.941406 97.527344 L 29.941406 286.519531 C 29.945312 287.625 29.972656 288.730469 30.03125 289.835938 C 30.085938 290.941406 30.167969 292.042969 30.277344 293.140625 C 30.390625 294.242188 30.527344 295.339844 30.691406 296.433594 C 30.855469 297.523438 31.042969 298.613281 31.261719 299.699219 C 31.480469 300.78125 31.722656 301.859375 31.992188 302.933594 C 32.261719 304.003906 32.558594 305.070312 32.878906 306.125 C 33.203125 307.183594 33.550781 308.234375 33.921875 309.273438 C 34.296875 310.3125 34.695312 311.34375 35.121094 312.367188 C 35.542969 313.386719 35.992188 314.398438 36.464844 315.394531 C 36.941406 316.394531 37.4375 317.382812 37.957031 318.355469 C 38.480469 319.332031 39.027344 320.292969 39.59375 321.242188 C 40.164062 322.1875 40.753906 323.121094 41.371094 324.039062 C 41.984375 324.960938 42.621094 325.863281 43.28125 326.75 C 43.9375 327.636719 44.621094 328.507812 45.320312 329.363281 C 46.023438 330.21875 46.746094 331.054688 47.488281 331.875 C 48.230469 332.691406 48.992188 333.492188 49.773438 334.273438 C 50.554688 335.058594 51.355469 335.820312 52.175781 336.5625 C 52.992188 337.304688 53.832031 338.027344 54.683594 338.726562 C 55.539062 339.429688 56.410156 340.109375 57.296875 340.769531 C 58.1875 341.425781 59.089844 342.0625 60.007812 342.679688 C 60.925781 343.292969 61.859375 343.886719 62.808594 344.453125 C 63.757812 345.023438 64.71875 345.566406 65.691406 346.089844 C 66.667969 346.613281 67.652344 347.109375 68.652344 347.582031 C 69.652344 348.054688 70.660156 348.503906 71.683594 348.929688 C 72.703125 349.351562 73.734375 349.75 74.773438 350.125 C 75.816406 350.5 76.863281 350.847656 77.921875 351.167969 C 78.980469 351.492188 80.042969 351.785156 81.117188 352.058594 C 82.1875 352.328125 83.265625 352.570312 84.351562 352.789062 C 85.433594 353.003906 86.523438 353.195312 87.617188 353.359375 C 88.710938 353.523438 89.808594 353.660156 90.90625 353.769531 C 92.007812 353.878906 93.109375 353.960938 94.214844 354.019531 C 95.316406 354.074219 96.421875 354.105469 97.527344 354.105469 L 207.105469 354.105469 C 207.597656 354.105469 208.082031 354.058594 208.566406 353.960938 C 209.046875 353.867188 209.515625 353.722656 209.96875 353.535156 C 210.421875 353.347656 210.851562 353.117188 211.261719 352.84375 C 211.667969 352.574219 212.046875 352.261719 212.394531 351.914062 C 212.742188 351.566406 213.050781 351.191406 213.324219 350.78125 C 213.597656 350.375 213.828125 349.941406 214.015625 349.488281 C 214.203125 349.035156 214.347656 348.566406 214.441406 348.085938 C 214.539062 347.605469 214.585938 347.117188 214.585938 346.625 C 214.585938 346.136719 214.539062 345.648438 214.441406 345.167969 C 214.347656 344.6875 214.203125 344.21875 214.015625 343.765625 C 213.828125 343.308594 213.597656 342.878906 213.324219 342.472656 C 213.050781 342.0625 212.742188 341.683594 212.394531 341.335938 C 212.046875 340.992188 211.667969 340.679688 211.261719 340.40625 C 210.851562 340.132812 210.421875 339.902344 209.96875 339.714844 C 209.515625 339.527344 209.046875 339.386719 208.566406 339.289062 C 208.082031 339.195312 207.597656 339.148438 207.105469 339.148438 L 97.527344 339.148438 C 95.808594 339.144531 94.09375 339.054688 92.378906 338.882812 C 90.667969 338.710938 88.96875 338.457031 87.285156 338.117188 C 85.597656 337.78125 83.929688 337.359375 82.285156 336.855469 C 80.640625 336.355469 79.023438 335.773438 77.4375 335.109375 C 75.847656 334.449219 74.296875 333.710938 72.78125 332.898438 C 71.265625 332.082031 69.796875 331.199219 68.367188 330.238281 C 66.9375 329.28125 65.5625 328.253906 64.234375 327.160156 C 62.90625 326.066406 61.636719 324.910156 60.421875 323.691406 C 59.207031 322.472656 58.058594 321.195312 56.96875 319.863281 C 55.878906 318.53125 54.859375 317.152344 53.90625 315.71875 C 52.953125 314.285156 52.074219 312.8125 51.265625 311.292969 C 50.460938 309.773438 49.730469 308.21875 49.074219 306.628906 C 48.417969 305.039062 47.84375 303.417969 47.347656 301.773438 C 46.851562 300.125 46.4375 298.457031 46.109375 296.769531 C 45.777344 295.082031 45.527344 293.382812 45.363281 291.667969 C 45.199219 289.957031 45.117188 288.242188 45.121094 286.519531 L 45.121094 97.527344 C 45.121094 95.8125 45.207031 94.101562 45.375 92.390625 C 45.546875 90.683594 45.796875 88.988281 46.132812 87.304688 C 46.46875 85.621094 46.886719 83.960938 47.382812 82.316406 C 47.882812 80.675781 48.460938 79.0625 49.117188 77.476562 C 49.773438 75.890625 50.507812 74.34375 51.316406 72.828125 C 52.125 71.316406 53.007812 69.84375 53.960938 68.417969 C 54.914062 66.992188 55.9375 65.613281 57.023438 64.289062 C 58.113281 62.960938 59.265625 61.691406 60.476562 60.476562 C 61.691406 59.265625 62.960938 58.113281 64.289062 57.023438 C 65.613281 55.9375 66.992188 54.914062 68.417969 53.960938 C 69.84375 53.007812 71.316406 52.125 72.828125 51.316406 C 74.34375 50.507812 75.890625 49.773438 77.476562 49.117188 C 79.0625 48.460938 80.675781 47.882812 82.316406 47.382812 C 83.960938 46.886719 85.621094 46.46875 87.304688 46.132812 C 88.988281 45.796875 90.683594 45.546875 92.390625 45.375 C 94.101562 45.207031 95.8125 45.121094 97.527344 45.121094 L 286.519531 45.121094 C 288.242188 45.113281 289.960938 45.191406 291.675781 45.351562 C 293.390625 45.511719 295.09375 45.757812 296.785156 46.085938 C 298.476562 46.414062 300.144531 46.828125 301.796875 47.320312 C 303.445312 47.8125 305.070312 48.386719 306.664062 49.039062 C 308.257812 49.691406 309.8125 50.421875 311.335938 51.226562 C 312.859375 52.035156 314.335938 52.914062 315.773438 53.867188 C 317.207031 54.816406 318.59375 55.839844 319.925781 56.925781 C 321.261719 58.015625 322.539062 59.164062 323.761719 60.378906 C 324.984375 61.59375 326.140625 62.867188 327.238281 64.195312 C 328.335938 65.523438 329.363281 66.902344 330.324219 68.332031 C 331.285156 69.761719 332.171875 71.234375 332.988281 72.75 C 333.804688 74.265625 334.542969 75.820312 335.207031 77.410156 C 335.867188 79 336.453125 80.617188 336.953125 82.265625 C 337.457031 83.914062 337.878906 85.582031 338.21875 87.269531 C 338.558594 88.957031 338.8125 90.660156 338.984375 92.375 C 339.15625 94.085938 339.242188 95.804688 339.246094 97.527344 L 339.246094 286.519531 C 339.246094 288.246094 339.164062 289.964844 339 291.679688 C 338.832031 293.394531 338.582031 295.097656 338.246094 296.789062 C 337.910156 298.480469 337.496094 300.152344 336.996094 301.800781 C 336.496094 303.453125 335.917969 305.074219 335.261719 306.667969 C 334.601562 308.257812 333.867188 309.816406 333.054688 311.335938 C 332.246094 312.859375 331.359375 314.335938 330.402344 315.769531 C 329.445312 317.203125 328.421875 318.585938 327.328125 319.917969 C 326.234375 321.25 325.078125 322.527344 323.859375 323.746094 C 322.644531 324.964844 321.367188 326.121094 320.035156 327.214844 C 318.703125 328.308594 317.320312 329.335938 315.886719 330.292969 C 314.453125 331.25 312.976562 332.132812 311.457031 332.945312 C 309.9375 333.757812 308.378906 334.496094 306.785156 335.152344 C 305.195312 335.8125 303.574219 336.390625 301.921875 336.890625 C 300.273438 337.390625 298.601562 337.808594 296.910156 338.144531 C 295.222656 338.480469 293.519531 338.730469 291.800781 338.898438 C 290.085938 339.066406 288.367188 339.148438 286.644531 339.148438 L 267.308594 339.148438 C 266.816406 339.148438 266.332031 339.195312 265.851562 339.289062 C 265.367188 339.386719 264.902344 339.527344 264.445312 339.714844 C 263.992188 339.902344 263.5625 340.132812 263.152344 340.40625 C 262.746094 340.679688 262.367188 340.992188 262.019531 341.335938 C 261.671875 341.683594 261.363281 342.0625 261.089844 342.472656 C 260.816406 342.878906 260.585938 343.308594 260.398438 343.765625 C 260.210938 344.21875 260.070312 344.6875 259.972656 345.167969 C 259.878906 345.648438 259.828125 346.136719 259.828125 346.625 C 259.828125 347.117188 259.878906 347.605469 259.972656 348.085938 C 260.070312 348.566406 260.210938 349.035156 260.398438 349.488281 C 260.585938 349.941406 260.816406 350.375 261.089844 350.78125 C 261.363281 351.191406 261.671875 351.566406 262.019531 351.914062 C 262.367188 352.261719 262.746094 352.574219 263.152344 352.84375 C 263.5625 353.117188 263.992188 353.347656 264.445312 353.535156 C 264.902344 353.722656 265.367188 353.867188 265.851562 353.960938 C 266.332031 354.058594 266.816406 354.105469 267.308594 354.105469 Z M 267.1875 354.105469 " fill-opacity="1" fill-rule="nonzero"/><path fill="#38b6ff" d="M 70.6875 132.871094 L 70.6875 221.648438 C 70.691406 222.839844 70.75 224.027344 70.867188 225.210938 C 70.988281 226.398438 71.164062 227.574219 71.394531 228.742188 C 71.628906 229.90625 71.917969 231.0625 72.265625 232.199219 C 72.609375 233.339844 73.011719 234.457031 73.46875 235.558594 C 73.925781 236.660156 74.433594 237.734375 74.992188 238.78125 C 75.554688 239.832031 76.167969 240.851562 76.828125 241.84375 C 77.488281 242.832031 78.195312 243.789062 78.953125 244.710938 C 79.707031 245.628906 80.503906 246.511719 81.347656 247.355469 C 82.1875 248.195312 83.066406 248.996094 83.988281 249.75 C 84.90625 250.507812 85.863281 251.21875 86.851562 251.878906 C 87.839844 252.542969 88.859375 253.15625 89.90625 253.71875 C 90.957031 254.28125 92.03125 254.789062 93.128906 255.246094 C 94.230469 255.707031 95.347656 256.109375 96.488281 256.457031 C 97.625 256.804688 98.777344 257.09375 99.945312 257.328125 C 101.113281 257.5625 102.289062 257.742188 103.472656 257.859375 C 104.65625 257.980469 105.84375 258.042969 107.035156 258.046875 L 236.828125 258.046875 C 237.265625 258.042969 237.695312 257.996094 238.121094 257.910156 C 238.550781 257.820312 238.964844 257.695312 239.367188 257.527344 C 239.765625 257.359375 240.148438 257.152344 240.511719 256.910156 C 240.871094 256.667969 241.207031 256.390625 241.515625 256.082031 C 241.824219 255.777344 242.097656 255.441406 242.339844 255.078125 C 242.585938 254.71875 242.789062 254.335938 242.957031 253.933594 C 243.125 253.53125 243.253906 253.117188 243.339844 252.691406 C 243.429688 252.261719 243.472656 251.832031 243.476562 251.398438 L 243.476562 162.398438 C 243.46875 161.207031 243.402344 160.015625 243.277344 158.832031 C 243.152344 157.644531 242.96875 156.46875 242.730469 155.300781 C 242.488281 154.128906 242.191406 152.976562 241.839844 151.835938 C 241.484375 150.699219 241.074219 149.578125 240.613281 148.480469 C 240.148438 147.382812 239.632812 146.308594 239.0625 145.261719 C 238.492188 144.210938 237.871094 143.195312 237.203125 142.207031 C 236.535156 141.21875 235.816406 140.265625 235.054688 139.351562 C 234.292969 138.433594 233.488281 137.554688 232.636719 136.71875 C 231.789062 135.878906 230.898438 135.085938 229.972656 134.335938 C 229.046875 133.585938 228.085938 132.882812 227.089844 132.226562 C 226.089844 131.570312 225.066406 130.964844 224.011719 130.410156 C 222.953125 129.855469 221.875 129.351562 220.769531 128.902344 C 219.664062 128.453125 218.539062 128.058594 217.394531 127.722656 C 216.25 127.382812 215.09375 127.101562 213.921875 126.875 C 212.75 126.652344 211.570312 126.484375 210.382812 126.375 C 209.195312 126.265625 208.003906 126.214844 206.8125 126.222656 L 77.265625 126.222656 C 76.828125 126.21875 76.390625 126.257812 75.960938 126.339844 C 75.53125 126.421875 75.113281 126.542969 74.707031 126.710938 C 74.304688 126.875 73.917969 127.078125 73.554688 127.320312 C 73.1875 127.5625 72.851562 127.839844 72.542969 128.148438 C 72.230469 128.457031 71.957031 128.796875 71.714844 129.160156 C 71.472656 129.527344 71.265625 129.910156 71.101562 130.316406 C 70.9375 130.722656 70.8125 131.140625 70.730469 131.570312 C 70.648438 132 70.609375 132.433594 70.617188 132.871094 Z M 251.8125 167.582031 L 305.246094 128.472656 C 309.816406 124.539062 313.554688 125.5625 313.554688 132.433594 L 313.554688 251.761719 C 313.554688 259.660156 308.984375 258.605469 305.246094 255.699219 L 251.8125 216.835938 Z M 251.8125 167.582031 " fill-opacity="1" fill-rule="nonzero"/></svg>