<svg xmlns="http://www.w3.org/2000/svg" xmlns:xlink="http://www.w3.org/1999/xlink" width="512" zoomAndPan="magnify" viewBox="0 0 384 383.999986" height="512" preserveAspectRatio="xMidYMid meet" version="1.0"><defs><clipPath id="d73e8d34cb"><path d="M 15.605469 0 L 353.105469 0 L 353.105469 384 L 15.605469 384 Z M 15.605469 0 " clip-rule="nonzero"/></clipPath></defs><g clip-path="url(#d73e8d34cb)"><path fill="#38b6ff" d="M 187.046875 243.824219 L 187.046875 275.0625 C 187.046875 275.949219 187.484375 276.707031 188.25 277.148438 L 212.699219 291.265625 C 214.308594 292.195312 216.3125 291.039062 216.3125 289.179688 L 216.3125 247.464844 L 317.226562 189.203125 L 349.035156 207.566406 C 351.589844 209.042969 353.050781 211.570312 353.050781 214.519531 L 353.050781 321.777344 C 353.050781 324.722656 351.589844 327.253906 349.035156 328.726562 L 256.148438 382.355469 C 253.597656 383.828125 250.675781 383.828125 248.121094 382.355469 L 155.234375 328.726562 C 152.683594 327.253906 151.222656 324.722656 151.222656 321.777344 L 151.222656 224.714844 L 179.882812 241.261719 C 182.152344 242.570312 184.574219 243.425781 187.046875 243.824219 Z M 194.332031 1.722656 C 191.777344 0.25 188.855469 0.25 186.304688 1.722656 L 93.417969 55.351562 C 90.863281 56.824219 89.402344 59.355469 89.402344 62.304688 L 89.402344 169.5625 C 89.402344 172.507812 90.863281 175.039062 93.417969 176.511719 L 186.304688 230.140625 C 188.855469 231.613281 191.777344 231.613281 194.332031 230.140625 L 287.21875 176.511719 C 289.769531 175.039062 291.230469 172.507812 291.230469 169.5625 L 291.230469 62.304688 C 291.230469 59.355469 289.769531 56.824219 287.21875 55.351562 L 255.40625 36.984375 L 154.492188 95.25 L 154.492188 136.964844 C 154.492188 138.824219 152.492188 139.976562 150.882812 139.050781 L 126.433594 124.933594 C 125.667969 124.492188 125.226562 123.730469 125.226562 122.847656 L 125.226562 78.351562 L 226.140625 20.089844 Z M 76.5625 137.742188 L 51.414062 152.261719 L 51.414062 196.753906 C 51.414062 197.640625 51.851562 198.398438 52.617188 198.839844 L 77.066406 212.957031 C 78.675781 213.886719 80.675781 212.730469 80.675781 210.871094 L 80.675781 182.050781 C 82.34375 184.273438 84.472656 186.175781 86.996094 187.632812 L 138.378906 217.300781 L 138.378906 293.734375 L 120.515625 304.046875 C 117.960938 305.523438 115.039062 305.523438 112.488281 304.046875 L 19.601562 250.421875 C 17.050781 248.945312 15.589844 246.417969 15.589844 243.46875 L 15.589844 136.210938 C 15.589844 133.261719 17.050781 130.734375 19.601562 129.261719 L 76.5625 96.375 Z M 76.5625 137.742188 " fill-opacity="1" fill-rule="evenodd"/></g></svg>